<svg id="Layer_1" data-name="Layer 1" xmlns="http://www.w3.org/2000/svg" viewBox="0 0 450 350"><title>promo</title><path d="M217.1,314.2a16,16,0,0,1-13.7-7.9,62.41,62.41,0,0,0-71.1-29.4,16.06,16.06,0,0,1-15.5-3.9,14.63,14.63,0,0,1-3.9-14.6,62.25,62.25,0,0,0-29.6-71.3,15,15,0,0,1-6-20.2,15.72,15.72,0,0,1,6-6,62.17,62.17,0,0,0,29.6-71.3,14.46,14.46,0,0,1,3.9-14.5,15.65,15.65,0,0,1,11.1-4.5,16.66,16.66,0,0,1,4.4.6,63.62,63.62,0,0,0,16.8,2.3,62.37,62.37,0,0,0,54.3-31.7A15.81,15.81,0,0,1,225,36.1a15.58,15.58,0,0,1,5.7,5.7,62.74,62.74,0,0,0,54.2,31.7,63.62,63.62,0,0,0,16.8-2.3,15.88,15.88,0,0,1,15.4,3.9A14.52,14.52,0,0,1,321,89.6a62.25,62.25,0,0,0,29.6,71.3,14.93,14.93,0,0,1,6,20.2,14.46,14.46,0,0,1-6,6A62.35,62.35,0,0,0,321,258.4a14.69,14.69,0,0,1-3.9,14.6,15.65,15.65,0,0,1-11.1,4.5,15.4,15.4,0,0,1-4.3-.6,62.41,62.41,0,0,0-71.1,29.4,15.63,15.63,0,0,1-13.5,7.9Z" style="fill:#ebffed;opacity:0.46000000834465027;isolation:isolate"/><path d="M351.1,124.8a8.81,8.81,0,0,1-4.2-10,56.4,56.4,0,0,0-14.6-55.2,57,57,0,0,0-55.7-14.4,8.57,8.57,0,0,1-9.9-4.1,57.24,57.24,0,0,0-78-21.4,57.82,57.82,0,0,0-21.4,21.4,8.68,8.68,0,0,1-9.9,4.1,57.5,57.5,0,0,0-55.7,14.4,56.63,56.63,0,0,0-14.6,55.2,8.69,8.69,0,0,1-4.2,10,56.4,56.4,0,0,0,0,98.6,8.81,8.81,0,0,1,4.2,10,56.4,56.4,0,0,0,14.6,55.2A57,57,0,0,0,157.4,303a8.62,8.62,0,0,1,9.9,4.1,57.24,57.24,0,0,0,78,21.4,57.82,57.82,0,0,0,21.4-21.4,8.68,8.68,0,0,1,9.9-4.1,57.5,57.5,0,0,0,55.7-14.4,56.4,56.4,0,0,0,14.6-55.2,8.69,8.69,0,0,1,4.2-10,56.4,56.4,0,0,0,0-98.6Zm-6.5,87A22.14,22.14,0,0,0,334.1,237a43.15,43.15,0,0,1-11.2,42.2,44.17,44.17,0,0,1-42.8,11.1,21.82,21.82,0,0,0-25,10.4,43.85,43.85,0,0,1-76.2,0,22.08,22.08,0,0,0-25.1-10.4A44,44,0,0,1,111,279.2,43.09,43.09,0,0,1,99.8,237a22,22,0,0,0-10.4-25.2,43.16,43.16,0,0,1-16.8-58.6,42.43,42.43,0,0,1,16.8-16.8,22,22,0,0,0,10.4-25.2A43.15,43.15,0,0,1,111,69a44.17,44.17,0,0,1,42.8-11.1,22.08,22.08,0,0,0,25.1-10.3,43.76,43.76,0,0,1,59.8-16.3A43.24,43.24,0,0,1,255,47.6a21.9,21.9,0,0,0,25.1,10.3A44,44,0,0,1,322.9,69a43.09,43.09,0,0,1,11.2,42.2,22,22,0,0,0,10.5,25.2A43.16,43.16,0,0,1,361.4,195a42.43,42.43,0,0,1-16.8,16.8Z" style="fill:#28a745"/><path d="M134,143h1.92a.59.59,0,0,1,.55.55v17.73a.6.6,0,0,1-.55.55H134a.59.59,0,0,1-.55-.55V143.5A.58.58,0,0,1,134,143Z" style="fill:#28a745"/><path d="M143.19,148.71a4.79,4.79,0,0,1,4.75,4.84h0v7.77a.51.51,0,0,1-.45.55h-1.83a.59.59,0,0,1-.55-.55v-7.68a2,2,0,0,0-1.92-2h0a2,2,0,0,0-1.92,2v7.68a.53.53,0,0,1-.55.55h-1.83a.6.6,0,0,1-.55-.55v-12a.53.53,0,0,1,.55-.55h1.83a.61.61,0,0,1,.46.36A5.41,5.41,0,0,1,143.19,148.71Z" style="fill:#28a745"/><path d="M149.59,157.12v-5.4h-.46a.52.52,0,0,1-.46-.55v-1.82a.44.44,0,0,1,.46-.46h.46v-2.38a.58.58,0,0,1,.46-.55h1.82a.51.51,0,0,1,.46.55v2.38h3.57a.57.57,0,0,1,.54.46v1.82c0,.28-.27.46-.54.55h-3.57v5.4a2,2,0,0,0,2,2h.55c.46,0,.82-.37,1.1-.55a.56.56,0,0,1,.73,0,16.59,16.59,0,0,0,1.19,1.19.58.58,0,0,1-.09.82,4,4,0,0,1-2.93,1.28h-.55A4.84,4.84,0,0,1,149.59,157.12Z" style="fill:#28a745"/><path d="M163.39,148.8h.55a5.5,5.5,0,0,1,2.92,1.19.6.6,0,0,1,0,.91,15.27,15.27,0,0,1-1.18,1.28c-.28.18-.46.18-.64,0a1.79,1.79,0,0,0-1.1-.55h-.55a2,2,0,0,0-2,2v7.77a.43.43,0,0,1-.46.46h-1.83a.43.43,0,0,1-.45-.46v-12a.43.43,0,0,1,.45-.46h1.83a.43.43,0,0,1,.46.46A2.79,2.79,0,0,1,163.39,148.8Z" style="fill:#28a745"/><path d="M167.5,153.55a4.81,4.81,0,0,1,9.6-.46V157a4.81,4.81,0,1,1-9.6.46v-3.93Zm2.84,0V157a2,2,0,1,0,3.93.28v-3.75a2,2,0,0,0-3.93-.27v.27Z" style="fill:#28a745"/><path d="M178,157.12v-3.48a4.85,4.85,0,0,1,4.75-4.84h0a5,5,0,0,1,2,.45v-5.48a.52.52,0,0,1,.55-.46h1.74a.58.58,0,0,1,.54.46v17.55a.51.51,0,0,1-.54.46h-1.83a.42.42,0,0,1-.46-.37,4.89,4.89,0,0,1-2,.46,4.78,4.78,0,0,1-4.75-4.75Zm2.83-3.57V157a2,2,0,1,0,3.93.28v-3.75a2,2,0,0,0-3.93-.27A.17.17,0,0,0,180.85,153.55Z" style="fill:#28a745"/><path d="M189,157.12v-7.77a.43.43,0,0,1,.45-.46h1.83a.49.49,0,0,1,.46.46v7.77a2,2,0,1,0,3.93.27v-8a.51.51,0,0,1,.55-.46H198a.57.57,0,0,1,.54.46v12a.51.51,0,0,1-.54.46h-1.83a.62.62,0,0,1-.55-.37,4.89,4.89,0,0,1-2,.46,4.7,4.7,0,0,1-4.66-4.75Z" style="fill:#28a745"/><path d="M202.61,153.55V157a2,2,0,0,0,2,2h.55a3.08,3.08,0,0,0,1.09-.54.58.58,0,0,1,.83.09l1.18,1.09a.58.58,0,0,1-.09.83,4.26,4.26,0,0,1-3.56,1.28,4.72,4.72,0,0,1-4.85-4.66v-3.57a4.85,4.85,0,0,1,4.76-4.84h.54a5.52,5.52,0,0,1,2.93,1.18.6.6,0,0,1,.09.83A10.66,10.66,0,0,0,207,152c-.27.27-.73.09-.91,0a2.38,2.38,0,0,0-1.55-.46A2.07,2.07,0,0,0,202.61,153.55Z" style="fill:#28a745"/><path d="M209.46,157.12v-5.4H209c-.27,0-.45-.27-.54-.55v-1.82a.5.5,0,0,1,.54-.46h.46v-2.38c0-.27.28-.46.55-.55h1.83a.52.52,0,0,1,.46.55v2.38h3.56a.44.44,0,0,1,.46.46v1.82a.58.58,0,0,1-.46.55H212.3v5.4a2,2,0,0,0,2,2h.55a2.1,2.1,0,0,0,1.09-.55.56.56,0,0,1,.73,0c.46.45.83.91,1.19,1.19a.58.58,0,0,1-.09.82,4,4,0,0,1-2.92,1.28h-.55A4.86,4.86,0,0,1,209.46,157.12Z" style="fill:#28a745"/><path d="M218.15,153.55a4.85,4.85,0,0,1,9.69,0V157a4.85,4.85,0,1,1-9.69,0Zm2.83,0V157a1.92,1.92,0,1,0,3.84,0h0v-3.47a2,2,0,0,0-1.92-2h0a2.07,2.07,0,0,0-1.92,2Z" style="fill:#28a745"/><path d="M233.78,148.8h.55a5.54,5.54,0,0,1,2.92,1.19.61.61,0,0,1,0,.91h0a13.9,13.9,0,0,1-1.19,1.28c-.27.18-.55.18-.64,0a1.76,1.76,0,0,0-1.09-.55h-.55a2,2,0,0,0-2,2h0v7.77a.44.44,0,0,1-.46.46h-1.83a.58.58,0,0,1-.55-.46v-12a.44.44,0,0,1,.46-.46h1.83a.43.43,0,0,1,.45.46A3.33,3.33,0,0,1,233.78,148.8Z" style="fill:#28a745"/><path d="M239.17,167.35h-.09a.43.43,0,0,1-.46-.45v-1.83a.49.49,0,0,1,.46-.46h.09c1.55,0,1.92-2.56,2.19-3.47l-3.93-11.61a.47.47,0,0,1,.28-.64h2.19a.61.61,0,0,1,.46.36l2.56,7.59,2.56-7.59a.9.9,0,0,1,.45-.36h2c.54,0,.64.46.54.82-.54,1.74-5.11,14.63-5.11,14.9A4.72,4.72,0,0,1,239.17,167.35Z" style="fill:#28a745"/><path d="M264.45,148.17a5.4,5.4,0,0,1,5.3,5.3v3.8a5.25,5.25,0,0,1-5.3,5.2,5.85,5.85,0,0,1-2.2-.5v6.1a.47.47,0,0,1-.5.5h-2a.63.63,0,0,1-.6-.5v-19.3a.47.47,0,0,1,.5-.5h2a.47.47,0,0,1,.5.5A4.93,4.93,0,0,1,264.45,148.17Zm-2.2,5.2v3.8a2.16,2.16,0,0,0,4.3.3v-4.1a2.16,2.16,0,1,0-4.3-.3v.3Z" style="fill:#28a745"/><path d="M276.25,148.17h.6a6.07,6.07,0,0,1,3.2,1.3.67.67,0,0,1,0,1,16.61,16.61,0,0,1-1.3,1.4c-.3.2-.5.2-.7,0a2,2,0,0,0-1.2-.6h-.6a2.22,2.22,0,0,0-2.2,2.2V162a.47.47,0,0,1-.5.5h-2a.63.63,0,0,1-.6-.5v-13.1a.47.47,0,0,1,.5-.5h2a.47.47,0,0,1,.5.5A4.35,4.35,0,0,1,276.25,148.17Z" style="fill:#28a745"/><path d="M281.75,143.27h2a.56.56,0,0,1,.5.6v2a.47.47,0,0,1-.5.5h-2a.63.63,0,0,1-.6-.5v-2C281.25,143.57,281.45,143.27,281.75,143.27Zm0,4.9h2a.54.54,0,0,1,.5.5v13.1a.47.47,0,0,1-.5.5h-2a.54.54,0,0,1-.5-.5v-13.1A1.21,1.21,0,0,1,281.75,148.17Z" style="fill:#28a745"/><path d="M289,153.37v3.8a2.22,2.22,0,0,0,2.2,2.2h.6a3.38,3.38,0,0,0,1.2-.6.64.64,0,0,1,.9.1l1.3,1.3a.63.63,0,0,1-.1.9,4.65,4.65,0,0,1-3.9,1.4,5.16,5.16,0,0,1-5.2-5.2v-3.8a5.31,5.31,0,0,1,5.2-5.3h.7a6.07,6.07,0,0,1,3.2,1.3.64.64,0,0,1,.1.9,11.4,11.4,0,0,0-1.2,1.4c-.3.3-.7.1-1,0a2.62,2.62,0,0,0-1.7-.5A2.16,2.16,0,0,0,289,153.37Z" style="fill:#28a745"/><path d="M301.15,159.37h1.2a3.38,3.38,0,0,0,1.2-.6c.3-.2.5-.3.8,0l1.4,1.4a.61.61,0,0,1,.1.8l-.1.1a4.71,4.71,0,0,1-3.3,1.4h-1.2a5.16,5.16,0,0,1-5.2-5.2h0v-3.9a5.22,5.22,0,0,1,10.4-1v3.9a.47.47,0,0,1-.5.5h-6.9v.4a2,2,0,0,0,2.1,2.2Zm-2.2-6v.3h4.3v-.3a2.16,2.16,0,1,0-4.3-.3v.3Z" style="fill:#28a745"/><path d="M235.63,180.05a3.23,3.23,0,0,1,2.1.8,3.23,3.23,0,0,1,2.1-.8,3.16,3.16,0,0,1,3.2,3.2v6.2a.43.43,0,0,1-.4.4h-1.4a.43.43,0,0,1-.4-.4h0v-6.2a1.11,1.11,0,0,0-2.1-.7.85.85,0,0,0,0,.7v6.2a.43.43,0,0,1-.4.4h-1.4a.43.43,0,0,1-.4-.4h0v-6.2a1,1,0,0,0-2,0v6.2a.43.43,0,0,1-.4.4h-1.3a.43.43,0,0,1-.4-.4h0v-8.9a.43.43,0,0,1,.4-.4h1.4c.1,0,.2.1.3.2A2,2,0,0,1,235.63,180.05Z" style="fill:#28a745"/><path d="M243.83,183.75a3.6,3.6,0,0,1,7.2,0h0v2.6a3.6,3.6,0,0,1-7.2,0h0Zm2.1,0v2.6a1.5,1.5,0,0,0,3,0h0v-2.6a1.54,1.54,0,0,0-1.5-1.5,1.47,1.47,0,0,0-1.5,1.5Z" style="fill:#28a745"/><path d="M255.53,180.05a3.59,3.59,0,0,1,3.6,3.6h0v5.8a.43.43,0,0,1-.4.4h-1.4a.43.43,0,0,1-.4-.4v-5.8a1.5,1.5,0,0,0-3,0h0v5.8a.43.43,0,0,1-.4.4h-1.4a.43.43,0,0,1-.4-.4h0v-8.9a.43.43,0,0,1,.4-.4h1.4c.2,0,.3.1.4.3A7.49,7.49,0,0,1,255.53,180.05Z" style="fill:#28a745"/><path d="M260.33,186.35v-4.1H260a.43.43,0,0,1-.4-.4v-1.4a.43.43,0,0,1,.4-.4h.3v-1.8a.43.43,0,0,1,.4-.4h1.4a.43.43,0,0,1,.4.4h0v1.8h2.6a.43.43,0,0,1,.4.4v1.4a.43.43,0,0,1-.4.4h-2.6v4.1a1.54,1.54,0,0,0,1.5,1.5h.4c.3,0,.6-.3.8-.4a.64.64,0,0,1,.6,0,7.64,7.64,0,0,0,.9.9.37.37,0,0,1,0,.6h0a3.21,3.21,0,0,1-2.2,1h-.4a3.7,3.7,0,0,1-3.8-3.6Z" style="fill:#28a745"/><path d="M270.63,182.25a1.54,1.54,0,0,0-1.5,1.5v5.8a.43.43,0,0,1-.4.4h-1.4a.43.43,0,0,1-.4-.4v-13.2a.43.43,0,0,1,.4-.4h1.4c.2,0,.3.2.4.4v4.1a4,4,0,0,1,1.5-.3,3.59,3.59,0,0,1,3.6,3.6h0v5.8a.43.43,0,0,1-.4.4h-1.3a.43.43,0,0,1-.4-.4v-5.8a1.47,1.47,0,0,0-1.5-1.5Z" style="fill:#28a745"/><path d="M275.23,176.35a.43.43,0,0,1,.4-.4h1.3c.2,0,.3.2.4.4v10.5a1.11,1.11,0,0,0,1.1,1.1h.3a.43.43,0,0,1,.4.4h0v1.3a.43.43,0,0,1-.4.4h-.3a3.12,3.12,0,0,1-3.1-3.1Z" style="fill:#28a745"/><path d="M280.23,194.05h0a.37.37,0,0,1-.4-.4v-1.4c0-.2.2-.3.4-.4h.1c1.2,0,1.4-2,1.6-2.6l-3-8.7a.37.37,0,0,1,.2-.5h1.6c.2,0,.3.1.4.3l1.9,5.7,1.9-5.7.3-.3h1.5c.4,0,.5.3.4.6-.4,1.3-3.8,11-3.9,11.1A3.09,3.09,0,0,1,280.23,194.05Z" style="fill:#28a745"/><path d="M141.9,256.8h.5a4.72,4.72,0,0,1,2.5,1.1.61.61,0,0,1,0,.8,5.24,5.24,0,0,1-1,1.1.64.64,0,0,1-.6,0,1.23,1.23,0,0,0-1-.5h-.5a1.75,1.75,0,0,0-1.7,1.7v6.7a.43.43,0,0,1-.4.4h-1.6a.43.43,0,0,1-.4-.4V257.4a.43.43,0,0,1,.4-.4h1.6a.43.43,0,0,1,.4.4A4.26,4.26,0,0,1,141.9,256.8Z" style="fill:#28a745"/><path d="M145.4,261a4.16,4.16,0,0,1,8.3-.5v3.4a4.16,4.16,0,0,1-8.3.5V261Zm2.5,0v3a1.67,1.67,0,0,0,3.3.5V261a1.67,1.67,0,1,0-3.3-.5Z" style="fill:#28a745"/><path d="M158.5,256.8a3.92,3.92,0,0,1,2.4.9,3.58,3.58,0,0,1,2.4-.9,3.76,3.76,0,0,1,3.7,3.7v7.2c0,.2-.2.4-.5.5H165a.46.46,0,0,1-.4-.5v-7.2a1.2,1.2,0,0,0-2.4,0h0v7.2c0,.2-.2.5-.4.5h-1.6a.46.46,0,0,1-.5-.4h0v-7.2a1.2,1.2,0,0,0-2.4,0v7.2c0,.2-.2.5-.4.5h-1.6a.46.46,0,0,1-.5-.4h0V257.6a.66.66,0,0,1,.4-.5h1.6a.76.76,0,0,1,.4.2A1.66,1.66,0,0,1,158.5,256.8Z" style="fill:#28a745"/><path d="M167.9,261a4.16,4.16,0,1,1,8.3-.5v3.4a4.16,4.16,0,0,1-8.3.5V261Zm2.5,0v3a1.67,1.67,0,0,0,3.3.5V261a1.67,1.67,0,1,0-3.3-.5Z" style="fill:#28a745"/><path d="M187.1,265.7h1a1.35,1.35,0,0,0,.9-.5c.2-.1.4-.2.6,0l1.1,1.1c.2.1.2.4.1.6l-.1.1a3.63,3.63,0,0,1-2.6,1.1h-1A4.06,4.06,0,0,1,183,264h0v-3a4.1,4.1,0,1,1,8.2,0h0v2.2a.43.43,0,0,1-.4.4h-5.4v.3a1.71,1.71,0,0,0,1.7,1.8Zm-1.8-4.7v.3h3.4V261a1.75,1.75,0,0,0-1.7-1.7A1.69,1.69,0,0,0,185.3,261Z" style="fill:#28a745"/><path d="M196.4,256.8a4.23,4.23,0,0,1,4.2,4.2h0v6.7a.66.66,0,0,1-.4.5h-1.6a.47.47,0,0,1-.5-.5V261a1.67,1.67,0,1,0-3.3-.5v7.2a.66.66,0,0,1-.4.5h-1.6a.47.47,0,0,1-.5-.5h0V257.4a.66.66,0,0,1,.4-.5h1.6c.2,0,.4.1.4.3A5.26,5.26,0,0,1,196.4,256.8Z" style="fill:#28a745"/><path d="M201.5,264v-3a4.2,4.2,0,0,1,4.1-4.2,3.29,3.29,0,0,1,1.7.4v-4.8a.43.43,0,0,1,.4-.4h1.6a.43.43,0,0,1,.4.4v15.2a.43.43,0,0,1-.4.4h-1.6c-.2,0-.4-.1-.4-.3a3.29,3.29,0,0,1-1.7.4A4.06,4.06,0,0,1,201.5,264Zm2.4-3v3a1.7,1.7,0,0,0,3.4,0v-3a1.75,1.75,0,0,0-1.7-1.7A1.69,1.69,0,0,0,203.9,261Z" style="fill:#28a745"/><path d="M211.3,267c-.2-.2-.2-.5,0-.6h0c.4-.4.6-.7,1-1.1a.38.38,0,0,1,.6-.1h.1a1.23,1.23,0,0,0,1,.5h1.5a1,1,0,0,0,1-1,.94.94,0,0,0-1-1h-1.1a3.46,3.46,0,0,1-3.4-3.5,3.37,3.37,0,0,1,3.4-3.4h1.1a5.51,5.51,0,0,1,2.5,1,.61.61,0,0,1,.1.8h0a9,9,0,0,1-.9,1,.62.62,0,0,1-.7.1h0a1.23,1.23,0,0,0-1-.5h-1.1a1,1,0,0,0-1,1,.94.94,0,0,0,1,1h1.1a3.46,3.46,0,0,1,3.4,3.5,3.37,3.37,0,0,1-3.4,3.4H214A4.72,4.72,0,0,1,211.3,267Z" style="fill:#28a745"/><path d="M226.1,253h1.6a.43.43,0,0,1,.4.4V255a.43.43,0,0,1-.4.4h-1.6a.43.43,0,0,1-.4-.4h0v-1.6C225.7,253.2,225.9,253.1,226.1,253Zm0,3.9h1.6a.43.43,0,0,1,.4.4v10.3a.43.43,0,0,1-.4.4h-1.6a.43.43,0,0,1-.4-.4V257.3a.43.43,0,0,1,.4-.4Z" style="fill:#28a745"/><path d="M233.8,256.8A4.23,4.23,0,0,1,238,261h0v6.7c0,.2-.2.5-.4.5H236a.47.47,0,0,1-.5-.5V261a1.69,1.69,0,0,0-1.7-1.7h0a1.75,1.75,0,0,0-1.7,1.7v6.7a.66.66,0,0,1-.4.5h-1.6a.47.47,0,0,1-.5-.5h0V257.4a.66.66,0,0,1,.4-.5h1.6c.2,0,.4.1.4.3A5.84,5.84,0,0,1,233.8,256.8Z" style="fill:#28a745"/><path d="M244.8,266.4a.38.38,0,0,1,0-.6,12,12,0,0,1,1.1-1.2.47.47,0,0,1,.6-.1l.1.1a2.75,2.75,0,0,0,1.9,1h.9a2,2,0,0,0,2-2h0a2.18,2.18,0,0,0-2-2.2h-1.3a.47.47,0,0,1-.5-.5h0v-1.6a.47.47,0,0,1,.5-.5h1.1a1.9,1.9,0,0,0,1.9-1.9h0a2,2,0,0,0-2-2h-.4a3.1,3.1,0,0,0-1.8.9c-.3.2-.5.3-.7.1,0,0-.7-.7-1.1-1.2a.48.48,0,0,1,0-.7,5.8,5.8,0,0,1,3.7-1.7h.4a4.57,4.57,0,0,1,4.6,4.5,4.38,4.38,0,0,1-1.3,3.2,4.69,4.69,0,0,1,1.5,3.5,4.57,4.57,0,0,1-4.5,4.6h-1A5.37,5.37,0,0,1,244.8,266.4Z" style="fill:#fc476e"/><path d="M255.4,263.5v-6.7a4.59,4.59,0,0,1,4.6-4.6h.7a4.57,4.57,0,0,1,4.6,4.5h0v6.7a4.57,4.57,0,0,1-4.5,4.6h-.7A4.47,4.47,0,0,1,255.4,263.5Zm4.5-8.6a2,2,0,0,0-2,2v6.7a2,2,0,0,0,2,2h.7a2,2,0,0,0,2-2h0v-6.7a2,2,0,0,0-2-2h-.7Z" style="fill:#fc476e"/><path d="M271.9,264.2v-2.9a4,4,0,0,1,3.9-4,2.93,2.93,0,0,1,1.6.4v-4.6a.43.43,0,0,1,.4-.4h1.5a.43.43,0,0,1,.4.4v14.5a.43.43,0,0,1-.4.4h-1.5c-.2,0-.4-.1-.4-.3a3.29,3.29,0,0,1-1.7.4,3.89,3.89,0,0,1-3.8-3.9Zm2.3-2.9v2.9a1.7,1.7,0,0,0,3.4,0v-2.9a1.7,1.7,0,0,0-3.4,0Z" style="fill:#fc476e"/><path d="M285,268.1h-.9a3.51,3.51,0,0,1-.4-7H285a5,5,0,0,1,1.2.2v-.5a1.09,1.09,0,0,0-1-1.1h-1.3a1.8,1.8,0,0,0-.9.4c-.2.2-.4.3-.6.1l-1-1a.42.42,0,0,1,0-.7,3.25,3.25,0,0,1,2.5-1.1h1.3a3.49,3.49,0,0,1,3.3,3.4v6.9a.43.43,0,0,1-.4.4h-1.5a.52.52,0,0,1-.4-.2A4.3,4.3,0,0,1,285,268.1Zm-2.1-3.5a1.11,1.11,0,0,0,1.1,1.1h1a1.28,1.28,0,0,0,1.2-1.1,1.16,1.16,0,0,0-1.2-1.2h-.9a1.06,1.06,0,0,0-1.2,1v.2Z" style="fill:#fc476e"/><path d="M290.4,272.7h0a.46.46,0,0,1-.5-.4v-1.5a.43.43,0,0,1,.4-.4h.1c1.3,0,1.6-2.2,1.8-2.9L289,258a.37.37,0,0,1,.2-.5H291c.2,0,.3.1.4.3l2.1,6.3,2.1-6.3c.1-.2.2-.3.4-.3h1.7c.5,0,.5.3.4.7-.5,1.5-4.2,12.1-4.3,12.3A3.65,3.65,0,0,1,290.4,272.7Z" style="fill:#fc476e"/><path d="M299,267c-.2-.2-.2-.5,0-.6l.9-1a.38.38,0,0,1,.6-.1l.1.1a1.62,1.62,0,0,0,.9.5h1.4a1.06,1.06,0,0,0,1-.9,1,1,0,0,0-1-1h-1a3.3,3.3,0,1,1,0-6.6h1a4.29,4.29,0,0,1,2.4,1,.49.49,0,0,1,.1.7h0c-.3.3-.6.7-.9,1a.47.47,0,0,1-.6.1h0a1.62,1.62,0,0,0-.9-.5h-1a.9.9,0,0,0-.9.9,1,1,0,0,0,.9,1h1a3.3,3.3,0,1,1,0,6.6h-1.4A5.24,5.24,0,0,1,299,267Z" style="fill:#fc476e"/><path d="M173.3,191.73h-10a1.75,1.75,0,0,1-1.7-1.7h0c0-3.9,3.1-6.2,5.8-8.1,2.2-1.6,4.1-3,4.1-4.9,0-.9-.6-2.4-2.9-2.4a2.78,2.78,0,0,0-2.9,2.6v.1a1.83,1.83,0,0,1-1.8,1.6,1.81,1.81,0,0,1-1.6-1.6,6.12,6.12,0,0,1,6.1-6.1h.1a6.1,6.1,0,0,1,4.6,1.8,5.89,5.89,0,0,1,1.6,3.9c0,3.6-2.9,5.7-5.5,7.6a14.14,14.14,0,0,0-4,3.7H173a1.75,1.75,0,0,1,1.7,1.7,1.45,1.45,0,0,1-1.4,1.8Z" style="fill:#fc476e"/><path d="M186.4,191.73a10.25,10.25,0,1,1,10.3-10.3A10.42,10.42,0,0,1,186.4,191.73Zm0-17.1a6.9,6.9,0,1,0,6.9,6.9h0a7,7,0,0,0-6.9-6.9Z" style="fill:#fc476e"/><path d="M208.1,191.73a10.25,10.25,0,1,1,10.3-10.3A10.42,10.42,0,0,1,208.1,191.73Zm0-17.1a6.9,6.9,0,1,0,6.9,6.9h0a7,7,0,0,0-6.9-6.9Z" style="fill:#fc476e"/><path d="M157,182.93h-3.5v-3.4H157a.9.9,0,0,0,0-1.8h-3.5v-4.6a2.6,2.6,0,0,0-.4-1.5,1.28,1.28,0,0,0-1-.4,1.16,1.16,0,0,0-1,.4,2.6,2.6,0,0,0-.4,1.5v4.6h-6.6l-2.8-4.2c-.2-.4-.5-.7-.7-1.1a4.35,4.35,0,0,0-.6-.7,1.27,1.27,0,0,0-.6-.4,2,2,0,0,0-.8-.1,2,2,0,0,0-1.1.3,1.78,1.78,0,0,0-.7.8,6.75,6.75,0,0,0-.2,1.4v4h-3.5a.9.9,0,1,0,0,1.8h3.5v3.4h-3.5a.9.9,0,1,0,0,1.8h3.5V190a2.82,2.82,0,0,0,.4,1.5,1.34,1.34,0,0,0,2,0h0a1.91,1.91,0,0,0,.4-1.5v-5.3h5.9l3.2,4.9c.2.3.5.7.7,1a5,5,0,0,0,.7.8,1.61,1.61,0,0,0,.7.4,2.77,2.77,0,0,0,.9.1c.9,0,1.8-.3,1.8-2.2v-5h3.5a.9.9,0,0,0,.9-.9.67.67,0,0,0-.7-.9Zm-6.4-3.4v3.4h-3.1l-2.1-3.3Zm-11-3.9,1.3,2h-1.3Zm0,7.3v-3.4h2.5l2.2,3.4Zm11,4.6-1.8-2.7h1.8v2.7Z" style="fill:#fc476e"/><path d="M146.7,114.5a.47.47,0,0,1-.5.5h-1.6a.47.47,0,0,1-.5-.5h0V99.4a.47.47,0,0,1,.5-.5h4.1a5,5,0,0,1,5.2,4.7v.7a4.93,4.93,0,0,1-5.1,4.8h-2.1v5.4Zm0-13v5h2a2.27,2.27,0,0,0,2.5-2v-.7a2.33,2.33,0,0,0-2.4-2.2h-2.1Z" style="fill:#fc476e"/><path d="M157.6,109.1v5.4a.47.47,0,0,1-.5.5h-1.6a.47.47,0,0,1-.5-.5h0V99.4a.47.47,0,0,1,.5-.5h4.1a5,5,0,0,1,5.2,4.7v.7a4.65,4.65,0,0,1-2.7,4.2l2.9,5.8a.62.62,0,0,1-.1.7.37.37,0,0,1-.3.1h-1.8c-.2,0-.3-.1-.5-.3l-2.8-5.6Zm0-7.6v5h2a2.27,2.27,0,0,0,2.5-2v-.7a2.33,2.33,0,0,0-2.4-2.2h-2.1Z" style="fill:#fc476e"/><path d="M166,109.4v-5a5.37,5.37,0,0,1,5.1-5.6h.4a5.36,5.36,0,0,1,5.2,5.5v5.1a5.37,5.37,0,0,1-5.1,5.6h-.4a5.33,5.33,0,0,1-5.2-5.6Zm5.2-8a2.78,2.78,0,0,0-2.6,2.9v5.1a2.85,2.85,0,0,0,2.4,3h.4a2.78,2.78,0,0,0,2.6-2.9v-5.1a2.85,2.85,0,0,0-2.5-3h-.3Z" style="fill:#fc476e"/><path d="M188.4,114.5V104l-2.5,4a.76.76,0,0,1-.4.2H184a.52.52,0,0,1-.4-.2l-2.5-4v10.5a.47.47,0,0,1-.5.5H179a.47.47,0,0,1-.5-.5h0V99.4a.47.47,0,0,1,.5-.5h1.8a.52.52,0,0,1,.4.2l3.6,5.8,3.7-5.8a.76.76,0,0,1,.4-.2h1.7a.47.47,0,0,1,.5.5h0v15.1a.47.47,0,0,1-.5.5H189A.65.65,0,0,1,188.4,114.5Z" style="fill:#fc476e"/><path d="M192.8,109.4v-5a5.37,5.37,0,0,1,5.1-5.6h.4a5.51,5.51,0,0,1,5.3,5.5v5.1a5.38,5.38,0,0,1-5.2,5.6H198a5.26,5.26,0,0,1-5.2-5.6Zm5.2-8a2.78,2.78,0,0,0-2.6,2.9v5.1a2.85,2.85,0,0,0,2.4,3h.4a2.78,2.78,0,0,0,2.6-2.9v-5.1a2.79,2.79,0,0,0-2.5-3H198Z" style="fill:#fc476e"/><path d="M206.6,98.9h1.6a.43.43,0,0,1,.4.4v11.8a.43.43,0,0,1-.4.4h-1.6a.43.43,0,0,1-.4-.4V99.4C206.2,99.1,206.3,98.9,206.6,98.9Zm0,13.5h1.6a.43.43,0,0,1,.4.4v1.6a.43.43,0,0,1-.4.4h-1.6a.43.43,0,0,1-.4-.4v-1.6A.37.37,0,0,1,206.6,112.4Z" style="fill:#fc476e"/><path d="M219.1,114.5a.47.47,0,0,1-.5.5H217a.47.47,0,0,1-.5-.5h0V99.4a.47.47,0,0,1,.5-.5h4.1a5,5,0,0,1,5.2,4.7v.7a4.93,4.93,0,0,1-5.1,4.8h-2.1v5.4Zm0-13v5h2a2.27,2.27,0,0,0,2.5-2v-.7a2.33,2.33,0,0,0-2.4-2.2h-2.1Z" style="fill:#fc476e"/><path d="M230,109.1v5.4a.47.47,0,0,1-.5.5h-1.6a.47.47,0,0,1-.5-.5h0V99.4a.47.47,0,0,1,.5-.5H232a5,5,0,0,1,5.2,4.7v.7a4.65,4.65,0,0,1-2.7,4.2l2.9,5.8a.62.62,0,0,1-.1.7.37.37,0,0,1-.3.1h-2c-.2,0-.3-.1-.5-.3l-2.8-5.6Zm0-7.6v5h2a2.27,2.27,0,0,0,2.5-2v-.7a2.33,2.33,0,0,0-2.4-2.2H230Z" style="fill:#fc476e"/><path d="M238.4,109.4v-5a5.37,5.37,0,0,1,5.1-5.6h.4a5.36,5.36,0,0,1,5.2,5.5v5.1A5.37,5.37,0,0,1,244,115h-.4a5.33,5.33,0,0,1-5.2-5.6Zm5.2-8a2.78,2.78,0,0,0-2.6,2.9v5.1a2.85,2.85,0,0,0,2.4,3h.4a2.78,2.78,0,0,0,2.6-2.9v-5.1a2.85,2.85,0,0,0-2.5-3h-.3Z" style="fill:#fc476e"/><path d="M260.8,114.5V104l-2.5,4a.76.76,0,0,1-.4.2h-1.4a.52.52,0,0,1-.4-.2l-2.5-4v10.5a.47.47,0,0,1-.5.5h-1.6a.47.47,0,0,1-.5-.5h0V99.4a.47.47,0,0,1,.5-.5h1.8a.52.52,0,0,1,.4.2l3.6,5.8,3.7-5.8a.76.76,0,0,1,.4-.2h1.7a.47.47,0,0,1,.5.5h0v15.1a.47.47,0,0,1-.5.5h-1.6A.68.68,0,0,1,260.8,114.5Z" style="fill:#fc476e"/><path d="M265.2,109.4v-5a5.37,5.37,0,0,1,5.1-5.6h.4a5.51,5.51,0,0,1,5.3,5.5v5.1a5.38,5.38,0,0,1-5.2,5.6h-.4a5.26,5.26,0,0,1-5.2-5.6Zm5.2-8a2.78,2.78,0,0,0-2.6,2.9v5.1a2.85,2.85,0,0,0,2.4,3h.4a2.78,2.78,0,0,0,2.6-2.9v-5.1a2.79,2.79,0,0,0-2.5-3h-.3Z" style="fill:#fc476e"/><path d="M279,98.9h1.6a.43.43,0,0,1,.4.4v11.8a.43.43,0,0,1-.4.4H279a.43.43,0,0,1-.4-.4V99.4C278.6,99.1,278.7,98.9,279,98.9Zm0,13.5h1.6a.43.43,0,0,1,.4.4v1.6a.43.43,0,0,1-.4.4H279a.43.43,0,0,1-.4-.4v-1.6A.37.37,0,0,1,279,112.4Z" style="fill:#fc476e"/><path d="M284.5,98.9h1.6a.43.43,0,0,1,.4.4v11.8a.43.43,0,0,1-.4.4h-1.6a.43.43,0,0,1-.4-.4V99.4C284.1,99.1,284.2,98.9,284.5,98.9Zm0,13.5h1.6a.43.43,0,0,1,.4.4v1.6a.43.43,0,0,1-.4.4h-1.6a.43.43,0,0,1-.4-.4v-1.6A.43.43,0,0,1,284.5,112.4Z" style="fill:#fc476e"/><path d="M182.4,138.2a.47.47,0,0,1-.5.5h-1.6a.47.47,0,0,1-.5-.5V123.7a.47.47,0,0,1,.5-.5h3.9a4.79,4.79,0,0,1,5,4.5v.7a4.78,4.78,0,0,1-4.9,4.6h-2Zm0-12.4v4.7h1.9a2.23,2.23,0,0,0,2.4-2v-.7a2.25,2.25,0,0,0-2.4-2.1h-.1Z" style="fill:#fc476e"/><path d="M192.8,133.1v5.1a.47.47,0,0,1-.5.5h-1.6a.47.47,0,0,1-.5-.5V123.7a.47.47,0,0,1,.5-.5h3.9a4.79,4.79,0,0,1,5,4.5v.7a4.63,4.63,0,0,1-2.6,4.1l2.8,5.5c.1.2.1.5-.1.6a.37.37,0,0,1-.3.1h-1.7c-.2,0-.3-.1-.4-.3l-2.7-5.3Zm0-7.3v4.7h1.9a2.23,2.23,0,0,0,2.4-2v-.7a2.25,2.25,0,0,0-2.4-2.1h-.1Z" style="fill:#fc476e"/><path d="M200.8,133.4v-4.8a5.22,5.22,0,0,1,4.9-5.4h.4a5.21,5.21,0,0,1,5,5.3v4.9a5.28,5.28,0,0,1-4.9,5.4h-.4a5.17,5.17,0,0,1-5-5.4Zm5-7.7a2.67,2.67,0,0,0-2.5,2.8v4.9a2.59,2.59,0,0,0,2.4,2.8h.4a2.72,2.72,0,0,0,2.5-2.7v-4.9a2.6,2.6,0,0,0-2.4-2.8h-.1Z" style="fill:#fc476e"/><path d="M222.2,138.2v-10l-2.4,3.8a.52.52,0,0,1-.4.2H218a.52.52,0,0,1-.4-.2l-2.4-3.8v10a.47.47,0,0,1-.5.5h-1.5a.47.47,0,0,1-.5-.5V123.7a.47.47,0,0,1,.5-.5h1.7a.52.52,0,0,1,.4.2l3.5,5.5,3.5-5.5a.76.76,0,0,1,.4-.2h1.7a.47.47,0,0,1,.5.5v14.4a.47.47,0,0,1-.5.5h-1.6C222.4,138.6,222.2,138.4,222.2,138.2Z" style="fill:#fc476e"/><path d="M226.4,133.4v-4.8a5.28,5.28,0,0,1,4.9-5.4h.4a5.21,5.21,0,0,1,5,5.3v4.9a5.28,5.28,0,0,1-4.9,5.4h-.4a5.17,5.17,0,0,1-5-5.4Zm5-7.7a2.67,2.67,0,0,0-2.5,2.8v4.9a2.59,2.59,0,0,0,2.4,2.8h.4a2.65,2.65,0,0,0,2.5-2.7v-4.9a2.6,2.6,0,0,0-2.4-2.8h-.1Z" style="fill:#fc476e"/><path d="M239.5,123.4h1.6a.43.43,0,0,1,.4.4v11.3a.43.43,0,0,1-.4.4h-1.5a.43.43,0,0,1-.4-.4V123.8C239.1,123.5,239.3,123.4,239.5,123.4Zm0,12.8h1.6a.43.43,0,0,1,.4.4v1.6a.43.43,0,0,1-.4.4h-1.5a.43.43,0,0,1-.4-.4v-1.6C239.1,136.4,239.3,136.2,239.5,136.2Z" style="fill:#fc476e"/><path d="M244.8,123.4h1.6a.43.43,0,0,1,.4.4v11.3a.43.43,0,0,1-.4.4h-1.6a.43.43,0,0,1-.4-.4V123.8a.37.37,0,0,1,.4-.4Zm0,12.8h1.6a.43.43,0,0,1,.4.4v1.6a.43.43,0,0,1-.4.4h-1.6a.43.43,0,0,1-.4-.4v-1.6A.43.43,0,0,1,244.8,136.2Z" style="fill:#fc476e"/><path d="M250,123.4h1.6a.43.43,0,0,1,.4.4v11.3a.43.43,0,0,1-.4.4h-1.5a.43.43,0,0,1-.4-.4V123.8C249.6,123.5,249.8,123.4,250,123.4Zm0,12.8h1.6a.43.43,0,0,1,.4.4v1.6a.43.43,0,0,1-.4.4h-1.5a.43.43,0,0,1-.4-.4v-1.6C249.6,136.4,249.8,136.2,250,136.2Z" style="fill:#fc476e"/><path d="M217.2,89.6a5.35,5.35,0,1,0-5.4,5.3h0a5.29,5.29,0,0,0,5.4-5.3Z" style="fill:#f7c92b"/><path d="M211.8,84.3a8.75,8.75,0,0,0-1.6.2,5.32,5.32,0,0,1,3.5,6.7,5.13,5.13,0,0,1-3.5,3.5,4.14,4.14,0,0,0,1.6.2,5.34,5.34,0,0,0,5.3-5.3,5.21,5.21,0,0,0-5.3-5.3Z" style="fill:#f2b51d"/><path d="M212.5,58.5a3.16,3.16,0,1,1,2.5-3.7A3.29,3.29,0,0,1,212.5,58.5Z" style="fill:#f7c92b"/><path d="M214.9,54.7a3.18,3.18,0,0,0-3.7-2.5l-.5.1a3.23,3.23,0,0,1,1.9,4.1,3,3,0,0,1-1.9,1.9,3.26,3.26,0,0,0,4.1-1.8A2.79,2.79,0,0,0,214.9,54.7Z" style="fill:#f2b51d"/><path d="M225.1,88.7H198.6a4.27,4.27,0,0,1-4.3-4.3,4.58,4.58,0,0,1,1.6-3.4l.9-.7a8.29,8.29,0,0,0,3.1-6.5V69.3a12,12,0,1,1,24,0V74a8.32,8.32,0,0,0,3,6.4l.8.7a4.22,4.22,0,0,1,1.6,3.3h0A4.18,4.18,0,0,1,225.1,88.7Z" style="fill:#f7e249"/><path d="M227.8,81.1l-.8-.7a8.32,8.32,0,0,1-3-6.4V69.4a12.06,12.06,0,0,0-12-12.1,12.7,12.7,0,0,0-3.4.5,11.91,11.91,0,0,1,8.6,11.6V74a8.32,8.32,0,0,0,3,6.4l.8.7a4.22,4.22,0,0,1,1.6,3.3h0a4.27,4.27,0,0,1-4.3,4.3h6.8a4.27,4.27,0,0,0,4.3-4.3h0A4.22,4.22,0,0,0,227.8,81.1Z" style="fill:#f7c92b"/><path d="M233.5,59.6a10.35,10.35,0,1,0-10.4,10.3h0A10.31,10.31,0,0,0,233.5,59.6Z" style="fill:#fc476e"/><path d="M225.9,49.7a10.36,10.36,0,0,1-8.8,18.4,10.32,10.32,0,0,0,12-16.8A8.05,8.05,0,0,0,225.9,49.7Z" style="fill:#cc2b5a"/><path d="M223.2,64.4a.68.68,0,0,1-.7-.7v-7l-.3.3a.68.68,0,0,1-1-.1h0a.76.76,0,0,1,0-1h0l1.5-1.3a.76.76,0,0,1,1,.1c.1.1.1.3.2.4v8.6A.84.84,0,0,1,223.2,64.4Z" style="fill:#e3faff"/><path d="M164.58,237.07v-4.43h-.33a.47.47,0,0,1-.43-.43v-1.52a.47.47,0,0,1,.43-.43h.33v-1.95a.46.46,0,0,1,.43-.43h1.51a.47.47,0,0,1,.44.43h0v1.95h2.81a.47.47,0,0,1,.43.43v1.52a.47.47,0,0,1-.43.43H167v4.43a1.66,1.66,0,0,0,1.62,1.63H169c.33,0,.65-.33.87-.44a.74.74,0,0,1,.65,0,7.51,7.51,0,0,0,1,1,.41.41,0,0,1,0,.65h0a3.52,3.52,0,0,1-2.38,1.08h-.43a4,4,0,0,1-4.11-3.9Z" style="fill:#28a745"/><path d="M179.93,234.15a15.79,15.79,0,0,1,.54,1.95l1.52-5.51a1.45,1.45,0,0,1,.43-.33h1.51c.22,0,.44.11.44.33v.21l-2.71,9.63c-.1.21-.21.32-.43.32h-1.51c-.22,0-.33-.11-.44-.32l-1.62-5.73L176,240.43c-.11.21-.22.32-.43.32h-1.52c-.21,0-.32-.11-.43-.32L171,230.8a.27.27,0,0,1,.21-.43h1.73c.22,0,.33.11.44.32l1.51,5.52,1.51-5.52a1.72,1.72,0,0,1,.44-.32h1.73l.32.65c0-.11,0-.11.11-.22C179.39,232,179.61,233.07,179.93,234.15Z" style="fill:#28a745"/><path d="M184.69,234.26a3.9,3.9,0,0,1,7.79,0h0v2.81a3.9,3.9,0,1,1-7.79,0Zm2.27,0v2.81a1.63,1.63,0,1,0,3.25,0v-2.81a1.67,1.67,0,0,0-1.62-1.62,1.6,1.6,0,0,0-1.63,1.62Z" style="fill:#28a745"/><path d="M201.67,229.29a3.88,3.88,0,0,1,3.89,3.89V236a3.88,3.88,0,0,1-3.89,3.9,4.27,4.27,0,0,1-1.62-.33V244c0,.21-.22.32-.43.43H198.1a.47.47,0,0,1-.43-.43h0V229.72a.46.46,0,0,1,.43-.43h1.52c.21,0,.32.11.43.32A4.45,4.45,0,0,1,201.67,229.29Zm-1.51,3.89V236a1.62,1.62,0,1,0,3.24,0v-2.81a1.67,1.67,0,0,0-1.62-1.62,1.53,1.53,0,0,0-1.62,1.62Z" style="fill:#28a745"/><path d="M210.43,239.78h-.87a3.46,3.46,0,0,1,0-6.92h.87a3.83,3.83,0,0,1,1.19.21v-.54a1.15,1.15,0,0,0-1-1.08h-1.3a1.37,1.37,0,0,0-.87.43.4.4,0,0,1-.65,0l-1-1c-.32-.32-.22-.43,0-.65a3.48,3.48,0,0,1,2.38-1.08h1.3a3.34,3.34,0,0,1,3.24,3.35v6.71a.46.46,0,0,1-.43.43h-1.41c-.1,0-.32-.11-.32-.22A2.15,2.15,0,0,1,210.43,239.78Zm-2-3.35a1.21,1.21,0,0,0,1.19,1.19h.87a1.19,1.19,0,1,0,0-2.38h-.87A1.08,1.08,0,0,0,208.48,236.43Z" style="fill:#28a745"/><path d="M215.73,244.32h0a.39.39,0,0,1-.43-.43v-1.52c0-.21.21-.32.43-.43h.11c1.29,0,1.51-2.16,1.73-2.81l-3.14-9.41a.39.39,0,0,1,.22-.54h1.73c.21,0,.32.11.43.32l2.06,6.17,2-6.17.32-.32h1.63c.43,0,.54.32.43.65-.43,1.4-4.11,11.89-4.22,12A3.46,3.46,0,0,1,215.73,244.32Z" style="fill:#28a745"/><path d="M227.41,229.18a3.46,3.46,0,0,1,2.27.87,3.46,3.46,0,0,1,2.27-.87,3.41,3.41,0,0,1,3.46,3.46v6.71a.47.47,0,0,1-.43.43h-1.52a.47.47,0,0,1-.43-.43h0v-6.71a1.2,1.2,0,0,0-2.27-.76.92.92,0,0,0,0,.76v6.71a.47.47,0,0,1-.43.43h-1.52a.47.47,0,0,1-.43-.43h0v-6.71a1.08,1.08,0,0,0-2.16,0v6.71a.47.47,0,0,1-.43.43h-1.52a.47.47,0,0,1-.43-.43h0v-9.63a.46.46,0,0,1,.43-.43h1.52c.1,0,.21.11.32.21A3,3,0,0,1,227.41,229.18Z" style="fill:#28a745"/><path d="M240.17,237.62H241a2.17,2.17,0,0,0,.87-.44c.22-.11.43-.21.54,0s.76.76,1,1.08a.3.3,0,0,1,0,.54h0a3.47,3.47,0,0,1-2.38,1.09h-.86a3.88,3.88,0,0,1-3.89-3.9h0v-2.81a3.89,3.89,0,0,1,7.78,0h0v2.16a.46.46,0,0,1-.43.44h-5.08v.32A1.84,1.84,0,0,0,240.17,237.62Zm-1.62-4.44v.33h3.24v-.22a1.66,1.66,0,0,0-1.62-1.62,1.5,1.5,0,0,0-1.62,1.51Z" style="fill:#28a745"/><path d="M248.93,229.18a3.88,3.88,0,0,1,3.89,3.89h0v6.28a.46.46,0,0,1-.43.43h-1.51a.47.47,0,0,1-.44-.43v-6.28a1.62,1.62,0,0,0-3.24,0v6.28a.47.47,0,0,1-.43.43h-1.3a.46.46,0,0,1-.43-.43v-9.63a.45.45,0,0,1,.43-.43H247c.22,0,.33.11.43.32A6.75,6.75,0,0,1,248.93,229.18Z" style="fill:#28a745"/><path d="M254,236v-4.43h-.32a.47.47,0,0,1-.44-.43v-1.52a.47.47,0,0,1,.44-.43H254v-2a.47.47,0,0,1,.43-.43H256a.47.47,0,0,1,.43.43h0v2h2.81a.46.46,0,0,1,.43.43v1.52a.46.46,0,0,1-.43.43h-2.92V236a1.67,1.67,0,0,0,1.62,1.63h.44c.32,0,.65-.33.86-.44a.68.68,0,0,1,.65,0,9,9,0,0,0,1,1,.39.39,0,0,1,0,.64h0a3.45,3.45,0,0,1-2.37,1.09H258a4,4,0,0,1-4-3.9Z" style="fill:#28a745"/><path d="M272.94,228.21a3.88,3.88,0,0,1,3.89,3.89v2.81a3.88,3.88,0,0,1-3.89,3.89,4.34,4.34,0,0,1-1.63-.32v4.43c0,.22-.21.33-.43.44h-1.51a.46.46,0,0,1-.43-.44h0V228.64a.45.45,0,0,1,.43-.43h1.51c.22,0,.33.1.43.32A3.62,3.62,0,0,1,272.94,228.21Zm-1.63,3.89v2.81a1.63,1.63,0,0,0,3.25,0h0V232.1a1.66,1.66,0,0,0-1.62-1.62,1.54,1.54,0,0,0-1.63,1.62Z" style="fill:#28a745"/><path d="M277.8,224.1a.47.47,0,0,1,.44-.44h1.51c.22,0,.32.22.43.44v11.35a1.2,1.2,0,0,0,1.19,1.19h.33a.47.47,0,0,1,.43.43h0v1.41a.46.46,0,0,1-.43.43h-.33a3.36,3.36,0,0,1-3.35-3.35Z" style="fill:#28a745"/><path d="M286.24,238.7h-.87a3.46,3.46,0,1,1,0-6.92h.87a3.89,3.89,0,0,1,1.19.21v-.54a1.15,1.15,0,0,0-1-1.08h-1.29a1.37,1.37,0,0,0-.87.43.4.4,0,0,1-.65,0l-1-1c-.32-.33-.22-.43,0-.65a3.46,3.46,0,0,1,2.38-1.08h1.3a3.35,3.35,0,0,1,3.24,3.35v6.71a.47.47,0,0,1-.43.43h-1.52c-.1,0-.32-.11-.32-.22A1.6,1.6,0,0,1,286.24,238.7Zm-2.06-3.36a1.2,1.2,0,0,0,1.19,1.19h.87a1.19,1.19,0,0,0,0-2.38h-.87a1.09,1.09,0,0,0-1.19,1.19Z" style="fill:#28a745"/><path d="M294.67,228.1a3.88,3.88,0,0,1,3.9,3.89h0v6.27a.47.47,0,0,1-.44.44h-1.51a.46.46,0,0,1-.43-.44V232a1.63,1.63,0,0,0-3.25,0v6.27a.46.46,0,0,1-.43.44H291a.47.47,0,0,1-.44-.44v-9.62a.46.46,0,0,1,.44-.43h1.51c.22,0,.32.1.43.32A13.18,13.18,0,0,1,294.67,228.1Z" style="fill:#28a745"/><path d="M299.86,237.72c-.21-.21-.21-.43,0-.54h0c.33-.43.65-.65.87-1a.37.37,0,0,1,.54-.11h.11a1.3,1.3,0,0,0,.86.43h1.41a1,1,0,1,0,0-1.94h-1a3.34,3.34,0,0,1-3.25-3.25,3.25,3.25,0,0,1,3.25-3.24h1a4.7,4.7,0,0,1,2.38,1,.7.7,0,0,1,.11.76h0c-.33.32-.54.65-.87,1a.4.4,0,0,1-.65,0h0a1.34,1.34,0,0,0-.86-.43h-1a1,1,0,0,0-1,.86,1,1,0,0,0,1,1h1a3.32,3.32,0,0,1,3.24,3.24,3.25,3.25,0,0,1-3.24,3.25h-1.41A4.7,4.7,0,0,1,299.86,237.72Z" style="fill:#28a745"/><path d="M190.49,218.21a6,6,0,0,1-5,2.61,5.93,5.93,0,0,1-4.48-2,6.9,6.9,0,0,1,0-9.12,6,6,0,0,1,4.48-2,6,6,0,0,1,5,2.6,1.4,1.4,0,0,1-.33,1.92,1.37,1.37,0,0,1-1.92-.35,3.34,3.34,0,0,0-2.77-1.43,3.8,3.8,0,0,0,0,7.56,3.33,3.33,0,0,0,2.77-1.42,1.38,1.38,0,0,1,1.92-.36A1.4,1.4,0,0,1,190.49,218.21Z" style="fill:#28a745"/><path d="M202.5,213.43v6a1.38,1.38,0,1,1-2.75,0v-6a2.66,2.66,0,1,0-5.3,0v6a1.39,1.39,0,0,1-2.77,0V205.57a1.39,1.39,0,0,1,2.77,0v2.89a5.16,5.16,0,0,1,2.65-.69,5.25,5.25,0,0,1,3.91,1.7A5.79,5.79,0,0,1,202.5,213.43Z" style="fill:#28a745"/><path d="M210,220.89a6.53,6.53,0,1,1,6.54-6.51A6.52,6.52,0,0,1,210,220.89Zm0-10.3a3.78,3.78,0,1,0,3.77,3.79A3.77,3.77,0,0,0,210,210.59Z" style="fill:#28a745"/><path d="M224,220.89a6.53,6.53,0,1,1,6.54-6.51A6.52,6.52,0,0,1,224,220.89Zm0-10.3a3.78,3.78,0,1,0,3.77,3.79A3.78,3.78,0,0,0,224,210.59Z" style="fill:#28a745"/><path d="M231.59,218.42a1.37,1.37,0,0,1,2.49-1.16,1.72,1.72,0,0,0,1.63.81c1.28,0,1.73-.78,1.73-1.3,0-.71-.19-.93-2-1.4a7.21,7.21,0,0,1-2.41-.88,3.31,3.31,0,0,1-1.54-2.89,3.71,3.71,0,0,1,1.16-2.65,4.37,4.37,0,0,1,3.1-1.18,4.12,4.12,0,0,1,3.88,2.25,1.37,1.37,0,0,1-2.48,1.16,1.48,1.48,0,0,0-1.4-.67c-1.09,0-1.49.69-1.49,1.09s.09.67,1.84,1.12c1.54.38,4.12,1,4.12,4.05a4,4,0,0,1-1.18,2.79,4.57,4.57,0,0,1-3.29,1.26A4.38,4.38,0,0,1,231.59,218.42Z" style="fill:#28a745"/><path d="M247.34,220.93a6,6,0,0,1-4.5-2,6.64,6.64,0,0,1-1.71-4.55c0-3.74,2.63-6.53,6.09-6.53s6,2.74,6,6.53a1.38,1.38,0,0,1-1.4,1.37h-7.75a3.43,3.43,0,0,0,3.25,2.47,2.78,2.78,0,0,0,2.72-1.33,1.38,1.38,0,0,1,2.37,1.42A5.37,5.37,0,0,1,247.34,220.93Zm-3.27-8h6.23a3.15,3.15,0,0,0-3.08-2.39A3.27,3.27,0,0,0,244.07,213Z" style="fill:#28a745"/><path d="M314.17,237.94a2.29,2.29,0,0,1-2.38,2.23,2.23,2.23,0,1,1,0-4.46A2.29,2.29,0,0,1,314.17,237.94Z" style="fill:#28a745"/><path d="M313,266.3a2.12,2.12,0,0,1-2.2,2.07,2.07,2.07,0,1,1,0-4.14A2.12,2.12,0,0,1,313,266.3Z" style="fill:#28a745"/><path d="M136.07,259a5.09,5.09,0,0,1-5.09,5.1h-2.74v2.7a1.16,1.16,0,1,1-2.32,0V255.1a1.16,1.16,0,0,1,1.16-1.16H131A5.09,5.09,0,0,1,136.07,259Zm-2.32,0a2.75,2.75,0,0,0-2.77-2.74h-2.74v5.5H131A2.75,2.75,0,0,0,133.75,259Z" style="fill:#28a745"/><path d="M227.54,177.93l-1.9-1.28.16,2.28h-1.36l.16-2.3-1.9,1.28-.68-1.16,2-1-2-1,.68-1.18,1.88,1.26-.14-2.26h1.36l-.14,2.26,1.88-1.24.68,1.16-2.06,1,2.06,1Z" style="fill:#28a745"/><path d="M126.28,232a1.13,1.13,0,0,1-1.13,1.13h-1.67V240a1.13,1.13,0,0,1-2.26,0v-6.8a1.13,1.13,0,0,1,0-2.26v-.25a3.2,3.2,0,0,1,3.19-3.21,3.49,3.49,0,0,1,1.15.21,1.11,1.11,0,0,1,.64,1.46,1.1,1.1,0,0,1-1.46.64,1.14,1.14,0,0,0-.33-.05.93.93,0,0,0-.93.95v.25h1.67A1.14,1.14,0,0,1,126.28,232Z" style="fill:#28a745"/><path d="M132.64,231.71a1.13,1.13,0,0,1-1.14,1.13,2.24,2.24,0,0,0-2.19,2.4V240a1.13,1.13,0,1,1-2.25,0v-8.47a1.12,1.12,0,0,1,1.13-1.13,1.13,1.13,0,0,1,1.09.84,4.35,4.35,0,0,1,2.22-.61A1.13,1.13,0,0,1,132.64,231.71Z" style="fill:#28a745"/><path d="M137.41,241.13a5.36,5.36,0,1,1,5.38-5.35A5.36,5.36,0,0,1,137.41,241.13Zm0-8.46a3.11,3.11,0,1,0,3.1,3.11A3.1,3.1,0,0,0,137.41,232.67Z" style="fill:#28a745"/><path d="M158.2,235V240a1.14,1.14,0,0,1-2.27,0V235c0-1.42-.72-2.39-1.83-2.39A2.17,2.17,0,0,0,152,235V240a1.14,1.14,0,0,1-2.28,0V235c0-1.42-.72-2.39-1.83-2.39a2.16,2.16,0,0,0-2.08,2.39V240a1.13,1.13,0,0,1-2.26,0v-8.47a1.13,1.13,0,0,1,2.13-.53,4.23,4.23,0,0,1,2.21-.6,3.83,3.83,0,0,1,3,1.4,4.2,4.2,0,0,1,3.18-1.4C156.47,230.35,158.2,232.31,158.2,235Z" style="fill:#28a745"/><path d="M293.57,188.41c0,1.09-.9,3.48-2,3.48s-2-2.39-2-3.48a1.91,1.91,0,0,1,2-1.88A2,2,0,0,1,293.57,188.41Z" style="fill:#28a745"/></svg>