<svg id="Layer_1" data-name="Layer 1" xmlns="http://www.w3.org/2000/svg" viewBox="0 0 450 350"><title>promo</title><path d="M225.08,293.72a14.18,14.18,0,0,1-12.34-7.1,56.38,56.38,0,0,0-64.24-26.53,14.52,14.52,0,0,1-3.94.54,14.21,14.21,0,0,1-10-4.1A13.3,13.3,0,0,1,131,243.38a56.29,56.29,0,0,0-26.78-64.44,13.46,13.46,0,0,1,0-23.68A56.31,56.31,0,0,0,131,90.81a13.28,13.28,0,0,1,3.51-13.14,14.21,14.21,0,0,1,10-4.1,14.91,14.91,0,0,1,3.94.53,56.18,56.18,0,0,0,15.19,2.09,56.51,56.51,0,0,0,49.05-28.61,14.26,14.26,0,0,1,24.68,0,56.49,56.49,0,0,0,49,28.61,56.2,56.2,0,0,0,15.2-2.09,14.84,14.84,0,0,1,3.93-.53,14.18,14.18,0,0,1,10,4.1,13.26,13.26,0,0,1,3.52,13.14,56.32,56.32,0,0,0,26.77,64.45,13.45,13.45,0,0,1,0,23.68,56.31,56.31,0,0,0-26.77,64.44,13.28,13.28,0,0,1-3.52,13.15,14.18,14.18,0,0,1-10,4.1,14.39,14.39,0,0,1-3.93-.54,56.38,56.38,0,0,0-64.24,26.53,14.19,14.19,0,0,1-12.34,7.1Z" style="fill:#ebffed"/><path d="M353.86,119.74a8.41,8.41,0,0,1-4-9.62,54.19,54.19,0,0,0-14.05-53,55.05,55.05,0,0,0-53.52-13.86,8.37,8.37,0,0,1-9.53-3.95,54.91,54.91,0,0,0-95.41,0,8.35,8.35,0,0,1-9.52,3.95,55.08,55.08,0,0,0-53.53,13.86,54.24,54.24,0,0,0-14,53,8.4,8.4,0,0,1-4,9.62,54.17,54.17,0,0,0,0,94.72,8.38,8.38,0,0,1,4,9.61,54.22,54.22,0,0,0,14,53,55.06,55.06,0,0,0,53.53,13.87,8.33,8.33,0,0,1,9.52,3.94,54.91,54.91,0,0,0,95.41,0,8.34,8.34,0,0,1,9.53-3.94,55,55,0,0,0,53.52-13.87,54.18,54.18,0,0,0,14.05-53,8.39,8.39,0,0,1,4-9.61,54.17,54.17,0,0,0,0-94.72Zm-6.23,83.58a21.14,21.14,0,0,0-10.05,24.18A41.42,41.42,0,0,1,326.84,268a42.28,42.28,0,0,1-41.1,10.63,21.08,21.08,0,0,0-24.06,9.95,42.14,42.14,0,0,1-73.2,0,21.11,21.11,0,0,0-24.07-9.95A42.29,42.29,0,0,1,123.31,268a41.45,41.45,0,0,1-10.74-40.51,21.12,21.12,0,0,0-10-24.18,41.41,41.41,0,0,1,0-72.44,21.14,21.14,0,0,0,10-24.19,41.45,41.45,0,0,1,10.74-40.51,42.29,42.29,0,0,1,41.1-10.63,21.1,21.1,0,0,0,24.07-9.94,42.14,42.14,0,0,1,73.19,0,21.1,21.1,0,0,0,24.07,9.94,42.3,42.3,0,0,1,41.1,10.63,41.42,41.42,0,0,1,10.74,40.51,21.14,21.14,0,0,0,10.05,24.19,41.41,41.41,0,0,1,0,72.44Z" style="fill:#28a745"/><path d="M91.58,288.08a25.17,25.17,0,1,0,25.31,25.16A25.27,25.27,0,0,0,91.58,288.08Zm0,37.56a12.4,12.4,0,1,1,12.54-12.4A12.49,12.49,0,0,1,91.58,325.64Z" style="fill:#28a745"/><path d="M169.82,138.62h1.82a.54.54,0,0,1,.53.54V155.9a.53.53,0,0,1-.53.53h-1.79a.55.55,0,0,1-.56-.53V139.16A.56.56,0,0,1,169.82,138.62Z" style="fill:#28a745"/><path d="M178.56,144.11a4.54,4.54,0,0,1,4.53,4.57V156a.49.49,0,0,1-.47.5h-1.71a.52.52,0,0,1-.51-.5v-7.28a1.85,1.85,0,0,0-1.84-1.88,1.87,1.87,0,0,0-1.85,1.88V156a.5.5,0,0,1-.48.5h-1.71a.5.5,0,0,1-.5-.5V144.67a.51.51,0,0,1,.48-.5h1.73a.51.51,0,0,1,.45.36A4.87,4.87,0,0,1,178.56,144.11Z" style="fill:#28a745"/><path d="M184.58,152v-5.12h-.4a.49.49,0,0,1-.47-.48v-1.71a.48.48,0,0,1,.47-.47h.4v-2.27a.49.49,0,0,1,.47-.48h1.71a.47.47,0,0,1,.45.48v2.27h3.33a.49.49,0,0,1,.48.47v1.71a.5.5,0,0,1-.48.48h-3.33V152a1.9,1.9,0,0,0,1.87,1.88h.54c.42,0,.78-.37,1-.54a.56.56,0,0,1,.73,0c.39.42.81.87,1.09,1.15a.54.54,0,0,1-.05.76,3.89,3.89,0,0,1-2.8,1.23h-.54A4.5,4.5,0,0,1,184.58,152Z" style="fill:#28a745"/><path d="M197.62,144.14h.54a5.17,5.17,0,0,1,2.77,1.15.63.63,0,0,1,0,.87,13.39,13.39,0,0,1-1.1,1.17c-.25.14-.47.17-.64,0a1.68,1.68,0,0,0-1.06-.53h-.54a1.88,1.88,0,0,0-1.87,1.88V156a.49.49,0,0,1-.45.47h-1.71a.48.48,0,0,1-.47-.47V144.67a.48.48,0,0,1,.44-.47h1.74a.49.49,0,0,1,.45.39A4.33,4.33,0,0,1,197.62,144.14Z" style="fill:#28a745"/><path d="M201.49,148.68a4.54,4.54,0,1,1,9.07,0V152a4.54,4.54,0,1,1-9.07,0Zm2.69,0V152a1.85,1.85,0,1,0,3.69,0v-3.3a1.85,1.85,0,1,0-3.69,0Z" style="fill:#28a745"/><path d="M211.46,152v-3.3a4.52,4.52,0,0,1,4.5-4.54,4.76,4.76,0,0,1,1.88.42v-5.21a.48.48,0,0,1,.48-.47H220a.48.48,0,0,1,.48.47V156a.48.48,0,0,1-.48.47h-1.7a.44.44,0,0,1-.45-.36,3.86,3.86,0,0,1-1.91.42A4.5,4.5,0,0,1,211.46,152Zm2.63-3.3V152a1.88,1.88,0,1,0,3.75,0v-3.3a1.88,1.88,0,1,0-3.75,0Z" style="fill:#28a745"/><path d="M221.82,152v-7.31a.48.48,0,0,1,.44-.47H224a.49.49,0,0,1,.45.47V152a1.88,1.88,0,1,0,3.75,0v-7.31a.48.48,0,0,1,.48-.47h1.7a.48.48,0,0,1,.48.47V156a.48.48,0,0,1-.48.47h-1.7a.51.51,0,0,1-.48-.36,4.29,4.29,0,0,1-1.88.42A4.5,4.5,0,0,1,221.82,152Z" style="fill:#28a745"/><path d="M234.67,148.68V152a1.9,1.9,0,0,0,1.87,1.88h.54a2,2,0,0,0,1-.51.59.59,0,0,1,.76.06L240,154.5a.57.57,0,0,1-.08.76,4.1,4.1,0,0,1-3.34,1.23A4.5,4.5,0,0,1,232,152v-3.3a4.52,4.52,0,0,1,4.5-4.54h.54a5.25,5.25,0,0,1,2.8,1.15c.28.28.28.53.05.75-.45.51-.84.9-1.06,1.18s-.65.11-.84,0a2.18,2.18,0,0,0-1.49-.39A1.88,1.88,0,0,0,234.67,148.68Z" style="fill:#28a745"/><path d="M241.19,152v-5.12h-.39a.5.5,0,0,1-.48-.48v-1.71a.49.49,0,0,1,.48-.47h.39v-2.27a.5.5,0,0,1,.48-.48h1.71a.47.47,0,0,1,.44.48v2.27h3.34a.48.48,0,0,1,.47.47v1.71a.49.49,0,0,1-.47.48h-3.34V152a1.9,1.9,0,0,0,1.88,1.88h.53c.42,0,.79-.37,1-.54a.56.56,0,0,1,.73,0c.39.42.81.87,1.09,1.15a.54.54,0,0,1-.06.76,3.87,3.87,0,0,1-2.8,1.23h-.53A4.51,4.51,0,0,1,241.19,152Z" style="fill:#28a745"/><path d="M249.42,148.68a4.54,4.54,0,1,1,9.08,0V152a4.54,4.54,0,1,1-9.08,0Zm2.69,0V152a1.87,1.87,0,0,0,1.85,1.85,1.85,1.85,0,0,0,1.85-1.85v-3.3A1.85,1.85,0,0,0,254,146.8,1.87,1.87,0,0,0,252.11,148.68Z" style="fill:#28a745"/><path d="M264.18,144.14h.53a5.14,5.14,0,0,1,2.77,1.15.61.61,0,0,1,0,.87,15,15,0,0,1-1.09,1.17c-.25.14-.48.17-.64,0a1.68,1.68,0,0,0-1.07-.53h-.53a1.88,1.88,0,0,0-1.88,1.88V156a.48.48,0,0,1-.44.47h-1.71a.49.49,0,0,1-.48-.47V144.67a.49.49,0,0,1,.45-.47h1.74a.48.48,0,0,1,.44.39A4.34,4.34,0,0,1,264.18,144.14Z" style="fill:#28a745"/><path d="M269.25,161.75h-.09a.48.48,0,0,1-.47-.45v-1.73a.48.48,0,0,1,.47-.45h.09c1.48,0,1.79-2.46,2.07-3.28l-3.7-11a.44.44,0,0,1,.45-.61h1.79a.57.57,0,0,1,.45.33l2.38,7.14,2.41-7.14a.57.57,0,0,1,.42-.33h1.93c.56,0,.59.39.48.75-.56,1.68-4.82,13.86-4.88,14.06A4,4,0,0,1,269.25,161.75Z" style="fill:#28a745"/><path d="M173.43,167.14a4.56,4.56,0,0,1,4.54,4.54V175a4.54,4.54,0,0,1-4.54,4.51,4.34,4.34,0,0,1-1.87-.42v5.23a.46.46,0,0,1-.45.45H169.4a.47.47,0,0,1-.48-.45V167.67a.49.49,0,0,1,.45-.47h1.74a.5.5,0,0,1,.45.39A4.33,4.33,0,0,1,173.43,167.14Zm-1.87,4.54V175a1.88,1.88,0,1,0,3.75,0v-3.3a1.88,1.88,0,1,0-3.75,0Z" style="fill:#28a745"/><path d="M183.65,167.14h.53a5.17,5.17,0,0,1,2.78,1.15.62.62,0,0,1,0,.87,11.9,11.9,0,0,1-1.09,1.17c-.25.14-.47.17-.64,0a1.68,1.68,0,0,0-1.07-.53h-.53a1.88,1.88,0,0,0-1.87,1.88V179a.49.49,0,0,1-.45.47h-1.71a.49.49,0,0,1-.48-.47V167.67a.49.49,0,0,1,.45-.47h1.74a.5.5,0,0,1,.45.39A4.33,4.33,0,0,1,183.65,167.14Z" style="fill:#28a745"/><path d="M188.41,162.94h1.74a.5.5,0,0,1,.45.48v1.71a.46.46,0,0,1-.45.44h-1.71a.47.47,0,0,1-.48-.44v-1.71A.5.5,0,0,1,188.41,162.94Zm0,4.26h1.74a.49.49,0,0,1,.45.47V179a.49.49,0,0,1-.45.47h-1.71A.49.49,0,0,1,188,179V167.67A.49.49,0,0,1,188.41,167.2Z" style="fill:#28a745"/><path d="M194.57,171.68V175a1.9,1.9,0,0,0,1.88,1.88H197a2,2,0,0,0,1-.51.58.58,0,0,1,.75.06l1.09,1.09a.57.57,0,0,1-.08.76,4.08,4.08,0,0,1-3.33,1.23,4.51,4.51,0,0,1-4.51-4.51v-3.3a4.53,4.53,0,0,1,4.51-4.54H197a5.25,5.25,0,0,1,2.8,1.15c.28.28.28.53.06.75-.45.51-.84.9-1.07,1.18s-.64.11-.84,0a2.13,2.13,0,0,0-1.48-.39A1.88,1.88,0,0,0,194.57,171.68Z" style="fill:#28a745"/><path d="M205.16,176.86h1.06a1.94,1.94,0,0,0,1-.54c.22-.14.44-.22.67,0,.36.37.87.87,1.17,1.21a.48.48,0,0,1,0,.73,4,4,0,0,1-2.86,1.23h-1.06a4.5,4.5,0,0,1-4.51-4.51v-3.3a4.52,4.52,0,1,1,9,0v2.49a.48.48,0,0,1-.47.47h-5.94V175A1.88,1.88,0,0,0,205.16,176.86Zm-1.88-5.18v.3H207v-.3a1.88,1.88,0,1,0-3.75,0Z" style="fill:#28a745"/><path d="M144.73,194.47a2.91,2.91,0,0,1,1.9.74,3,3,0,0,1,1.9-.74,2.89,2.89,0,0,1,2.88,2.88v5.58a.37.37,0,0,1-.36.36h-1.22a.35.35,0,0,1-.34-.36v-5.58a1,1,0,1,0-1.9,0v5.58a.35.35,0,0,1-.34.36H146a.36.36,0,0,1-.36-.36v-5.58a.94.94,0,1,0-1.88,0v5.58a.35.35,0,0,1-.34.36h-1.22a.36.36,0,0,1-.36-.36v-8.06a.37.37,0,0,1,.34-.36h1.24a.34.34,0,0,1,.28.16A2.77,2.77,0,0,1,144.73,194.47Z" style="fill:#28a745"/><path d="M152.13,197.73a3.24,3.24,0,1,1,6.48,0v2.36a3.24,3.24,0,1,1-6.48,0Zm1.92,0v2.36a1.32,1.32,0,1,0,2.64,0v-2.36a1.32,1.32,0,1,0-2.64,0Z" style="fill:#28a745"/><path d="M162.67,194.47a3.24,3.24,0,0,1,3.24,3.26v5.2a.35.35,0,0,1-.34.36h-1.22a.37.37,0,0,1-.36-.36v-5.2a1.32,1.32,0,1,0-2.64,0v5.2a.35.35,0,0,1-.34.36h-1.22a.36.36,0,0,1-.36-.36v-8.06a.37.37,0,0,1,.34-.36H161a.36.36,0,0,1,.32.26A3.48,3.48,0,0,1,162.67,194.47Z" style="fill:#28a745"/><path d="M167,200.09v-3.66h-.28a.35.35,0,0,1-.34-.34v-1.22a.35.35,0,0,1,.34-.34H167v-1.62a.35.35,0,0,1,.34-.34h1.22a.33.33,0,0,1,.32.34v1.62h2.38a.35.35,0,0,1,.34.34v1.22a.35.35,0,0,1-.34.34h-2.38v3.66a1.35,1.35,0,0,0,1.34,1.34h.38c.3,0,.56-.26.74-.38a.4.4,0,0,1,.52,0c.28.3.58.62.78.82a.38.38,0,0,1,0,.54,2.76,2.76,0,0,1-2,.88h-.38A3.22,3.22,0,0,1,167,200.09Z" style="fill:#28a745"/><path d="M176.29,196.39a1.34,1.34,0,0,0-1.34,1.34v5.2a.35.35,0,0,1-.32.34h-1.22a.35.35,0,0,1-.34-.34V191.07a.35.35,0,0,1,.32-.34h1.24a.35.35,0,0,1,.32.34v3.72a3.48,3.48,0,0,1,1.34-.3,3.24,3.24,0,0,1,3.24,3.24v5.2a.35.35,0,0,1-.34.34H178a.35.35,0,0,1-.34-.34v-5.2A1.34,1.34,0,0,0,176.29,196.39Z" style="fill:#28a745"/><path d="M180.47,191.07a.35.35,0,0,1,.32-.34H182a.35.35,0,0,1,.32.34v9.46a1,1,0,0,0,1,1h.24a.32.32,0,0,1,.32.32V203a.33.33,0,0,1-.32.34h-.24a2.85,2.85,0,0,1-2.84-2.84Z" style="fill:#28a745"/><path d="M185,207.07h-.06a.35.35,0,0,1-.34-.32v-1.24a.35.35,0,0,1,.34-.32H185c1.06,0,1.28-1.76,1.48-2.34L183.81,195a.32.32,0,0,1,.32-.44h1.28a.41.41,0,0,1,.32.24l1.7,5.1,1.72-5.1a.41.41,0,0,1,.3-.24h1.38c.4,0,.42.28.34.54-.4,1.2-3.44,9.9-3.48,10A2.9,2.9,0,0,1,185,207.07Z" style="fill:#28a745"/><path d="M196.51,200.09v-3.66h-.28a.35.35,0,0,1-.34-.34v-1.22a.35.35,0,0,1,.34-.34h.28v-1.62a.35.35,0,0,1,.34-.34h1.22a.33.33,0,0,1,.32.34v1.62h2.38a.35.35,0,0,1,.34.34v1.22a.35.35,0,0,1-.34.34h-2.38v3.66a1.35,1.35,0,0,0,1.34,1.34h.38c.3,0,.56-.26.74-.38a.4.4,0,0,1,.52,0c.28.3.58.62.78.82a.38.38,0,0,1,0,.54,2.76,2.76,0,0,1-2,.88h-.38A3.22,3.22,0,0,1,196.51,200.09Z" style="fill:#28a745"/><path d="M209.35,197.69c.16.58.32,1.18.44,1.66l1.28-4.58a.41.41,0,0,1,.32-.24h1.26a.3.3,0,0,1,.32.42L210.73,203a.37.37,0,0,1-.32.24h-1.24a.43.43,0,0,1-.32-.24l-1.32-4.78L206.19,203a.37.37,0,0,1-.32.24h-1.24a.4.4,0,0,1-.32-.24L202.07,195a.31.31,0,0,1,.32-.42h1.26a.41.41,0,0,1,.32.24l1.28,4.58,1.28-4.58a.41.41,0,0,1,.32-.24h1.46l.26.54a.25.25,0,0,1,.08-.18A26,26,0,0,0,209.35,197.69Z" style="fill:#28a745"/><path d="M213.27,197.73a3.24,3.24,0,1,1,6.48,0v2.36a3.24,3.24,0,0,1-6.48,0Zm1.92,0v2.36a1.32,1.32,0,0,0,2.64,0v-2.36a1.32,1.32,0,1,0-2.64,0Z" style="fill:#28a745"/><path d="M228.39,194.49a3.25,3.25,0,0,1,3.24,3.24v2.36a3.24,3.24,0,0,1-3.24,3.22,3.15,3.15,0,0,1-1.34-.3v3.74a.33.33,0,0,1-.32.32h-1.22a.33.33,0,0,1-.34-.32V194.87a.35.35,0,0,1,.32-.34h1.24a.36.36,0,0,1,.32.28A3.12,3.12,0,0,1,228.39,194.49Zm-1.34,3.24v2.36a1.34,1.34,0,0,0,2.68,0v-2.36a1.34,1.34,0,1,0-2.68,0Z" style="fill:#28a745"/><path d="M235.67,203.27h-.76a2.85,2.85,0,1,1,0-5.7h.76a3,3,0,0,1,1,.18v-.44a.92.92,0,0,0-.78-.92h-1.1a1.28,1.28,0,0,0-.7.34c-.18.14-.36.22-.52,0s-.56-.58-.8-.84-.18-.38,0-.54a2.82,2.82,0,0,1,2-.88h1.1a2.8,2.8,0,0,1,2.66,2.8v5.62a.35.35,0,0,1-.34.34H237a.37.37,0,0,1-.3-.18A3,3,0,0,1,235.67,203.27ZM234,200.43a1,1,0,0,0,1,1h.76a1,1,0,0,0,1-1,1,1,0,0,0-1-1h-.76A1,1,0,0,0,234,200.43Z" style="fill:#28a745"/><path d="M240.11,207.07h-.06a.35.35,0,0,1-.34-.32v-1.24a.35.35,0,0,1,.34-.32h.06c1.06,0,1.28-1.76,1.48-2.34L239,195a.32.32,0,0,1,.32-.44h1.28a.41.41,0,0,1,.32.24l1.7,5.1,1.72-5.1a.41.41,0,0,1,.3-.24H246c.4,0,.42.28.34.54-.4,1.2-3.44,9.9-3.48,10A2.9,2.9,0,0,1,240.11,207.07Z" style="fill:#28a745"/><path d="M249.79,194.47a2.91,2.91,0,0,1,1.9.74,3,3,0,0,1,1.9-.74,2.89,2.89,0,0,1,2.88,2.88v5.58a.37.37,0,0,1-.36.36h-1.22a.35.35,0,0,1-.34-.36v-5.58a1,1,0,1,0-1.9,0v5.58a.35.35,0,0,1-.34.36h-1.22a.36.36,0,0,1-.36-.36v-5.58a.94.94,0,1,0-1.88,0v5.58a.35.35,0,0,1-.34.36h-1.22a.36.36,0,0,1-.36-.36v-8.06a.37.37,0,0,1,.34-.36h1.24a.34.34,0,0,1,.28.16A2.77,2.77,0,0,1,249.79,194.47Z" style="fill:#28a745"/><path d="M260.43,201.43h.76a1.39,1.39,0,0,0,.74-.38c.16-.1.32-.16.48,0s.62.62.84.86a.34.34,0,0,1,0,.52,2.82,2.82,0,0,1-2,.88h-.76a3.22,3.22,0,0,1-3.22-3.22v-2.36a3.23,3.23,0,1,1,6.46,0v1.78a.35.35,0,0,1-.34.34h-4.24v.24A1.34,1.34,0,0,0,260.43,201.43Zm-1.34-3.7V198h2.68v-.22a1.34,1.34,0,1,0-2.68,0Z" style="fill:#28a745"/><path d="M267.73,194.47a3.24,3.24,0,0,1,3.24,3.26v5.2a.35.35,0,0,1-.34.36h-1.22a.37.37,0,0,1-.36-.36v-5.2a1.32,1.32,0,1,0-2.64,0v5.2a.35.35,0,0,1-.34.36h-1.22a.36.36,0,0,1-.36-.36v-8.06a.37.37,0,0,1,.34-.36h1.24a.36.36,0,0,1,.32.26A3.48,3.48,0,0,1,267.73,194.47Z" style="fill:#28a745"/><path d="M272,200.09v-3.66h-.28a.35.35,0,0,1-.34-.34v-1.22a.35.35,0,0,1,.34-.34H272v-1.62a.35.35,0,0,1,.34-.34h1.22a.33.33,0,0,1,.32.34v1.62h2.38a.35.35,0,0,1,.34.34v1.22a.35.35,0,0,1-.34.34h-2.38v3.66a1.35,1.35,0,0,0,1.34,1.34h.38c.3,0,.56-.26.74-.38a.4.4,0,0,1,.52,0c.28.3.58.62.78.82a.38.38,0,0,1,0,.54,2.76,2.76,0,0,1-2,.88h-.38A3.22,3.22,0,0,1,272,200.09Z" style="fill:#28a745"/><path d="M285.93,194.49a3.25,3.25,0,0,1,3.24,3.24v2.36a3.24,3.24,0,0,1-3.24,3.22,3.15,3.15,0,0,1-1.34-.3v3.74a.33.33,0,0,1-.32.32h-1.22a.33.33,0,0,1-.34-.32V194.87a.35.35,0,0,1,.32-.34h1.24a.36.36,0,0,1,.32.28A3.12,3.12,0,0,1,285.93,194.49Zm-1.34,3.24v2.36a1.34,1.34,0,1,0,2.68,0v-2.36a1.34,1.34,0,1,0-2.68,0Z" style="fill:#28a745"/><path d="M290,191.07a.35.35,0,0,1,.32-.34h1.24a.35.35,0,0,1,.32.34v9.46a1,1,0,0,0,1,1h.24a.32.32,0,0,1,.32.32V203a.33.33,0,0,1-.32.34h-.24a2.85,2.85,0,0,1-2.84-2.84Z" style="fill:#28a745"/><path d="M297.07,203.27h-.76a2.85,2.85,0,1,1,0-5.7h.76a3,3,0,0,1,1,.18v-.44a.92.92,0,0,0-.78-.92h-1.1a1.28,1.28,0,0,0-.7.34c-.18.14-.36.22-.52,0s-.56-.58-.8-.84-.18-.38,0-.54a2.82,2.82,0,0,1,2-.88h1.1a2.8,2.8,0,0,1,2.66,2.8v5.62a.35.35,0,0,1-.34.34h-1.22a.37.37,0,0,1-.3-.18A3,3,0,0,1,297.07,203.27Zm-1.72-2.84a1,1,0,0,0,1,1h.76a1,1,0,0,0,1-1,1,1,0,0,0-1-1h-.76A1,1,0,0,0,295.35,200.43Z" style="fill:#28a745"/><path d="M304.09,194.47a3.24,3.24,0,0,1,3.24,3.26v5.2a.35.35,0,0,1-.34.36h-1.22a.37.37,0,0,1-.36-.36v-5.2a1.32,1.32,0,1,0-2.64,0v5.2a.35.35,0,0,1-.34.36h-1.22a.36.36,0,0,1-.36-.36v-8.06a.37.37,0,0,1,.34-.36h1.24a.36.36,0,0,1,.32.26A3.48,3.48,0,0,1,304.09,194.47Z" style="fill:#28a745"/><path d="M308.39,202.43a.35.35,0,0,1,0-.5c.28-.32.5-.58.74-.84a.35.35,0,0,1,.54-.06,1.24,1.24,0,0,0,.76.4h1.14a.79.79,0,0,0,.78-.78.81.81,0,0,0-.78-.8h-.84a2.69,2.69,0,0,1-2.66-2.7,2.66,2.66,0,0,1,2.66-2.66h.84a3.83,3.83,0,0,1,2,.8.43.43,0,0,1,.06.62c-.26.28-.48.56-.74.82a.36.36,0,0,1-.52,0,1.2,1.2,0,0,0-.76-.38h-.84a.78.78,0,0,0-.78.76.8.8,0,0,0,.78.8h.84a2.69,2.69,0,0,1,2.66,2.7,2.66,2.66,0,0,1-2.66,2.66h-1.14A3.7,3.7,0,0,1,308.39,202.43Z" style="fill:#28a745"/><path d="M177.78,216.69c.16.58.32,1.18.44,1.66l1.28-4.58a.41.41,0,0,1,.32-.24h1.26a.3.3,0,0,1,.32.42L179.16,222a.37.37,0,0,1-.32.24H177.6a.43.43,0,0,1-.32-.24L176,217.25,174.62,222a.37.37,0,0,1-.32.24h-1.24a.4.4,0,0,1-.32-.24L170.5,214a.31.31,0,0,1,.32-.42h1.26a.41.41,0,0,1,.32.24l1.28,4.58,1.28-4.58a.41.41,0,0,1,.32-.24h1.46l.26.54a.25.25,0,0,1,.08-.18A26,26,0,0,0,177.78,216.69Z" style="fill:#28a745"/><path d="M185.14,215.39a1.34,1.34,0,0,0-1.34,1.34v5.2a.35.35,0,0,1-.32.34h-1.22a.35.35,0,0,1-.34-.34V210.07a.35.35,0,0,1,.32-.34h1.24a.35.35,0,0,1,.32.34v3.72a3.48,3.48,0,0,1,1.34-.3,3.24,3.24,0,0,1,3.24,3.24v5.2a.35.35,0,0,1-.34.34h-1.22a.35.35,0,0,1-.34-.34v-5.2A1.34,1.34,0,0,0,185.14,215.39Z" style="fill:#28a745"/><path d="M189.74,210.49H191a.35.35,0,0,1,.32.34v1.22a.33.33,0,0,1-.32.32h-1.22a.33.33,0,0,1-.34-.32v-1.22A.35.35,0,0,1,189.74,210.49Zm0,3H191a.35.35,0,0,1,.32.34v8.06a.35.35,0,0,1-.32.34h-1.22a.35.35,0,0,1-.34-.34v-8.06A.35.35,0,0,1,189.74,213.53Z" style="fill:#28a745"/><path d="M192.46,210.07a.35.35,0,0,1,.32-.34H194a.35.35,0,0,1,.32.34v9.46a1,1,0,0,0,1,1h.24a.32.32,0,0,1,.32.32V222a.33.33,0,0,1-.32.34h-.24a2.85,2.85,0,0,1-2.84-2.84Z" style="fill:#28a745"/><path d="M199.34,220.43h.76a1.39,1.39,0,0,0,.74-.38c.16-.1.32-.16.48,0s.62.62.84.86a.34.34,0,0,1,0,.52,2.82,2.82,0,0,1-2,.88h-.76a3.22,3.22,0,0,1-3.22-3.22v-2.36a3.23,3.23,0,1,1,6.46,0v1.78a.35.35,0,0,1-.34.34H198v.24A1.34,1.34,0,0,0,199.34,220.43Zm-1.34-3.7V217h2.68v-.22a1.34,1.34,0,0,0-2.68,0Z" style="fill:#28a745"/><path d="M211.22,213.49a3.25,3.25,0,0,1,3.24,3.24v2.36a3.24,3.24,0,0,1-3.24,3.22,3.15,3.15,0,0,1-1.34-.3v3.74a.33.33,0,0,1-.32.32h-1.22a.33.33,0,0,1-.34-.32V213.87a.35.35,0,0,1,.32-.34h1.24a.36.36,0,0,1,.32.28A3.12,3.12,0,0,1,211.22,213.49Zm-1.34,3.24v2.36a1.34,1.34,0,0,0,2.68,0v-2.36a1.34,1.34,0,0,0-2.68,0Z" style="fill:#28a745"/><path d="M218.52,213.49h.38a3.7,3.7,0,0,1,2,.82.44.44,0,0,1,0,.62,10.21,10.21,0,0,1-.78.84c-.18.1-.34.12-.46,0a1.2,1.2,0,0,0-.76-.38h-.38a1.34,1.34,0,0,0-1.34,1.34v5.2a.35.35,0,0,1-.32.34h-1.22a.35.35,0,0,1-.34-.34v-8.06a.35.35,0,0,1,.32-.34h1.24a.36.36,0,0,1,.32.28A3.12,3.12,0,0,1,218.52,213.49Z" style="fill:#28a745"/><path d="M221.28,216.73a3.24,3.24,0,1,1,6.48,0v2.36a3.24,3.24,0,1,1-6.48,0Zm1.92,0v2.36a1.32,1.32,0,1,0,2.64,0v-2.36a1.32,1.32,0,1,0-2.64,0Z" style="fill:#28a745"/><path d="M231.44,213.47a2.91,2.91,0,0,1,1.9.74,3,3,0,0,1,1.9-.74,2.89,2.89,0,0,1,2.88,2.88v5.58a.37.37,0,0,1-.36.36h-1.22a.35.35,0,0,1-.34-.36v-5.58a1,1,0,1,0-1.9,0v5.58a.35.35,0,0,1-.34.36h-1.22a.36.36,0,0,1-.36-.36v-5.58a.94.94,0,1,0-1.88,0v5.58a.35.35,0,0,1-.34.36h-1.22a.36.36,0,0,1-.36-.36v-8.06a.37.37,0,0,1,.34-.36h1.24a.34.34,0,0,1,.28.16A2.77,2.77,0,0,1,231.44,213.47Z" style="fill:#28a745"/><path d="M238.84,216.73a3.24,3.24,0,1,1,6.48,0v2.36a3.24,3.24,0,1,1-6.48,0Zm1.92,0v2.36a1.32,1.32,0,1,0,2.64,0v-2.36a1.32,1.32,0,1,0-2.64,0Z" style="fill:#28a745"/><path d="M250.74,210.07a.35.35,0,0,1,.32-.34h1.24a.35.35,0,0,1,.32.34v9.46a1,1,0,0,0,1,1h.24a.32.32,0,0,1,.32.32V222a.33.33,0,0,1-.32.34h-.24a2.85,2.85,0,0,1-2.84-2.84Z" style="fill:#28a745"/><path d="M257.8,222.27H257a2.85,2.85,0,1,1,0-5.7h.76a3,3,0,0,1,1,.18v-.44a.92.92,0,0,0-.78-.92h-1.1a1.28,1.28,0,0,0-.7.34c-.18.14-.36.22-.52,0s-.56-.58-.8-.84-.18-.38,0-.54a2.82,2.82,0,0,1,2-.88H258a2.8,2.8,0,0,1,2.66,2.8v5.62a.35.35,0,0,1-.34.34h-1.22a.37.37,0,0,1-.3-.18A3,3,0,0,1,257.8,222.27Zm-1.72-2.84a1,1,0,0,0,1,1h.76a1,1,0,0,0,1-1,1,1,0,0,0-1-1H257A1,1,0,0,0,256.08,219.43Z" style="fill:#28a745"/><path d="M261.72,221.43a.35.35,0,0,1,0-.5c.28-.32.5-.58.74-.84A.35.35,0,0,1,263,220a1.24,1.24,0,0,0,.76.4h1.14a.79.79,0,0,0,.78-.78.81.81,0,0,0-.78-.8h-.84a2.69,2.69,0,0,1-2.66-2.7,2.66,2.66,0,0,1,2.66-2.66h.84a3.83,3.83,0,0,1,2,.8.43.43,0,0,1,.06.62c-.26.28-.48.56-.74.82a.36.36,0,0,1-.52,0,1.2,1.2,0,0,0-.76-.38h-.84a.78.78,0,0,0-.78.76.8.8,0,0,0,.78.8h.84a2.69,2.69,0,0,1,2.66,2.7,2.66,2.66,0,0,1-2.66,2.66h-1.14A3.7,3.7,0,0,1,261.72,221.43Z" style="fill:#28a745"/><path d="M268.44,219.09v-3.66h-.28a.35.35,0,0,1-.34-.34v-1.22a.35.35,0,0,1,.34-.34h.28v-1.62a.35.35,0,0,1,.34-.34H270a.33.33,0,0,1,.32.34v1.62h2.38a.35.35,0,0,1,.34.34v1.22a.35.35,0,0,1-.34.34h-2.38v3.66a1.35,1.35,0,0,0,1.34,1.34H272c.3,0,.56-.26.74-.38a.4.4,0,0,1,.52,0c.28.3.58.62.78.82a.38.38,0,0,1,0,.54,2.76,2.76,0,0,1-2,.88h-.38A3.22,3.22,0,0,1,268.44,219.09Z" style="fill:#28a745"/><path d="M274.66,221.43a.35.35,0,0,1,0-.5c.28-.32.5-.58.74-.84a.35.35,0,0,1,.54-.06,1.24,1.24,0,0,0,.76.4h1.14a.79.79,0,0,0,.78-.78.81.81,0,0,0-.78-.8H277a2.69,2.69,0,0,1-2.66-2.7,2.66,2.66,0,0,1,2.66-2.66h.84a3.83,3.83,0,0,1,2,.8.43.43,0,0,1,.06.62c-.26.28-.48.56-.74.82a.36.36,0,0,1-.52,0,1.2,1.2,0,0,0-.76-.38H277a.78.78,0,0,0-.78.76.8.8,0,0,0,.78.8h.84a2.69,2.69,0,0,1,2.66,2.7,2.66,2.66,0,0,1-2.66,2.66H276.7A3.7,3.7,0,0,1,274.66,221.43Z" style="fill:#28a745"/><path d="M151.15,235.39a3.73,3.73,0,0,1,3.72,3.73v2.71a3.72,3.72,0,0,1-3.72,3.71,3.67,3.67,0,0,1-1.54-.35v4.3a.38.38,0,0,1-.37.37h-1.4a.38.38,0,0,1-.39-.37V235.83a.39.39,0,0,1,.36-.39h1.43a.42.42,0,0,1,.37.32A3.61,3.61,0,0,1,151.15,235.39Zm-1.54,3.73v2.71a1.54,1.54,0,0,0,3.08,0v-2.71a1.54,1.54,0,0,0-3.08,0Z" style="fill:#28a745"/><path d="M159.54,235.39H160a4.26,4.26,0,0,1,2.28,1,.51.51,0,0,1,0,.71,11.62,11.62,0,0,1-.9,1,.43.43,0,0,1-.53,0,1.33,1.33,0,0,0-.87-.44h-.44a1.54,1.54,0,0,0-1.54,1.54v6a.39.39,0,0,1-.37.39h-1.4a.4.4,0,0,1-.39-.39v-9.27a.39.39,0,0,1,.37-.39h1.42a.4.4,0,0,1,.37.32A3.65,3.65,0,0,1,159.54,235.39Z" style="fill:#28a745"/><path d="M162.72,239.12a3.73,3.73,0,1,1,7.45,0v2.71a3.73,3.73,0,1,1-7.45,0Zm2.21,0v2.71a1.52,1.52,0,1,0,3,0v-2.71a1.52,1.52,0,1,0-3,0Z" style="fill:#28a745"/><path d="M174.4,235.37a3.39,3.39,0,0,1,2.19.85,3.42,3.42,0,0,1,2.18-.85,3.33,3.33,0,0,1,3.31,3.31v6.42a.43.43,0,0,1-.41.41h-1.4a.41.41,0,0,1-.4-.41v-6.42a1.09,1.09,0,1,0-2.18,0v6.42a.4.4,0,0,1-.39.41h-1.4a.41.41,0,0,1-.42-.41v-6.42a1.08,1.08,0,1,0-2.16,0v6.42a.4.4,0,0,1-.39.41h-1.4a.41.41,0,0,1-.42-.41v-9.27a.42.42,0,0,1,.39-.41h1.43a.41.41,0,0,1,.32.18A3.22,3.22,0,0,1,174.4,235.37Z" style="fill:#28a745"/><path d="M182.91,239.12a3.73,3.73,0,1,1,7.45,0v2.71a3.73,3.73,0,1,1-7.45,0Zm2.21,0v2.71a1.52,1.52,0,1,0,3,0v-2.71a1.52,1.52,0,1,0-3,0Z" style="fill:#28a745"/><path d="M200.07,243.37h.87a1.57,1.57,0,0,0,.85-.43c.19-.12.37-.19.56,0s.71.71,1,1a.38.38,0,0,1,0,.59,3.27,3.27,0,0,1-2.35,1h-.87a3.7,3.7,0,0,1-3.7-3.71v-2.71a3.71,3.71,0,1,1,7.42,0v2a.4.4,0,0,1-.39.39h-4.87v.27A1.54,1.54,0,0,0,200.07,243.37Zm-1.54-4.25v.25h3.08v-.25a1.54,1.54,0,0,0-3.08,0Z" style="fill:#28a745"/><path d="M208.46,235.37a3.73,3.73,0,0,1,3.73,3.75v6a.41.41,0,0,1-.39.41h-1.4a.43.43,0,0,1-.42-.41v-6a1.52,1.52,0,1,0-3,0v6a.41.41,0,0,1-.39.41h-1.41a.41.41,0,0,1-.41-.41v-9.27a.42.42,0,0,1,.39-.41h1.43a.4.4,0,0,1,.36.3A4,4,0,0,1,208.46,235.37Z" style="fill:#28a745"/><path d="M213,241.83v-2.71a3.72,3.72,0,0,1,3.7-3.73,3.89,3.89,0,0,1,1.54.35v-4.28a.41.41,0,0,1,.4-.39h1.4a.4.4,0,0,1,.39.39V245.1a.4.4,0,0,1-.39.39h-1.4a.37.37,0,0,1-.37-.3,3.15,3.15,0,0,1-1.57.35A3.71,3.71,0,0,1,213,241.83Zm2.16-2.71v2.71a1.54,1.54,0,1,0,3.08,0v-2.71a1.54,1.54,0,1,0-3.08,0Z" style="fill:#28a745"/><path d="M221.8,244.52a.4.4,0,0,1,0-.57c.33-.37.58-.67.86-1a.41.41,0,0,1,.62-.07,1.36,1.36,0,0,0,.87.46h1.31a.91.91,0,0,0,.9-.89.93.93,0,0,0-.9-.92h-1a3.09,3.09,0,0,1-3.05-3.11,3.05,3.05,0,0,1,3.05-3.06h1a4.4,4.4,0,0,1,2.25.92.5.5,0,0,1,.07.72c-.3.32-.55.64-.85.94a.42.42,0,0,1-.6.05,1.33,1.33,0,0,0-.87-.44h-1a.89.89,0,0,0-.89.87.91.91,0,0,0,.89.92h1a3.1,3.1,0,0,1,3.06,3.11,3.06,3.06,0,0,1-3.06,3.06h-1.31A4.28,4.28,0,0,1,221.8,244.52Z" style="fill:#28a745"/><path d="M235.14,232h1.43a.4.4,0,0,1,.37.39v1.4a.38.38,0,0,1-.37.37h-1.4a.38.38,0,0,1-.39-.37v-1.4A.39.39,0,0,1,235.14,232Zm0,3.49h1.43a.4.4,0,0,1,.37.39v9.27a.4.4,0,0,1-.37.39h-1.4a.4.4,0,0,1-.39-.39v-9.27A.39.39,0,0,1,235.14,235.44Z" style="fill:#28a745"/><path d="M242,235.37a3.73,3.73,0,0,1,3.73,3.75v6a.4.4,0,0,1-.39.41h-1.4a.43.43,0,0,1-.42-.41v-6a1.52,1.52,0,0,0-1.52-1.54,1.53,1.53,0,0,0-1.51,1.54v6a.41.41,0,0,1-.39.41h-1.41a.41.41,0,0,1-.41-.41v-9.27a.42.42,0,0,1,.39-.41h1.43a.4.4,0,0,1,.36.3A4,4,0,0,1,242,235.37Z" style="fill:#28a745"/><path d="M251.85,244a.4.4,0,0,1,0-.55c.2-.26.75-.79,1-1.1a.41.41,0,0,1,.63,0,2.46,2.46,0,0,0,1.68.86H256a1.77,1.77,0,0,0,1.76-1.78,1.93,1.93,0,0,0-1.76-2h-1.19a.44.44,0,0,1-.44-.44v-1.43a.46.46,0,0,1,.44-.44h1a1.68,1.68,0,0,0,1.67-1.72,1.77,1.77,0,0,0-1.78-1.78h-.33a2.75,2.75,0,0,0-1.63.84c-.24.15-.44.28-.63.08,0,0-.66-.66-1-1.07a.46.46,0,0,1,0-.64,4.93,4.93,0,0,1,3.3-1.52h.33a4.09,4.09,0,0,1,3,6.91,4.51,4.51,0,0,1,1.37,3.17,4.08,4.08,0,0,1-4.07,4.09h-.88A4.8,4.8,0,0,1,251.85,244Z" style="fill:#fc476e"/><path d="M261.37,241.4v-6a4.1,4.1,0,0,1,4.09-4.09h.62a4.08,4.08,0,0,1,4.09,4.09v6a4.08,4.08,0,0,1-4.09,4.09h-.62A4.1,4.1,0,0,1,261.37,241.4Zm4.09-7.77a1.79,1.79,0,0,0-1.78,1.78v6a1.79,1.79,0,0,0,1.78,1.78h.62a1.77,1.77,0,0,0,1.78-1.78v-6a1.77,1.77,0,0,0-1.78-1.78Z" style="fill:#fc476e"/><path d="M276.2,242v-2.6a3.56,3.56,0,0,1,3.54-3.56,3.75,3.75,0,0,1,1.48.33v-4.09a.38.38,0,0,1,.37-.38h1.34a.39.39,0,0,1,.38.38v13.05a.39.39,0,0,1-.38.37h-1.34a.34.34,0,0,1-.35-.29,3,3,0,0,1-1.5.33A3.53,3.53,0,0,1,276.2,242Zm2.07-2.6V242a1.48,1.48,0,0,0,3,0v-2.6a1.48,1.48,0,0,0-3,0Z" style="fill:#fc476e"/><path d="M288,245.49h-.84a3.14,3.14,0,1,1,0-6.27H288a3.12,3.12,0,0,1,1.06.2v-.49a1,1,0,0,0-.86-1H287a1.43,1.43,0,0,0-.77.37c-.2.16-.4.25-.57.05s-.62-.64-.88-.93-.2-.41,0-.59a3.09,3.09,0,0,1,2.22-1h1.21a3.07,3.07,0,0,1,2.92,3.08v6.19a.38.38,0,0,1-.37.37h-1.34a.41.41,0,0,1-.33-.2A3.4,3.4,0,0,1,288,245.49Zm-1.89-3.12a1,1,0,0,0,1.05,1H288a1.07,1.07,0,0,0,1.06-1,1.06,1.06,0,0,0-1.06-1.06h-.84A1,1,0,0,0,286.08,242.37Z" style="fill:#fc476e"/><path d="M292.85,249.67h-.06a.39.39,0,0,1-.38-.35V248a.39.39,0,0,1,.38-.35h.06c1.17,0,1.41-1.93,1.63-2.57l-2.9-8.67a.35.35,0,0,1,.35-.49h1.41a.45.45,0,0,1,.35.27l1.87,5.61,1.89-5.61a.45.45,0,0,1,.33-.27h1.52c.44,0,.46.31.37.6-.44,1.32-3.78,10.89-3.82,11A3.19,3.19,0,0,1,292.85,249.67Z" style="fill:#fc476e"/><path d="M300.51,244.57a.4.4,0,0,1,0-.56l.81-.92a.39.39,0,0,1,.6-.06,1.35,1.35,0,0,0,.83.43H304a.87.87,0,0,0,.86-.85.89.89,0,0,0-.86-.88h-.93a3,3,0,0,1-2.92-3,2.93,2.93,0,0,1,2.92-2.93H304a4.19,4.19,0,0,1,2.15.88.47.47,0,0,1,.07.68c-.29.31-.53.62-.81.9a.41.41,0,0,1-.58.05,1.33,1.33,0,0,0-.83-.42h-.93a.85.85,0,0,0-.85.84.88.88,0,0,0,.85.88H304a3,3,0,0,1,2.92,3,2.92,2.92,0,0,1-2.92,2.92h-1.26A4.09,4.09,0,0,1,300.51,244.57Z" style="fill:#fc476e"/><path d="M251.09,180.64h-8.62a1.46,1.46,0,0,1-1.46-1.46c0-3.38,2.67-5.32,5-7,1.92-1.42,3.58-2.6,3.58-4.21,0-.76-.53-2.07-2.5-2.07a2.36,2.36,0,0,0-2.49,2.34,1.47,1.47,0,0,1-2.93,0,5.29,5.29,0,0,1,5.42-5.27,5.36,5.36,0,0,1,4,1.59,4.94,4.94,0,0,1,1.38,3.41c0,3.1-2.54,4.94-4.79,6.57a11.71,11.71,0,0,0-3.45,3.21h6.78a1.46,1.46,0,1,1,0,2.92Z" style="fill:#fc476e"/><path d="M262.41,180.64a8.85,8.85,0,1,1,8.88-8.85A8.88,8.88,0,0,1,262.41,180.64Zm0-14.77a5.93,5.93,0,1,0,5.93,5.92A5.92,5.92,0,0,0,262.41,165.87Z" style="fill:#fc476e"/><path d="M281.15,180.64a8.85,8.85,0,1,1,8.87-8.85A8.87,8.87,0,0,1,281.15,180.64Zm0-14.77a5.93,5.93,0,1,0,5.92,5.92A5.92,5.92,0,0,0,281.15,165.87Z" style="fill:#fc476e"/><path d="M237,173h-3v-2.91h3a.82.82,0,0,0,0-1.64h-3v-4a2,2,0,0,0-.35-1.29,1.09,1.09,0,0,0-.9-.36,1,1,0,0,0-.86.36,2,2,0,0,0-.34,1.29v4h-5.68l-2.42-3.65c-.2-.33-.4-.63-.59-.93a4.08,4.08,0,0,0-.49-.64,1.58,1.58,0,0,0-.48-.33,1.62,1.62,0,0,0-.66-.12,1.66,1.66,0,0,0-.93.28,1.58,1.58,0,0,0-.61.7,3.76,3.76,0,0,0-.16,1.23v3.46h-3a.82.82,0,1,0,0,1.64h3V173h-3a.82.82,0,1,0,0,1.64h3v4.6a1.86,1.86,0,0,0,.36,1.26,1.24,1.24,0,0,0,1.79,0,1.79,1.79,0,0,0,.37-1.26v-4.6h5.14l2.78,4.26c.19.29.39.57.59.85a4.12,4.12,0,0,0,.58.65,1.92,1.92,0,0,0,.6.37,2.1,2.1,0,0,0,.74.11c.75,0,1.52-.23,1.52-1.93v-4.31h3a.82.82,0,0,0,0-1.64Zm-5.47-2.91V173h-2.68L227,170.11Zm-9.5-3.33,1.1,1.69h-1.1Zm0,6.24v-2.91h2.17l1.9,2.91Zm9.5,4L230,174.66h1.59v2.41Z" style="fill:#fc476e"/><path d="M163.78,110.22a.44.44,0,0,1-.44.44h-1.41a.45.45,0,0,1-.46-.44V97.07a.47.47,0,0,1,.44-.44h3.57a4.33,4.33,0,0,1,4.53,4.2v.53a4.34,4.34,0,0,1-4.53,4.2h-1.7Zm0-11.28v4.31h1.7a2,2,0,0,0,2.22-1.89v-.53a2,2,0,0,0-2.22-1.89Z" style="fill:#fc476e"/><path d="M173.24,105.56v4.66a.44.44,0,0,1-.44.44h-1.41a.45.45,0,0,1-.46-.44V97.07a.47.47,0,0,1,.44-.44h3.57a4.33,4.33,0,0,1,4.53,4.2v.53a4.12,4.12,0,0,1-2.38,3.69l2.51,5a.41.41,0,0,1-.4.63h-1.6a.69.69,0,0,1-.4-.24l-2.42-4.86Zm0-6.62v4.31h1.7a2,2,0,0,0,2.22-1.89v-.53a2,2,0,0,0-2.22-1.89Z" style="fill:#fc476e"/><path d="M180.52,105.84v-4.37a4.69,4.69,0,0,1,4.56-4.91h.24a4.69,4.69,0,0,1,4.55,4.91v4.37a4.68,4.68,0,0,1-4.55,4.89h-.24A4.69,4.69,0,0,1,180.52,105.84Zm4.56-7a2.38,2.38,0,0,0-2.25,2.6v4.37a2.36,2.36,0,0,0,2.25,2.58h.24a2.37,2.37,0,0,0,2.24-2.58v-4.37a2.39,2.39,0,0,0-2.24-2.6Z" style="fill:#fc476e"/><path d="M200,110.2v-9.13l-2.2,3.48a.87.87,0,0,1-.38.2h-1.25a.87.87,0,0,1-.38-.2l-2.2-3.46v9.13a.43.43,0,0,1-.44.44h-1.4a.44.44,0,0,1-.45-.44l0-13.15a.45.45,0,0,1,.44-.44h1.54a.85.85,0,0,1,.38.19l3.14,5,3.19-5a.85.85,0,0,1,.38-.19h1.52a.44.44,0,0,1,.44.44V110.2a.44.44,0,0,1-.44.44h-1.43A.46.46,0,0,1,200,110.2Z" style="fill:#fc476e"/><path d="M203.78,105.84v-4.37a4.69,4.69,0,0,1,4.55-4.91h.24a4.69,4.69,0,0,1,4.56,4.91v4.37a4.69,4.69,0,0,1-4.56,4.89h-.24A4.69,4.69,0,0,1,203.78,105.84Zm4.55-7a2.38,2.38,0,0,0-2.24,2.6v4.37a2.36,2.36,0,0,0,2.24,2.58h.24a2.38,2.38,0,0,0,2.25-2.58v-4.37a2.4,2.4,0,0,0-2.25-2.6Z" style="fill:#fc476e"/><path d="M215.77,96.71h1.43a.37.37,0,0,1,.37.36v10.29a.38.38,0,0,1-.37.38h-1.41a.38.38,0,0,1-.37-.38V97.07A.36.36,0,0,1,215.77,96.71Zm0,11.71h1.43a.38.38,0,0,1,.37.37v1.43a.38.38,0,0,1-.37.38h-1.41a.38.38,0,0,1-.37-.38v-1.43A.38.38,0,0,1,215.77,108.42Z" style="fill:#fc476e"/><path d="M226.7,110.22a.44.44,0,0,1-.44.44h-1.41a.45.45,0,0,1-.46-.44V97.07a.47.47,0,0,1,.44-.44h3.57a4.33,4.33,0,0,1,4.53,4.2v.53a4.34,4.34,0,0,1-4.53,4.2h-1.7Zm0-11.28v4.31h1.7a2,2,0,0,0,2.22-1.89v-.53a2,2,0,0,0-2.22-1.89Z" style="fill:#fc476e"/><path d="M236.16,105.56v4.66a.44.44,0,0,1-.44.44h-1.41a.45.45,0,0,1-.46-.44V97.07a.47.47,0,0,1,.44-.44h3.57a4.33,4.33,0,0,1,4.53,4.2v.53a4.12,4.12,0,0,1-2.38,3.69l2.51,5a.41.41,0,0,1-.4.63h-1.6a.69.69,0,0,1-.4-.24l-2.42-4.86Zm0-6.62v4.31h1.7a2,2,0,0,0,2.22-1.89v-.53a2,2,0,0,0-2.22-1.89Z" style="fill:#fc476e"/><path d="M243.44,105.84v-4.37A4.69,4.69,0,0,1,248,96.56h.24a4.69,4.69,0,0,1,4.55,4.91v4.37a4.68,4.68,0,0,1-4.55,4.89H248A4.69,4.69,0,0,1,243.44,105.84Zm4.56-7a2.38,2.38,0,0,0-2.25,2.6v4.37a2.36,2.36,0,0,0,2.25,2.58h.24a2.37,2.37,0,0,0,2.24-2.58v-4.37a2.39,2.39,0,0,0-2.24-2.6Z" style="fill:#fc476e"/><path d="M262.94,110.2v-9.13l-2.2,3.48a.87.87,0,0,1-.38.2h-1.25a.87.87,0,0,1-.38-.2l-2.2-3.46v9.13a.44.44,0,0,1-.44.44h-1.41a.44.44,0,0,1-.44-.44l0-13.15a.45.45,0,0,1,.44-.44h1.54a.85.85,0,0,1,.38.19l3.14,5,3.19-5a.85.85,0,0,1,.38-.19h1.52a.44.44,0,0,1,.44.44V110.2a.44.44,0,0,1-.44.44h-1.43A.46.46,0,0,1,262.94,110.2Z" style="fill:#fc476e"/><path d="M266.7,105.84v-4.37a4.69,4.69,0,0,1,4.55-4.91h.24a4.69,4.69,0,0,1,4.56,4.91v4.37a4.69,4.69,0,0,1-4.56,4.89h-.24A4.69,4.69,0,0,1,266.7,105.84Zm4.55-7a2.38,2.38,0,0,0-2.24,2.6v4.37a2.36,2.36,0,0,0,2.24,2.58h.24a2.38,2.38,0,0,0,2.25-2.58v-4.37a2.4,2.4,0,0,0-2.25-2.6Z" style="fill:#fc476e"/><path d="M278.69,96.71h1.43a.37.37,0,0,1,.37.36v10.29a.39.39,0,0,1-.37.38h-1.41a.39.39,0,0,1-.38-.38V97.07A.37.37,0,0,1,278.69,96.71Zm0,11.71h1.43a.39.39,0,0,1,.37.37v1.43a.39.39,0,0,1-.37.38h-1.41a.39.39,0,0,1-.38-.38v-1.43A.39.39,0,0,1,278.69,108.42Z" style="fill:#fc476e"/><path d="M283.48,96.71h1.43a.38.38,0,0,1,.38.36v10.29a.39.39,0,0,1-.38.38H283.5a.39.39,0,0,1-.37-.38V97.07A.37.37,0,0,1,283.48,96.71Zm0,11.71h1.43a.39.39,0,0,1,.38.37v1.43a.39.39,0,0,1-.38.38H283.5a.39.39,0,0,1-.37-.38v-1.43A.39.39,0,0,1,283.48,108.42Z" style="fill:#fc476e"/><path d="M194.77,130.83a.42.42,0,0,1-.42.42H193a.44.44,0,0,1-.44-.42V118.27a.45.45,0,0,1,.42-.42h3.4a4.14,4.14,0,0,1,4.33,4v.51a4.14,4.14,0,0,1-4.33,4h-1.61Zm0-10.77v4.11h1.61a1.94,1.94,0,0,0,2.12-1.8v-.51a1.94,1.94,0,0,0-2.12-1.8Z" style="fill:#fc476e"/><path d="M203.8,126.38v4.45a.42.42,0,0,1-.42.42H202a.44.44,0,0,1-.44-.42V118.27a.45.45,0,0,1,.42-.42h3.4a4.14,4.14,0,0,1,4.33,4v.51a3.94,3.94,0,0,1-2.27,3.53l2.4,4.74a.4.4,0,0,1-.38.61H208a.65.65,0,0,1-.37-.23l-2.31-4.64Zm0-6.32v4.11h1.61a1.93,1.93,0,0,0,2.12-1.8v-.51a1.93,1.93,0,0,0-2.12-1.8Z" style="fill:#fc476e"/><path d="M210.75,126.65v-4.18a4.48,4.48,0,0,1,4.35-4.68h.23a4.48,4.48,0,0,1,4.34,4.68v4.18a4.47,4.47,0,0,1-4.34,4.66h-.23A4.47,4.47,0,0,1,210.75,126.65ZM215.1,120a2.28,2.28,0,0,0-2.15,2.48v4.18a2.26,2.26,0,0,0,2.15,2.46h.23a2.27,2.27,0,0,0,2.14-2.46v-4.18a2.29,2.29,0,0,0-2.14-2.48Z" style="fill:#fc476e"/><path d="M229.35,130.81v-8.72l-2.1,3.32a.67.67,0,0,1-.35.19h-1.2a.7.7,0,0,1-.36-.19l-2.1-3.29v8.71a.42.42,0,0,1-.42.42h-1.34a.42.42,0,0,1-.42-.42l0-12.56a.44.44,0,0,1,.42-.42h1.47a.84.84,0,0,1,.36.19l3,4.77,3-4.77a.78.78,0,0,1,.36-.19h1.45a.42.42,0,0,1,.42.42v12.54a.42.42,0,0,1-.42.42h-1.37A.44.44,0,0,1,229.35,130.81Z" style="fill:#fc476e"/><path d="M233,126.65v-4.18a4.47,4.47,0,0,1,4.34-4.68h.23a4.48,4.48,0,0,1,4.35,4.68v4.18a4.47,4.47,0,0,1-4.35,4.66h-.23A4.46,4.46,0,0,1,233,126.65Zm4.34-6.66a2.28,2.28,0,0,0-2.14,2.48v4.18a2.26,2.26,0,0,0,2.14,2.46h.23a2.27,2.27,0,0,0,2.15-2.46v-4.18a2.29,2.29,0,0,0-2.15-2.48Z" style="fill:#fc476e"/><path d="M244.39,117.94h1.36a.35.35,0,0,1,.36.33v9.83a.37.37,0,0,1-.36.36h-1.34a.37.37,0,0,1-.36-.36v-9.83A.34.34,0,0,1,244.39,117.94Zm0,11.17h1.36a.37.37,0,0,1,.36.35v1.37a.37.37,0,0,1-.36.36h-1.34a.37.37,0,0,1-.36-.36v-1.37A.37.37,0,0,1,244.39,129.11Z" style="fill:#fc476e"/><path d="M249,117.94h1.36a.35.35,0,0,1,.36.33v9.83a.37.37,0,0,1-.36.36H249a.37.37,0,0,1-.36-.36v-9.83A.34.34,0,0,1,249,117.94Zm0,11.17h1.36a.37.37,0,0,1,.36.35v1.37a.37.37,0,0,1-.36.36H249a.37.37,0,0,1-.36-.36v-1.37A.37.37,0,0,1,249,129.11Z" style="fill:#fc476e"/><path d="M253.55,117.94h1.36a.35.35,0,0,1,.36.33v9.83a.37.37,0,0,1-.36.36h-1.34a.37.37,0,0,1-.36-.36v-9.83A.34.34,0,0,1,253.55,117.94Zm0,11.17h1.36a.37.37,0,0,1,.36.35v1.37a.37.37,0,0,1-.36.36h-1.34a.37.37,0,0,1-.36-.36v-1.37A.37.37,0,0,1,253.55,129.11Z" style="fill:#fc476e"/><path d="M226.78,87.09a4.61,4.61,0,1,0-4.61,4.6A4.6,4.6,0,0,0,226.78,87.09Z" style="fill:#f7c92b"/><path d="M222.17,82.49a4.52,4.52,0,0,0-1.34.2,4.6,4.6,0,0,1,0,8.8,4.52,4.52,0,0,0,1.34.2,4.6,4.6,0,1,0,0-9.2Z" style="fill:#f2b51d"/><path d="M222.71,60.23A2.73,2.73,0,1,1,224.85,57,2.74,2.74,0,0,1,222.71,60.23Z" style="fill:#f7c92b"/><path d="M224.85,57a2.74,2.74,0,0,0-3.22-2.14l-.4.11a2.73,2.73,0,0,1,0,5.13,2.72,2.72,0,0,0,3.62-3.1Z" style="fill:#f2b51d"/><path d="M233.59,86.32H210.75a3.7,3.7,0,0,1-3.7-3.69,3.74,3.74,0,0,1,1.39-2.91l.74-.59a7.23,7.23,0,0,0,2.68-5.61V69.64a10.39,10.39,0,0,1,20.78,0v4a7.22,7.22,0,0,0,2.59,5.53l.71.59a3.71,3.71,0,0,1,1.35,2.87v0A3.7,3.7,0,0,1,233.59,86.32Z" style="fill:#f7e249"/><path d="M235.94,79.72l-.71-.59a7.22,7.22,0,0,1-2.59-5.53v-4a10.4,10.4,0,0,0-13.32-10,10.38,10.38,0,0,1,7.46,10v4a7.22,7.22,0,0,0,2.59,5.53l.72.59a3.74,3.74,0,0,1,1.34,2.87v0a3.69,3.69,0,0,1-3.7,3.69h5.86a3.7,3.7,0,0,0,3.7-3.69v0A3.71,3.71,0,0,0,235.94,79.72Z" style="fill:#f7c92b"/><path d="M240.84,61.23a8.92,8.92,0,1,0-8.91,8.9A8.91,8.91,0,0,0,240.84,61.23Z" style="fill:#fc476e"/><path d="M234.32,52.66a8.9,8.9,0,0,1-7.55,15.83,8.9,8.9,0,1,0,7.55-15.83Z" style="fill:#cc2b5a"/><path d="M231.93,65.39a.62.62,0,0,1-.62-.62v-6l-.24.22a.62.62,0,0,1-.88-.05.61.61,0,0,1,.05-.87l1.27-1.16a.62.62,0,0,1,1,.46v7.4A.62.62,0,0,1,231.93,65.39Z" style="fill:#e3faff"/></svg>