<?xml version="1.0" encoding="utf-8"?>
<!-- Generator: Adobe Illustrator 23.0.1, SVG Export Plug-In . SVG Version: 6.00 Build 0)  -->
<svg version="1.1" id="Layer_1" xmlns="http://www.w3.org/2000/svg" xmlns:xlink="http://www.w3.org/1999/xlink" x="0px" y="0px"
	 viewBox="0 0 450 350" style="enable-background:new 0 0 450 350;" xml:space="preserve">
<style type="text/css">
	.st0{opacity:0.46;fill:#EBFFED;}
	.st1{fill:#28A745;}
	.st2{fill:#FC476E;}
	.st3{fill:#F7C92B;}
	.st4{fill:#F2B51D;}
	.st5{fill:#F7E249;}
	.st6{fill:#CC2B5A;}
	.st7{fill:#E3FAFF;}
</style>
<title>promo</title>
<path class="st0" d="M217.1,314.2c-5.6,0-10.8-3-13.7-7.9c-14.1-25-43.5-37.1-71.1-29.4c-1.4,0.4-2.9,0.6-4.4,0.6
	c-4.1,0-8.1-1.6-11.1-4.5c-3.9-3.8-5.4-9.3-3.9-14.6c7.8-27.8-4.4-57.3-29.6-71.3c-7.2-3.9-9.9-13-6-20.2c1.4-2.5,3.5-4.6,6-6
	c25.2-14,37.5-43.6,29.6-71.3c-1.5-5.2,0-10.8,3.9-14.5c2.9-2.9,6.9-4.5,11.1-4.5c1.5,0,2.9,0.2,4.4,0.6c5.5,1.5,11.1,2.3,16.8,2.3
	c22.5,0,43.2-12.1,54.3-31.7c4.4-7.5,14-10.1,21.6-5.7c2.4,1.4,4.4,3.4,5.7,5.7c11.1,19.5,31.8,31.6,54.2,31.7
	c5.7,0,11.3-0.8,16.8-2.3c1.4-0.4,2.9-0.6,4.3-0.6c4.1,0,8.1,1.6,11.1,4.5c3.9,3.8,5.4,9.3,3.9,14.5c-7.8,27.8,4.4,57.3,29.6,71.3
	c7.2,3.9,9.9,12.9,6,20.2c-1.4,2.6-3.5,4.7-6,6c-25.2,14.1-37.4,43.6-29.6,71.3c1.5,5.2,0,10.8-3.9,14.6c-2.9,2.9-6.9,4.5-11.1,4.5
	c-1.5,0-2.9-0.2-4.3-0.6c-27.6-7.7-57,4.4-71.1,29.4C227.8,311.2,222.6,314.2,217.1,314.2L217.1,314.2z"/>
<path class="st1" d="M351.1,124.8c-3.5-2-5.3-6.1-4.2-10c5.5-19.7-0.1-40.8-14.6-55.2c-14.6-14.5-35.9-20-55.7-14.4
	c-3.9,1.1-8-0.6-9.9-4.1c-15.6-27.4-50.5-37-78-21.4c-8.9,5.1-16.3,12.5-21.4,21.4c-2,3.5-6.1,5.2-9.9,4.1
	c-19.8-5.5-41.1,0-55.7,14.4c-14.5,14.4-20,35.5-14.6,55.2c1.1,3.9-0.6,8-4.2,10c-27.2,15.1-37,49.4-21.9,76.7
	c5.1,9.2,12.7,16.8,21.9,21.9c3.5,2,5.3,6.1,4.2,10c-5.5,19.7,0.1,40.8,14.6,55.2c14.6,14.5,35.9,20,55.7,14.4
	c3.9-1.1,7.9,0.6,9.9,4.1c15.6,27.4,50.5,37,78,21.4c8.9-5.1,16.3-12.5,21.4-21.4c2-3.5,6.1-5.2,9.9-4.1c19.8,5.5,41.1,0,55.7-14.4
	c14.5-14.4,20.1-35.5,14.6-55.2c-1.1-3.9,0.6-8,4.2-10c27.2-15.1,37-49.4,21.9-76.7C367.9,137.5,360.3,129.9,351.1,124.8z
	 M344.6,211.8c-8.9,5-13.2,15.4-10.5,25.2c4.2,15-0.1,31.2-11.2,42.2c-11.2,11.1-27.6,15.3-42.8,11.1c-9.7-2.7-20.1,1.5-25,10.4
	c-12,21-38.8,28.4-59.8,16.4c-6.8-3.9-12.5-9.5-16.4-16.4c-5-8.8-15.3-13.1-25.1-10.4c-15.2,4.3-31.5,0-42.8-11.1
	c-11.1-11-15.4-27.1-11.2-42.2c2.8-9.8-1.5-20.2-10.4-25.2c-20.8-11.5-28.3-37.8-16.8-58.6c3.9-7.1,9.7-12.9,16.8-16.8
	c8.9-5,13.2-15.4,10.4-25.2c-4.2-15,0.1-31.2,11.2-42.2c11.2-11.1,27.6-15.3,42.8-11.1c9.7,2.7,20.1-1.5,25.1-10.3
	c12-21,38.8-28.4,59.8-16.3c6.8,3.9,12.5,9.5,16.3,16.3c5,8.8,15.3,13.1,25.1,10.3c15.2-4.3,31.5,0,42.8,11.1
	c11.1,11,15.4,27.1,11.2,42.2c-2.8,9.8,1.6,20.2,10.5,25.2c20.8,11.5,28.3,37.8,16.8,58.6C357.5,202.1,351.7,207.9,344.6,211.8
	L344.6,211.8z"/>
<path class="st1" d="M149.6,141.8h2.1c0.3,0,0.6,0.3,0.6,0.6v19.4c0,0.3-0.3,0.6-0.6,0.6h-2.1c-0.3,0-0.6-0.3-0.6-0.6v-19.4
	C149,142.1,149.3,141.8,149.6,141.8z"/>
<path class="st1" d="M159.7,148.1c2.9,0,5.2,2.4,5.2,5.3c0,0,0,0,0,0v8.5c0,0.3-0.2,0.6-0.5,0.6h-2c-0.3,0-0.6-0.3-0.6-0.6v-8.4
	c0-1.2-0.9-2.2-2.1-2.2c0,0,0,0,0,0c-1.2,0-2.1,1-2.1,2.2v8.4c0,0.3-0.2,0.6-0.6,0.6h-2c-0.3,0-0.6-0.3-0.6-0.6v-13.1
	c0-0.3,0.2-0.6,0.6-0.6h2c0.2,0,0.4,0.2,0.5,0.4C158.2,148.3,159,148.1,159.7,148.1z"/>
<path class="st1" d="M166.7,157.3v-5.9h-0.5c-0.3,0-0.5-0.3-0.5-0.6v-2c0-0.3,0.2-0.5,0.5-0.5h0.5v-2.6c0-0.3,0.2-0.5,0.5-0.6h2
	c0.3,0,0.5,0.3,0.5,0.6v2.6h3.9c0.3,0,0.5,0.2,0.6,0.5v2c0,0.3-0.3,0.5-0.6,0.6h-3.9v5.9c0,1.2,1,2.2,2.2,2.2h0.6
	c0.5,0,0.9-0.4,1.2-0.6c0.2-0.2,0.6-0.2,0.8,0c0.5,0.5,0.9,1,1.3,1.3c0.2,0.3,0.2,0.7-0.1,0.9c-0.8,0.9-2,1.4-3.2,1.4h-0.6
	C169,162.4,166.7,160.1,166.7,157.3z"/>
<path class="st1" d="M181.8,148.2h0.6c1.2,0.1,2.3,0.6,3.2,1.3c0.3,0.3,0.3,0.7,0,1c-0.4,0.5-0.8,0.9-1.3,1.4
	c-0.3,0.2-0.5,0.2-0.7,0c-0.3-0.3-0.8-0.6-1.2-0.6h-0.6c-1.2,0-2.2,1-2.2,2.2v8.5c0,0.3-0.2,0.5-0.5,0.5h-2c-0.3,0-0.5-0.2-0.5-0.5
	v-13.1c0-0.3,0.2-0.5,0.5-0.5h2c0.3,0,0.5,0.2,0.5,0.5C180.3,148.3,181,148.2,181.8,148.2z"/>
<path class="st1" d="M186.3,153.4c-0.1-2.9,2.1-5.4,5-5.5s5.4,2.1,5.5,5c0,0.2,0,0.3,0,0.5v3.8c0.1,2.9-2.1,5.4-5,5.5
	c-2.9,0.1-5.4-2.1-5.5-5c0-0.2,0-0.3,0-0.5L186.3,153.4z M189.4,153.4v3.8c-0.1,1.2,0.8,2.2,2,2.3c1.2,0.1,2.2-0.8,2.3-2
	c0-0.1,0-0.2,0-0.3v-3.8c0.1-1.2-0.8-2.2-2-2.3c-1.2-0.1-2.2,0.8-2.3,2C189.4,153.2,189.4,153.3,189.4,153.4L189.4,153.4z"/>
<path class="st1" d="M197.8,157.3v-3.8c0-2.9,2.3-5.2,5.2-5.3c0,0,0,0,0,0c0.8,0,1.5,0.2,2.2,0.5v-6c0-0.3,0.3-0.5,0.6-0.5h1.9
	c0.3,0,0.5,0.2,0.6,0.5v19.2c0,0.3-0.3,0.5-0.6,0.5h-2c-0.3,0-0.5-0.2-0.5-0.4c-0.7,0.3-1.4,0.5-2.2,0.5
	C200.1,162.5,197.8,160.1,197.8,157.3C197.8,157.3,197.8,157.3,197.8,157.3z M200.9,153.4v3.8c-0.1,1.2,0.8,2.2,2,2.3
	c1.2,0.1,2.2-0.8,2.3-2c0-0.1,0-0.2,0-0.3v-3.8c0.1-1.2-0.8-2.2-2-2.3c-1.2-0.1-2.2,0.8-2.3,2C200.8,153.2,200.8,153.3,200.9,153.4z
	"/>
<path class="st1" d="M209.8,157.3v-8.5c0-0.3,0.2-0.5,0.5-0.5h2c0.3,0,0.5,0.3,0.5,0.5v8.5c-0.1,1.2,0.8,2.2,2,2.3
	c1.2,0.1,2.2-0.8,2.3-2c0-0.1,0-0.2,0-0.3v-8.5c0-0.3,0.3-0.5,0.6-0.5h2c0.3,0,0.5,0.2,0.6,0.5v13.1c0,0.3-0.3,0.5-0.6,0.5h-2
	c-0.3,0-0.5-0.2-0.6-0.4c-0.7,0.3-1.4,0.5-2.2,0.5C212.1,162.5,209.8,160.2,209.8,157.3C209.8,157.3,209.8,157.3,209.8,157.3z"/>
<path class="st1" d="M224.7,153.4v3.8c0,1.2,1,2.2,2.2,2.2h0.6c0.4-0.1,0.8-0.3,1.2-0.6c0.3-0.2,0.6-0.2,0.9,0.1l1.3,1.2
	c0.2,0.3,0.2,0.7-0.1,0.9c-1,1-2.4,1.6-3.9,1.4c-2.9,0.1-5.2-2.2-5.3-5.1c0,0,0-0.1,0-0.1v-3.8c0-2.9,2.3-5.2,5.2-5.3c0,0,0,0,0,0
	h0.6c1.2,0.1,2.3,0.6,3.2,1.3c0.3,0.3,0.3,0.6,0.1,0.9c-0.5,0.6-1,1-1.2,1.4c-0.3,0.3-0.8,0.1-1,0c-0.5-0.4-1.1-0.5-1.7-0.5
	C225.6,151.3,224.7,152.3,224.7,153.4z"/>
<path class="st1" d="M232.2,157.3v-5.9h-0.5c-0.3,0-0.5-0.3-0.6-0.6v-2c0-0.3,0.3-0.5,0.6-0.5h0.5v-2.6c0-0.3,0.3-0.5,0.6-0.6h2
	c0.3,0,0.5,0.3,0.5,0.6v2.6h3.9c0.3,0,0.5,0.2,0.5,0.5v2c0,0.3-0.2,0.5-0.5,0.6h-3.9v5.9c0,1.2,1,2.2,2.2,2.2h0.6
	c0.5,0,0.9-0.4,1.2-0.6c0.2-0.2,0.6-0.2,0.8,0c0.5,0.5,0.9,1,1.3,1.3c0.2,0.3,0.2,0.7-0.1,0.9c-0.8,0.9-2,1.4-3.2,1.4h-0.6
	C234.5,162.4,232.2,160.1,232.2,157.3z"/>
<path class="st1" d="M241.7,153.4c0-2.9,2.4-5.3,5.3-5.3s5.3,2.4,5.3,5.3v3.8c0,2.9-2.4,5.3-5.3,5.3s-5.3-2.4-5.3-5.3V153.4z
	 M244.8,153.4v3.8c0,1.2,1,2.1,2.1,2.1c1.2,0,2.1-1,2.1-2.1v0v-3.8c0-1.2-0.9-2.2-2.1-2.2c0,0,0,0,0,0
	C245.8,151.2,244.9,152.2,244.8,153.4C244.8,153.4,244.8,153.4,244.8,153.4z"/>
<path class="st1" d="M258.8,148.2h0.6c1.2,0.1,2.3,0.6,3.2,1.3c0.3,0.3,0.3,0.7,0,1c0,0,0,0,0,0c-0.4,0.5-0.8,0.9-1.3,1.4
	c-0.3,0.2-0.6,0.2-0.7,0c-0.3-0.3-0.8-0.6-1.2-0.6h-0.6c-1.2,0-2.2,1-2.2,2.2c0,0,0,0,0,0v8.5c0,0.3-0.2,0.5-0.5,0.5h-2
	c-0.3,0-0.5-0.2-0.6-0.5v-13.1c0-0.3,0.2-0.5,0.5-0.5h2c0.3,0,0.5,0.2,0.5,0.5C257.3,148.3,258.1,148.2,258.8,148.2z"/>
<path class="st1" d="M264.7,168.5h-0.1c-0.3,0-0.5-0.2-0.5-0.5v-2c0-0.3,0.3-0.5,0.5-0.5h0.1c1.7,0,2.1-2.8,2.4-3.8l-4.3-12.7
	c-0.1-0.3,0-0.6,0.3-0.7c0.1,0,0.2,0,0.3,0h2.1c0.2,0,0.4,0.2,0.5,0.4l2.8,8.3l2.8-8.3c0.1-0.2,0.3-0.3,0.5-0.4h2.2
	c0.6,0,0.7,0.5,0.6,0.9c-0.6,1.9-5.6,16-5.6,16.3C268.4,167.3,266.7,168.5,264.7,168.5z"/>
<path class="st1" d="M153.8,174.8c2.9,0,5.2,2.4,5.3,5.3v3.8c0,2.9-2.4,5.2-5.3,5.2c-0.7,0-1.5-0.2-2.2-0.5v6.1
	c0,0.3-0.2,0.5-0.5,0.5h-2c-0.3,0-0.5-0.2-0.6-0.5v-19.3c0-0.3,0.2-0.5,0.5-0.5h2c0.3,0,0.5,0.2,0.5,0.5
	C152.3,175,153,174.8,153.8,174.8z M151.6,180v3.8c-0.1,1.2,0.8,2.2,2,2.3c1.2,0.1,2.2-0.8,2.3-2c0-0.1,0-0.2,0-0.3v-3.8
	c0.1-1.2-0.8-2.2-2-2.3c-1.2-0.1-2.2,0.8-2.3,2C151.6,179.8,151.6,179.9,151.6,180L151.6,180z"/>
<path class="st1" d="M165.6,174.8h0.6c1.2,0.1,2.3,0.6,3.2,1.3c0.3,0.3,0.3,0.7,0,1c-0.4,0.5-0.8,0.9-1.3,1.4
	c-0.3,0.2-0.5,0.2-0.7,0c-0.3-0.3-0.8-0.6-1.2-0.6h-0.6c-1.2,0-2.2,1-2.2,2.2v8.5c0,0.3-0.2,0.5-0.5,0.5h-2c-0.3,0-0.5-0.2-0.6-0.5
	v-13.1c0-0.3,0.2-0.5,0.5-0.5h2c0.3,0,0.5,0.2,0.5,0.5C164.1,175,164.9,174.8,165.6,174.8z"/>
<path class="st1" d="M171.1,169.9h2c0.3,0,0.5,0.3,0.5,0.6v2c0,0.3-0.2,0.5-0.5,0.5h-2c-0.3,0-0.5-0.2-0.6-0.5v-2
	C170.6,170.2,170.8,169.9,171.1,169.9z M171.1,174.8h2c0.3,0,0.5,0.3,0.5,0.5v13.1c0,0.3-0.2,0.5-0.5,0.5h-2c-0.3,0-0.5-0.3-0.5-0.5
	v-13.1C170.7,175.1,170.9,174.9,171.1,174.8z"/>
<path class="st1" d="M178.3,180v3.8c0,1.2,1,2.2,2.2,2.2h0.6c0.4-0.1,0.8-0.3,1.2-0.6c0.3-0.2,0.6-0.2,0.9,0.1l1.3,1.3
	c0.2,0.3,0.2,0.7-0.1,0.9c-1,1-2.4,1.6-3.9,1.4c-2.9,0-5.2-2.3-5.2-5.2v-3.8c0-2.9,2.3-5.2,5.2-5.3h0.7c1.2,0.1,2.3,0.6,3.2,1.3
	c0.3,0.3,0.3,0.6,0.1,0.9c-0.5,0.6-1,1-1.2,1.4c-0.3,0.3-0.7,0.1-1,0c-0.5-0.4-1.1-0.5-1.7-0.5C179.3,177.9,178.3,178.8,178.3,180z"
	/>
<path class="st1" d="M190.5,186h1.2c0.4-0.1,0.8-0.3,1.2-0.6c0.3-0.2,0.5-0.3,0.8,0c0.4,0.4,1,1,1.4,1.4c0.2,0.2,0.3,0.5,0.1,0.8
	c0,0,0,0-0.1,0.1c-0.9,0.9-2.1,1.4-3.3,1.4h-1.2c-2.9,0-5.2-2.3-5.2-5.2c0,0,0,0,0,0V180c-0.3-2.9,1.8-5.4,4.7-5.7
	c2.9-0.3,5.4,1.8,5.7,4.7c0,0.3,0,0.7,0,1v2.9c0,0.3-0.2,0.5-0.5,0.5h-6.9v0.4C188.3,185.1,189.3,186,190.5,186
	C190.5,186,190.5,186,190.5,186z M188.3,180v0.3h4.3V180c0.1-1.2-0.8-2.2-2-2.3c-1.2-0.1-2.2,0.8-2.3,2
	C188.3,179.8,188.3,179.9,188.3,180L188.3,180z"/>
<path class="st1" d="M125.8,205.6c0.8,0,1.5,0.3,2.1,0.8c0.6-0.5,1.3-0.8,2.1-0.8c1.8,0,3.2,1.4,3.2,3.2v6.2c0,0.2-0.2,0.4-0.4,0.4
	h-1.4c-0.2,0-0.4-0.2-0.4-0.4c0,0,0,0,0,0v-6.2c0.2-0.6-0.1-1.2-0.7-1.4c-0.6-0.2-1.2,0.1-1.4,0.7c-0.1,0.2-0.1,0.5,0,0.7v6.2
	c0,0.2-0.2,0.4-0.4,0.4c0,0,0,0,0,0h-1.4c-0.2,0-0.4-0.2-0.4-0.4l0,0v-6.2c0-0.6-0.5-1-1-1c-0.6,0-1,0.5-1,1v6.2
	c0,0.2-0.2,0.4-0.4,0.4c0,0,0,0,0,0H123c-0.2,0-0.4-0.2-0.4-0.4l0,0v-8.9c0-0.2,0.2-0.4,0.4-0.4h1.4c0.1,0,0.2,0.1,0.3,0.2
	C125,205.7,125.4,205.6,125.8,205.6z"/>
<path class="st1" d="M134,209.3c0-2,1.6-3.6,3.6-3.6c2,0,3.6,1.6,3.6,3.6c0,0,0,0,0,0v2.6c0,2-1.6,3.6-3.6,3.6c-2,0-3.6-1.6-3.6-3.6
	c0,0,0,0,0,0V209.3z M136.1,209.3v2.6c0,0.8,0.7,1.5,1.5,1.5c0.8,0,1.5-0.7,1.5-1.5c0,0,0,0,0,0v-2.6c0-0.8-0.7-1.5-1.5-1.5
	C136.8,207.8,136.1,208.4,136.1,209.3C136.1,209.3,136.1,209.3,136.1,209.3z"/>
<path class="st1" d="M145.7,205.6c2,0,3.6,1.6,3.6,3.6c0,0,0,0,0,0v5.8c0,0.2-0.2,0.4-0.4,0.4c0,0,0,0,0,0h-1.4
	c-0.2,0-0.4-0.2-0.4-0.4v-5.8c0-0.8-0.7-1.5-1.5-1.5c-0.8,0-1.5,0.7-1.5,1.5c0,0,0,0,0,0v5.8c0,0.2-0.2,0.4-0.4,0.4c0,0,0,0,0,0
	h-1.4c-0.2,0-0.4-0.2-0.4-0.4l0,0v-8.9c0-0.2,0.2-0.4,0.4-0.4h1.4c0.2,0,0.3,0.1,0.4,0.3C144.6,205.8,145.1,205.7,145.7,205.6z"/>
<path class="st1" d="M150.5,211.9v-4.1h-0.3c-0.2,0-0.4-0.2-0.4-0.4v-1.4c0-0.2,0.2-0.4,0.4-0.4h0.3v-1.8c0-0.2,0.2-0.4,0.4-0.4h1.4
	c0.2,0,0.4,0.2,0.4,0.4c0,0,0,0,0,0v1.8h2.6c0.2,0,0.4,0.2,0.4,0.4v1.4c0,0.2-0.2,0.4-0.4,0.4h-2.6v4.1c0,0.8,0.7,1.5,1.5,1.5h0.4
	c0.3,0,0.6-0.3,0.8-0.4c0.2-0.1,0.4-0.1,0.6,0c0.3,0.3,0.6,0.7,0.9,0.9c0.2,0.2,0.2,0.4,0,0.6c0,0,0,0,0,0c-0.6,0.6-1.4,1-2.2,1
	h-0.4C152.1,215.4,150.5,213.9,150.5,211.9C150.5,211.9,150.5,211.9,150.5,211.9z"/>
<path class="st1" d="M160.8,207.8c-0.8,0-1.5,0.7-1.5,1.5v5.8c0,0.2-0.2,0.4-0.4,0.4h-1.4c-0.2,0-0.4-0.2-0.4-0.4v-13.2
	c0-0.2,0.2-0.4,0.4-0.4h1.4c0.2,0,0.3,0.2,0.4,0.4v4.1c0.5-0.2,1-0.3,1.5-0.3c2,0,3.6,1.6,3.6,3.6c0,0,0,0,0,0v5.8
	c0,0.2-0.2,0.4-0.4,0.4h-1.3c-0.2,0-0.4-0.2-0.4-0.4v-5.8C162.3,208.4,161.6,207.8,160.8,207.8C160.8,207.8,160.8,207.8,160.8,207.8
	z"/>
<path class="st1" d="M165.4,201.9c0-0.2,0.2-0.4,0.4-0.4h1.3c0.2,0,0.3,0.2,0.4,0.4v10.5c0,0.6,0.5,1.1,1.1,1.1h0.3
	c0.2,0,0.4,0.2,0.4,0.4v0v1.3c0,0.2-0.2,0.4-0.4,0.4c0,0,0,0,0,0h-0.3c-1.7,0-3.1-1.4-3.1-3.1L165.4,201.9z"/>
<path class="st1" d="M170.4,219.6L170.4,219.6c-0.3,0-0.4-0.2-0.4-0.4v-1.4c0-0.2,0.2-0.3,0.4-0.4h0.1c1.2,0,1.4-2,1.6-2.6l-3-8.7
	c-0.1-0.2,0-0.4,0.2-0.5c0.1,0,0.1,0,0.2,0h1.4c0.2,0,0.3,0.1,0.4,0.3l1.9,5.7l1.9-5.7c0.1-0.1,0.2-0.2,0.3-0.3h1.5
	c0.4,0,0.5,0.3,0.4,0.6c-0.4,1.3-3.8,11-3.9,11.1C173,218.7,171.8,219.6,170.4,219.6z"/>
<path class="st1" d="M183.2,211.9v-4.1h-0.3c-0.2,0-0.4-0.2-0.4-0.4v-1.4c0-0.2,0.2-0.4,0.4-0.4h0.3v-1.8c0-0.2,0.2-0.4,0.4-0.4h1.4
	c0.2,0,0.4,0.2,0.4,0.4c0,0,0,0,0,0v1.8h2.6c0.2,0,0.4,0.2,0.4,0.4v1.4c0,0.2-0.2,0.4-0.4,0.4h-2.6v4.1c0,0.8,0.7,1.5,1.5,1.5h0.4
	c0.3,0,0.6-0.3,0.8-0.4c0.2-0.1,0.4-0.1,0.6,0c0.3,0.3,0.6,0.7,0.9,0.9c0.2,0.2,0.2,0.4,0,0.6c0,0,0,0,0,0c-0.6,0.6-1.4,1-2.2,1
	h-0.4C184.8,215.4,183.2,213.9,183.2,211.9C183.2,211.9,183.2,211.9,183.2,211.9z"/>
<path class="st1" d="M197.4,209.2c0.2,0.6,0.4,1.3,0.5,1.8l1.4-5.1c0.1-0.1,0.2-0.2,0.4-0.3h1.4c0.2,0,0.4,0.1,0.4,0.3
	c0,0.1,0,0.1,0,0.2l-2.5,8.9c-0.1,0.2-0.2,0.3-0.4,0.3h-1.4c-0.2,0-0.3-0.1-0.4-0.3l-1.5-5.3l-1.5,5.3c-0.1,0.2-0.2,0.3-0.4,0.3
	h-1.4c-0.2,0-0.3-0.1-0.4-0.3l-2.5-8.9c-0.1-0.2,0-0.4,0.2-0.4c0.1,0,0.1,0,0.2,0h1.4c0.2,0,0.3,0.1,0.4,0.3l1.4,5.1l1.4-5.1
	c0.1-0.1,0.2-0.2,0.4-0.3h1.6l0.3,0.6c0-0.1,0-0.1,0.1-0.2C196.9,207.2,197.1,208.2,197.4,209.2z"/>
<path class="st1" d="M201.8,209.3c0-2,1.6-3.6,3.6-3.6c2,0,3.6,1.6,3.6,3.6c0,0,0,0,0,0v2.6c0,2-1.6,3.6-3.6,3.6
	c-2,0-3.6-1.6-3.6-3.6V209.3z M203.9,209.3v2.6c0,0.8,0.7,1.5,1.5,1.5c0.8,0,1.5-0.7,1.5-1.5v-2.6c0-0.8-0.7-1.5-1.5-1.5
	C204.6,207.8,203.9,208.4,203.9,209.3C203.9,209.3,203.9,209.3,203.9,209.3z"/>
<path class="st1" d="M218.5,205.7c2,0,3.6,1.6,3.6,3.6v2.6c0,2-1.6,3.6-3.6,3.6c-0.5,0-1-0.1-1.5-0.3v4.1c0,0.2-0.2,0.3-0.4,0.4
	h-1.4c-0.2,0-0.4-0.2-0.4-0.4c0,0,0,0,0,0v-13.2c0-0.2,0.2-0.4,0.4-0.4h1.4c0.2,0,0.3,0.1,0.4,0.3
	C217.5,205.8,218,205.7,218.5,205.7z M217.1,209.3v2.6c0,0.8,0.7,1.5,1.5,1.5c0.8,0,1.5-0.7,1.5-1.5v-2.6c0-0.8-0.7-1.5-1.5-1.5
	C217.7,207.8,217.1,208.4,217.1,209.3C217.1,209.3,217.1,209.3,217.1,209.3z"/>
<path class="st1" d="M226.6,215.4h-0.8c-1.7,0-3.2-1.4-3.2-3.2c0-1.7,1.4-3.2,3.2-3.2c0,0,0,0,0,0h0.8c0.4,0,0.8,0.1,1.1,0.2v-0.5
	c0-0.5-0.4-0.9-0.9-1h-1.2c-0.3,0-0.6,0.2-0.8,0.4c-0.2,0.2-0.4,0.2-0.6,0s-0.6-0.6-0.9-0.9c-0.3-0.3-0.2-0.4,0-0.6
	c0.6-0.6,1.4-1,2.2-1h1.2c1.7,0.1,3,1.4,3,3.1v6.2c0,0.2-0.2,0.4-0.4,0.4h-1.3c-0.1,0-0.3-0.1-0.3-0.2
	C227.4,215.3,227,215.4,226.6,215.4z M224.8,212.3c0,0.6,0.5,1.1,1.1,1.1h0.8c0.6,0,1.1-0.5,1.1-1.1s-0.5-1.1-1.1-1.1h-0.8
	C225.3,211.1,224.8,211.6,224.8,212.3z"/>
<path class="st1" d="M231.5,219.6L231.5,219.6c-0.3,0-0.4-0.2-0.4-0.4v-1.4c0-0.2,0.2-0.3,0.4-0.4h0.1c1.2,0,1.4-2,1.6-2.6l-2.9-8.7
	c-0.1-0.2,0-0.4,0.2-0.5c0.1,0,0.1,0,0.2,0h1.4c0.2,0,0.3,0.1,0.4,0.3l1.9,5.7l1.9-5.7c0.1-0.1,0.2-0.2,0.3-0.3h1.5
	c0.4,0,0.5,0.3,0.4,0.6c-0.4,1.3-3.8,11-3.9,11.1C234.2,218.7,232.9,219.6,231.5,219.6z"/>
<path class="st1" d="M242.3,205.6c0.8,0,1.5,0.3,2.1,0.8c0.6-0.5,1.3-0.8,2.1-0.8c1.8,0,3.2,1.4,3.2,3.2v6.2c0,0.2-0.2,0.4-0.4,0.4
	h-1.4c-0.2,0-0.4-0.2-0.4-0.4c0,0,0,0,0,0v-6.2c0.2-0.6-0.1-1.2-0.7-1.4c-0.6-0.2-1.2,0.1-1.4,0.7c-0.1,0.2-0.1,0.5,0,0.7v6.2
	c0,0.2-0.2,0.4-0.4,0.4c0,0,0,0,0,0h-1.4c-0.2,0-0.4-0.2-0.4-0.4l0,0v-6.2c0-0.6-0.5-1-1-1c-0.6,0-1,0.5-1,1v6.2
	c0,0.2-0.2,0.4-0.4,0.4c0,0,0,0,0,0h-1.4c-0.2,0-0.4-0.2-0.4-0.4l0,0v-8.9c0-0.2,0.2-0.4,0.4-0.4h1.4c0.1,0,0.2,0.1,0.3,0.2
	C241.5,205.7,241.9,205.6,242.3,205.6z"/>
<path class="st1" d="M254.1,213.4h0.8c0.3-0.1,0.6-0.2,0.8-0.4c0.2-0.1,0.4-0.2,0.5,0s0.7,0.7,0.9,1c0.2,0.1,0.2,0.4,0,0.5
	c0,0,0,0,0,0c-0.6,0.6-1.4,1-2.2,1h-0.8c-2,0-3.6-1.6-3.6-3.6l0,0v-2.6c0-2,1.6-3.6,3.6-3.6c2,0,3.6,1.6,3.6,3.6c0,0,0,0,0,0v2
	c0,0.2-0.2,0.4-0.4,0.4h-4.7v0.3C252.7,212.7,253.3,213.3,254.1,213.4z M252.6,209.3v0.3h3v-0.2c0-0.8-0.7-1.5-1.5-1.5
	C253.3,207.8,252.6,208.5,252.6,209.3C252.6,209.3,252.6,209.3,252.6,209.3L252.6,209.3z"/>
<path class="st1" d="M262.2,205.6c2,0,3.6,1.6,3.6,3.6c0,0,0,0,0,0v5.8c0,0.2-0.2,0.4-0.4,0.4c0,0,0,0,0,0H264
	c-0.2,0-0.4-0.2-0.4-0.4v-5.8c0-0.8-0.7-1.5-1.5-1.5s-1.5,0.7-1.5,1.5v5.8c0,0.2-0.2,0.4-0.4,0.4c0,0,0,0,0,0H259
	c-0.2,0-0.4-0.2-0.4-0.4v-8.9c0-0.2,0.2-0.4,0.4-0.4h1.4c0.2,0,0.3,0.1,0.4,0.3C261.2,205.8,261.7,205.7,262.2,205.6z"/>
<path class="st1" d="M266.9,211.9v-4.1h-0.3c-0.2,0-0.4-0.2-0.4-0.4v-1.4c0-0.2,0.2-0.4,0.4-0.4h0.3v-1.8c0-0.2,0.2-0.4,0.4-0.4h1.4
	c0.2,0,0.4,0.2,0.4,0.4c0,0,0,0,0,0v1.8h2.6c0.2,0,0.4,0.2,0.4,0.4v1.4c0,0.2-0.2,0.4-0.4,0.4H269v4.1c0,0.8,0.7,1.5,1.5,1.5h0.4
	c0.3,0,0.6-0.3,0.8-0.4c0.2-0.1,0.4-0.1,0.6,0c0.3,0.3,0.6,0.7,0.9,0.9c0.2,0.2,0.2,0.4,0,0.6c0,0,0,0,0,0c-0.6,0.6-1.4,1-2.2,1
	h-0.4C268.6,215.4,266.9,213.9,266.9,211.9C266.9,211.9,266.9,211.9,266.9,211.9z"/>
<path class="st1" d="M282.4,205.7c2,0,3.6,1.6,3.6,3.6v2.6c0,2-1.6,3.6-3.6,3.6c-0.5,0-1-0.1-1.5-0.3v4.1c0,0.2-0.2,0.3-0.4,0.4
	h-1.4c-0.2,0-0.4-0.2-0.4-0.4c0,0,0,0,0,0v-13.2c0-0.2,0.2-0.4,0.4-0.4h1.4c0.2,0,0.3,0.1,0.4,0.3
	C281.3,205.8,281.8,205.7,282.4,205.7z M280.9,209.3v2.6c0,0.8,0.7,1.5,1.5,1.5c0.8,0,1.5-0.7,1.5-1.5c0,0,0,0,0,0v-2.6
	c0-0.8-0.7-1.5-1.5-1.5C281.5,207.8,280.9,208.4,280.9,209.3C280.9,209.3,280.9,209.3,280.9,209.3z"/>
<path class="st1" d="M286.9,201.9c0-0.2,0.2-0.4,0.4-0.4h1.4c0.2,0,0.3,0.2,0.4,0.4v10.5c0,0.6,0.5,1.1,1.1,1.1h0.3
	c0.2,0,0.4,0.2,0.4,0.4v0v1.3c0,0.2-0.2,0.4-0.4,0.4c0,0,0,0,0,0h-0.3c-1.7,0-3.1-1.4-3.1-3.1L286.9,201.9z"/>
<path class="st1" d="M294.7,215.4h-0.8c-1.7,0-3.2-1.4-3.2-3.2c0-1.7,1.4-3.2,3.2-3.2c0,0,0,0,0,0h0.8c0.4,0,0.8,0.1,1.1,0.2v-0.5
	c0-0.5-0.4-0.9-0.9-1h-1.2c-0.3,0-0.6,0.2-0.8,0.4c-0.2,0.2-0.4,0.2-0.6,0s-0.6-0.6-0.9-0.9c-0.3-0.3-0.2-0.4,0-0.6
	c0.6-0.6,1.4-1,2.2-1h1.2c1.7,0.1,3,1.4,3,3.1v6.2c0,0.2-0.2,0.4-0.4,0.4h-1.4c-0.1,0-0.3-0.1-0.3-0.2
	C295.5,215.3,295.1,215.4,294.7,215.4z M292.8,212.3c0,0.6,0.5,1.1,1.1,1.1h0.8c0.6,0,1.1-0.5,1.1-1.1s-0.5-1.1-1.1-1.1h-0.8
	C293.3,211.1,292.8,211.6,292.8,212.3L292.8,212.3z"/>
<path class="st1" d="M302.5,205.6c2,0,3.6,1.6,3.6,3.6c0,0,0,0,0,0v5.8c0,0.2-0.2,0.4-0.4,0.4c0,0,0,0,0,0h-1.4
	c-0.2,0-0.4-0.2-0.4-0.4v-5.8c0-0.8-0.7-1.5-1.5-1.5s-1.5,0.7-1.5,1.5v5.8c0,0.2-0.2,0.4-0.4,0.4c0,0,0,0,0,0h-1.4
	c-0.2,0-0.4-0.2-0.4-0.4v-8.9c0-0.2,0.2-0.4,0.4-0.4h1.4c0.2,0,0.3,0.1,0.4,0.3C301.5,205.8,302,205.7,302.5,205.6z"/>
<path class="st1" d="M307.3,214.5c-0.2-0.2-0.2-0.4,0-0.5c0,0,0,0,0,0c0.3-0.4,0.6-0.6,0.8-0.9c0.1-0.2,0.4-0.2,0.5-0.1
	c0,0,0,0,0.1,0c0.2,0.2,0.5,0.4,0.8,0.4h1.3c0.5,0,0.9-0.4,0.9-0.9c0-0.5-0.4-0.9-0.9-0.9h-0.9c-1.6,0-3-1.4-3-3c0-1.6,1.3-3,3-3
	l0,0h0.9c0.8,0.1,1.6,0.4,2.2,0.9c0.2,0.2,0.2,0.5,0.1,0.7c0,0,0,0,0,0c-0.3,0.3-0.5,0.6-0.8,0.9c-0.2,0.2-0.4,0.2-0.6,0
	c0,0,0,0,0,0c-0.2-0.2-0.5-0.4-0.8-0.4h-0.9c-0.5,0-0.9,0.4-0.9,0.8c0,0.5,0.4,0.9,0.9,0.9h0.9c1.6,0,3,1.4,3,3c0,1.6-1.3,3-3,3l0,0
	h-1.3C308.7,215.3,307.9,215,307.3,214.5z"/>
<path class="st1" d="M162.4,230.3c0.2,0.6,0.4,1.3,0.5,1.8l1.4-5.1c0.1-0.1,0.2-0.2,0.4-0.3h1.4c0.2,0,0.4,0.1,0.4,0.3
	c0,0.1,0,0.1,0,0.2l-2.5,8.9c-0.1,0.2-0.2,0.3-0.4,0.3h-1.4c-0.2,0-0.3-0.1-0.4-0.3l-1.4-5.3l-1.5,5.3c-0.1,0.2-0.2,0.3-0.4,0.3
	h-1.4c-0.2,0-0.3-0.1-0.4-0.3l-2.5-8.9c-0.1-0.2,0-0.4,0.2-0.4c0.1,0,0.1,0,0.2,0h1.4c0.2,0,0.3,0.1,0.4,0.3l1.4,5.1l1.4-5.1
	c0.1-0.1,0.2-0.2,0.4-0.3h1.6l0.3,0.6c0-0.1,0-0.1,0.1-0.2C161.8,228.3,162.1,229.3,162.4,230.3z"/>
<path class="st1" d="M170.6,228.8c-0.8,0-1.5,0.7-1.5,1.5v5.8c0,0.2-0.2,0.4-0.4,0.4h-1.4c-0.2,0-0.4-0.2-0.4-0.4v-13.2
	c0-0.2,0.2-0.4,0.4-0.4h1.4c0.2,0,0.3,0.2,0.4,0.4v4.1c0.5-0.2,1-0.3,1.5-0.3c2,0,3.6,1.6,3.6,3.6c0,0,0,0,0,0v5.8
	c0,0.2-0.2,0.4-0.4,0.4h-1.4c-0.2,0-0.4-0.2-0.4-0.4v-5.8C172.1,229.5,171.4,228.8,170.6,228.8C170.6,228.8,170.6,228.8,170.6,228.8
	z"/>
<path class="st1" d="M175.7,223.4h1.4c0.2,0,0.3,0.2,0.4,0.4v1.4c0,0.2-0.2,0.3-0.4,0.4h-1.4c-0.2,0-0.4-0.2-0.4-0.4c0,0,0,0,0,0
	v-1.4C175.4,223.6,175.5,223.4,175.7,223.4z M175.7,226.7h1.4c0.2,0,0.3,0.2,0.4,0.4v8.9c0,0.2-0.2,0.4-0.4,0.4h-1.4
	c-0.2,0-0.4-0.2-0.4-0.4v-8.9C175.4,226.9,175.5,226.8,175.7,226.7L175.7,226.7z"/>
<path class="st1" d="M178.7,222.9c0-0.2,0.2-0.4,0.4-0.4h1.4c0.2,0,0.3,0.2,0.4,0.4v10.5c0,0.6,0.5,1.1,1.1,1.1h0.3
	c0.2,0,0.4,0.2,0.4,0.4v0v1.3c0,0.2-0.2,0.4-0.4,0.4c0,0,0,0,0,0h-0.3c-1.7,0-3.1-1.4-3.1-3.1L178.7,222.9z"/>
<path class="st1" d="M186.3,234.4h0.8c0.3-0.1,0.6-0.2,0.8-0.4c0.2-0.1,0.4-0.2,0.5,0s0.7,0.7,0.9,1c0.2,0.1,0.2,0.4,0,0.5
	c0,0,0,0,0,0c-0.6,0.6-1.4,1-2.2,1h-0.8c-2,0-3.6-1.6-3.6-3.6l0,0v-2.6c0-2,1.6-3.6,3.6-3.6c2,0,3.6,1.6,3.6,3.6l0,0v2
	c0,0.2-0.2,0.4-0.4,0.4h-4.8v0.3C184.8,233.8,185.5,234.4,186.3,234.4z M184.8,230.3v0.3h3v-0.2c0-0.8-0.7-1.5-1.5-1.5
	C185.5,228.9,184.8,229.6,184.8,230.3L184.8,230.3z"/>
<path class="st1" d="M199.5,226.7c2,0,3.6,1.6,3.6,3.6v2.6c0,2-1.6,3.6-3.6,3.6c-0.5,0-1-0.1-1.5-0.3v4.1c0,0.2-0.2,0.3-0.4,0.4
	h-1.4c-0.2,0-0.4-0.2-0.4-0.4c0,0,0,0,0,0v-13.2c0-0.2,0.2-0.4,0.4-0.4h1.4c0.2,0,0.3,0.1,0.4,0.3
	C198.5,226.9,199,226.7,199.5,226.7z M198,230.3v2.6c0,0.8,0.7,1.5,1.5,1.5c0.8,0,1.5-0.7,1.5-1.5v-2.6c0-0.8-0.7-1.5-1.5-1.5
	C198.7,228.8,198,229.5,198,230.3z"/>
<path class="st1" d="M207.6,226.7h0.4c0.8,0.1,1.6,0.4,2.2,0.9c0.2,0.2,0.2,0.5,0,0.7c-0.3,0.3-0.6,0.6-0.9,0.9
	c-0.2,0.1-0.4,0.1-0.5,0c-0.2-0.2-0.5-0.4-0.8-0.4h-0.4c-0.8,0-1.5,0.7-1.5,1.5v5.8c0,0.2-0.2,0.4-0.4,0.4h-1.4
	c-0.2,0-0.4-0.2-0.4-0.4v-8.9c0-0.2,0.2-0.4,0.4-0.4h1.4c0.2,0,0.3,0.1,0.4,0.3C206.6,226.9,207.1,226.7,207.6,226.7z"/>
<path class="st1" d="M210.7,230.3c0-2,1.6-3.6,3.6-3.6c2,0,3.6,1.6,3.6,3.6c0,0,0,0,0,0v2.6c0,2-1.6,3.6-3.6,3.6
	c-2,0-3.6-1.6-3.6-3.6c0,0,0,0,0,0V230.3z M212.8,230.3v2.6c0,0.8,0.7,1.5,1.5,1.5c0.8,0,1.5-0.7,1.5-1.5c0,0,0,0,0,0v-2.6
	c0-0.8-0.7-1.5-1.5-1.5C213.4,228.9,212.8,229.5,212.8,230.3C212.8,230.3,212.8,230.3,212.8,230.3z"/>
<path class="st1" d="M221.9,226.7c0.8,0,1.5,0.3,2.1,0.8c0.6-0.5,1.3-0.8,2.1-0.8c1.8,0,3.2,1.4,3.2,3.2v6.2c0,0.2-0.2,0.4-0.4,0.4
	h-1.4c-0.2,0-0.4-0.2-0.4-0.4c0,0,0,0,0,0v-6.2c0.2-0.6-0.1-1.2-0.7-1.4c-0.6-0.2-1.2,0.1-1.4,0.7c-0.1,0.2-0.1,0.5,0,0.7v6.2
	c0,0.2-0.2,0.4-0.4,0.4c0,0,0,0,0,0h-1.4c-0.2,0-0.4-0.2-0.4-0.4l0,0v-6.2c0-0.6-0.5-1-1-1c-0.6,0-1,0.5-1,1l0,0v6.2
	c0,0.2-0.2,0.4-0.4,0.4c0,0,0,0,0,0h-1.4c-0.2,0-0.4-0.2-0.4-0.4l0,0v-8.9c0-0.2,0.2-0.4,0.4-0.4h1.4c0.1,0,0.2,0.1,0.3,0.2
	C221.2,226.8,221.6,226.7,221.9,226.7z"/>
<path class="st1" d="M230.1,230.3c0-2,1.6-3.6,3.6-3.6c2,0,3.6,1.6,3.6,3.6c0,0,0,0,0,0v2.6c0,2-1.6,3.6-3.6,3.6
	c-2,0-3.6-1.6-3.6-3.6c0,0,0,0,0,0V230.3z M232.3,230.3v2.6c0,0.8,0.7,1.5,1.5,1.5c0.8,0,1.5-0.7,1.5-1.5c0,0,0,0,0,0v-2.6
	c0-0.8-0.7-1.5-1.5-1.5C232.9,228.9,232.3,229.5,232.3,230.3C232.3,230.3,232.3,230.3,232.3,230.3z"/>
<path class="st1" d="M243.3,222.9c0-0.2,0.2-0.4,0.4-0.4h1.4c0.2,0,0.3,0.2,0.4,0.4v10.5c0,0.6,0.5,1.1,1.1,1.1h0.3
	c0.2,0,0.4,0.2,0.4,0.4v0v1.3c0,0.2-0.2,0.4-0.4,0.4c0,0,0,0,0,0h-0.3c-1.7,0-3.1-1.4-3.1-3.1L243.3,222.9z"/>
<path class="st1" d="M251.2,236.5h-0.9c-1.7,0-3.2-1.4-3.2-3.2c0-1.7,1.4-3.2,3.2-3.2c0,0,0,0,0,0h0.8c0.4,0,0.8,0.1,1.1,0.2v-0.5
	c0-0.5-0.4-0.9-0.9-1h-1.2c-0.3,0-0.6,0.2-0.8,0.4c-0.2,0.2-0.4,0.2-0.6,0c-0.2-0.2-0.6-0.6-0.9-0.9c-0.3-0.3-0.2-0.4,0-0.6
	c0.6-0.6,1.4-1,2.2-1h1.3c1.7,0.1,3,1.4,3,3.1v6.2c0,0.2-0.2,0.4-0.4,0.4h-1.4c-0.1,0-0.3-0.1-0.3-0.2
	C251.9,236.4,251.5,236.5,251.2,236.5z M249.3,233.3c0,0.6,0.5,1.1,1.1,1.1h0.8c0.6,0,1.1-0.5,1.1-1.1s-0.5-1.1-1.1-1.1h-0.9
	C249.7,232.3,249.3,232.7,249.3,233.3L249.3,233.3z"/>
<path class="st1" d="M255.5,235.5c-0.2-0.2-0.2-0.4,0-0.5c0,0,0,0,0,0c0.3-0.4,0.6-0.6,0.8-0.9c0.1-0.2,0.3-0.3,0.5-0.2
	c0,0,0,0,0.1,0.1c0.2,0.2,0.5,0.4,0.8,0.4h1.3c0.5,0,0.9-0.4,0.9-0.9c0-0.5-0.4-0.9-0.9-0.9h-0.9c-1.6,0-3-1.4-3-3c0-1.6,1.3-3,3-3
	l0,0h0.9c0.8,0.1,1.6,0.4,2.2,0.9c0.2,0.2,0.2,0.5,0.1,0.7c0,0,0,0,0,0c-0.3,0.3-0.5,0.6-0.8,0.9c-0.2,0.2-0.4,0.2-0.6,0
	c0,0,0,0,0,0c-0.2-0.2-0.5-0.4-0.8-0.4h-0.9c-0.5,0-0.9,0.4-0.9,0.8c0,0.5,0.4,0.9,0.9,0.9h0.9c1.6,0,3,1.4,3,3c0,1.6-1.3,3-3,3l0,0
	h-1.3C257,236.4,256.2,236.1,255.5,235.5z"/>
<path class="st1" d="M263,232.9v-4.1h-0.3c-0.2,0-0.4-0.2-0.4-0.4v-1.4c0-0.2,0.2-0.4,0.4-0.4h0.3V225c0-0.2,0.2-0.4,0.4-0.4h1.4
	c0.2,0,0.4,0.2,0.4,0.4c0,0,0,0,0,0v1.8h2.6c0.2,0,0.4,0.2,0.4,0.4v1.4c0,0.2-0.2,0.4-0.4,0.4h-2.6v4.1c0,0.8,0.7,1.5,1.5,1.5h0.4
	c0.3,0,0.6-0.3,0.8-0.4c0.2-0.1,0.4-0.1,0.6,0c0.3,0.3,0.6,0.7,0.9,0.9c0.2,0.2,0.2,0.4,0,0.6c0,0,0,0,0,0c-0.6,0.6-1.4,1-2.2,1
	h-0.4C264.6,236.5,263,234.9,263,232.9z"/>
<path class="st1" d="M269.9,235.5c-0.2-0.2-0.2-0.4,0-0.5c0,0,0,0,0,0c0.3-0.4,0.6-0.6,0.8-0.9c0.1-0.2,0.4-0.2,0.5-0.1
	c0,0,0,0,0.1,0c0.2,0.2,0.5,0.4,0.8,0.4h1.3c0.5,0,0.9-0.4,0.9-0.9c0-0.5-0.4-0.9-0.9-0.9h-0.9c-1.6,0-3-1.4-3-3c0-1.6,1.3-3,3-3
	l0,0h0.9c0.8,0.1,1.6,0.4,2.2,0.9c0.2,0.2,0.2,0.5,0.1,0.7c0,0,0,0,0,0c-0.3,0.3-0.5,0.6-0.8,0.9c-0.2,0.2-0.4,0.2-0.6,0
	c0,0,0,0,0,0c-0.2-0.2-0.5-0.4-0.8-0.4h-1c-0.5,0-0.9,0.4-0.9,0.8c0,0.5,0.4,0.9,0.9,0.9h0.9c1.6,0,3,1.4,3,3c0,1.6-1.3,3-3,3l0,0
	h-1.3C271.3,236.4,270.5,236.1,269.9,235.5z"/>
<path class="st1" d="M132.6,248.8c2.3,0,4.1,1.9,4.1,4.2v3c0,2.3-1.9,4.1-4.1,4.1c-0.6,0-1.2-0.1-1.7-0.4v4.8c0,0.2-0.2,0.4-0.4,0.4
	h-1.6c-0.2,0-0.4-0.2-0.4-0.4c0,0,0,0,0,0v-15.2c0-0.2,0.2-0.4,0.4-0.4h1.6c0.2,0,0.4,0.2,0.4,0.4C131.4,249,132,248.8,132.6,248.8z
	 M130.8,253v3c0,0.9,0.8,1.7,1.7,1.7c0.9,0,1.7-0.8,1.7-1.7v-3c0-0.9-0.8-1.7-1.7-1.7C131.6,251.3,130.8,252,130.8,253z"/>
<path class="st1" d="M141.9,248.8h0.5c0.9,0.1,1.8,0.5,2.5,1.1c0.2,0.2,0.2,0.6,0,0.8c-0.3,0.4-0.6,0.8-1,1.1
	c-0.2,0.1-0.4,0.1-0.6,0c-0.2-0.3-0.6-0.5-1-0.5h-0.5c-0.9,0-1.7,0.8-1.7,1.7v6.7c0,0.2-0.2,0.4-0.4,0.4h-1.6
	c-0.2,0-0.4-0.2-0.4-0.4v-10.3c0-0.2,0.2-0.4,0.4-0.4h1.6c0.2,0,0.4,0.2,0.4,0.4C140.7,249,141.3,248.9,141.9,248.8z"/>
<path class="st1" d="M145.4,253c-0.1-2.3,1.6-4.2,3.9-4.4c2.3-0.1,4.2,1.6,4.4,3.9c0,0.1,0,0.3,0,0.4v3c0.1,2.3-1.6,4.2-3.9,4.4
	c-2.3,0.1-4.2-1.6-4.4-3.9c0-0.1,0-0.3,0-0.4V253z M147.9,253v3c-0.2,0.9,0.5,1.8,1.4,1.9c0.9,0.2,1.8-0.5,1.9-1.4
	c0-0.2,0-0.4,0-0.5v-3c0.2-0.9-0.5-1.8-1.4-1.9c-0.9-0.2-1.8,0.5-1.9,1.4C147.9,252.6,147.9,252.8,147.9,253z"/>
<path class="st1" d="M158.5,248.8c0.9,0,1.8,0.4,2.4,0.9c0.7-0.6,1.5-0.9,2.4-0.9c2,0,3.7,1.7,3.7,3.7v7.2c0,0.2-0.2,0.4-0.5,0.5
	H165c-0.2,0-0.4-0.2-0.4-0.5v-7.2c0-0.7-0.5-1.2-1.2-1.2s-1.2,0.5-1.2,1.2c0,0,0,0,0,0v7.2c0,0.2-0.2,0.5-0.4,0.5c0,0,0,0,0,0h-1.6
	c-0.3,0-0.5-0.2-0.5-0.4c0,0,0,0,0,0v-7.2c0-0.7-0.5-1.2-1.2-1.2c-0.7,0-1.2,0.5-1.2,1.2v7.2c0,0.2-0.2,0.5-0.4,0.5c0,0,0,0,0,0
	h-1.6c-0.3,0-0.5-0.2-0.5-0.4c0,0,0,0,0,0v-10.3c0-0.2,0.2-0.4,0.4-0.5h1.6c0.1,0,0.3,0.1,0.4,0.2
	C157.6,248.9,158,248.8,158.5,248.8z"/>
<path class="st1" d="M167.9,253c-0.1-2.3,1.6-4.2,3.9-4.4c2.3-0.1,4.2,1.6,4.4,3.9c0,0.1,0,0.3,0,0.4v3c0.1,2.3-1.6,4.2-3.9,4.4
	c-2.3,0.1-4.2-1.6-4.4-3.9c0-0.1,0-0.3,0-0.4V253z M170.4,253v3c-0.2,0.9,0.5,1.8,1.4,1.9c0.9,0.2,1.8-0.5,1.9-1.4
	c0-0.2,0-0.4,0-0.5v-3c0.2-0.9-0.5-1.8-1.4-1.9c-0.9-0.2-1.8,0.5-1.9,1.4C170.4,252.6,170.4,252.8,170.4,253z"/>
<path class="st1" d="M187.1,257.7h1c0.4-0.1,0.7-0.2,0.9-0.5c0.2-0.1,0.4-0.2,0.6,0s0.8,0.8,1.1,1.1c0.2,0.1,0.2,0.4,0.1,0.6
	c0,0,0,0-0.1,0.1c-0.7,0.7-1.6,1.1-2.6,1.1h-1c-2.3,0-4.1-1.8-4.1-4.1c0,0,0,0,0,0v-3c0-2.3,1.8-4.1,4.1-4.1c2.3,0,4.1,1.8,4.1,4.1
	c0,0,0,0,0,0v2.2c0,0.2-0.2,0.4-0.4,0.4h-5.4v0.3C185.4,256.9,186.1,257.7,187.1,257.7C187.1,257.7,187.1,257.7,187.1,257.7z
	 M185.3,253v0.3h3.4V253c0-0.9-0.8-1.7-1.7-1.7S185.3,252,185.3,253z"/>
<path class="st1" d="M196.4,248.8c2.3,0,4.2,1.9,4.2,4.2c0,0,0,0,0,0v6.7c0,0.2-0.2,0.4-0.4,0.5h-1.6c-0.3,0-0.5-0.2-0.5-0.5V253
	c0.2-0.9-0.5-1.8-1.4-1.9c-0.9-0.2-1.8,0.5-1.9,1.4c0,0.2,0,0.4,0,0.5v6.7c0,0.2-0.2,0.4-0.4,0.5h-1.6c-0.3,0-0.5-0.2-0.5-0.5l0,0
	v-10.3c0-0.2,0.2-0.4,0.4-0.5h1.6c0.2,0,0.4,0.1,0.4,0.3C195.3,249,195.8,248.8,196.4,248.8z"/>
<path class="st1" d="M201.5,256v-3c0-2.3,1.8-4.1,4.1-4.2c0.6,0,1.2,0.1,1.7,0.4v-4.8c0-0.2,0.2-0.4,0.4-0.4h1.6
	c0.2,0,0.4,0.2,0.4,0.4v15.2c0,0.2-0.2,0.4-0.4,0.4h-1.6c-0.2,0-0.4-0.1-0.4-0.3c-0.5,0.3-1.1,0.4-1.7,0.4
	C203.3,260.1,201.5,258.3,201.5,256z M203.9,253v3c0,0.9,0.8,1.7,1.7,1.7s1.7-0.8,1.7-1.7v-3c0-0.9-0.8-1.7-1.7-1.7
	S203.9,252,203.9,253z"/>
<path class="st1" d="M211.3,259c-0.2-0.2-0.2-0.5,0-0.6c0,0,0,0,0,0c0.4-0.4,0.6-0.7,1-1.1c0.1-0.2,0.4-0.3,0.6-0.1c0,0,0,0,0.1,0
	c0.2,0.3,0.6,0.5,1,0.5h1.5c0.5,0,1-0.4,1-1c0-0.6-0.4-1-1-1h-1.1c-1.9,0-3.4-1.6-3.4-3.5c0-1.9,1.5-3.4,3.4-3.4c0,0,0,0,0,0h1.1
	c0.9,0.1,1.8,0.5,2.5,1c0.2,0.2,0.3,0.5,0.1,0.8c0,0,0,0,0,0c-0.3,0.4-0.6,0.7-0.9,1c-0.2,0.2-0.5,0.2-0.7,0.1c0,0,0,0,0,0
	c-0.2-0.3-0.6-0.5-1-0.5h-1.1c-0.5,0-1,0.4-1,1c0,0.6,0.4,1,1,1h1.1c1.9,0,3.4,1.6,3.4,3.5c0,1.9-1.5,3.4-3.4,3.4h-1.5
	C212.9,260,212,259.6,211.3,259z"/>
<path class="st1" d="M226.1,245h1.6c0.2,0,0.4,0.2,0.4,0.4v1.6c0,0.2-0.2,0.4-0.4,0.4h-1.6c-0.2,0-0.4-0.2-0.4-0.4c0,0,0,0,0,0v-1.6
	C225.7,245.2,225.9,245.1,226.1,245z M226.1,248.9h1.6c0.2,0,0.4,0.2,0.4,0.4v10.3c0,0.2-0.2,0.4-0.4,0.4h-1.6
	c-0.2,0-0.4-0.2-0.4-0.4v-10.3C225.7,249.1,225.9,248.9,226.1,248.9C226.1,248.9,226.1,248.9,226.1,248.9L226.1,248.9z"/>
<path class="st1" d="M233.8,248.8c2.3,0,4.2,1.9,4.2,4.2c0,0,0,0,0,0v6.7c0,0.2-0.2,0.5-0.4,0.5c0,0,0,0,0,0h-1.6
	c-0.3,0-0.5-0.2-0.5-0.5V253c0-0.9-0.7-1.7-1.7-1.7c0,0,0,0,0,0c-0.9,0-1.7,0.8-1.7,1.7v6.7c0,0.2-0.2,0.4-0.4,0.5h-1.6
	c-0.3,0-0.5-0.2-0.5-0.5l0,0v-10.3c0-0.2,0.2-0.4,0.4-0.5h1.6c0.2,0,0.4,0.1,0.4,0.3C232.6,249,233.2,248.8,233.8,248.8z"/>
<path class="st2" d="M244.8,258.4c-0.2-0.2-0.2-0.4,0-0.6c0.2-0.3,0.8-0.9,1.1-1.2c0.2-0.2,0.4-0.2,0.6-0.1c0,0,0,0,0.1,0.1
	c0.5,0.6,1.1,0.9,1.9,1h0.9c1.1,0,2-0.9,2-2c0,0,0,0,0,0c0-1.1-0.8-2.1-2-2.2h-1.3c-0.3,0-0.5-0.2-0.5-0.5l0,0v-1.6
	c0-0.3,0.2-0.5,0.5-0.5h1.1c1,0,1.9-0.8,1.9-1.9c0,0,0,0,0,0c0-1.1-0.9-2-2-2c0,0,0,0,0,0h-0.4c-0.7,0.1-1.3,0.4-1.8,0.9
	c-0.3,0.2-0.5,0.3-0.7,0.1c0,0-0.7-0.7-1.1-1.2c-0.2-0.2-0.2-0.5,0-0.7c1-1,2.3-1.6,3.7-1.7h0.4c2.5,0,4.6,2,4.6,4.5
	c0,1.2-0.4,2.3-1.3,3.2c1,0.9,1.5,2.2,1.5,3.5c0,2.5-2,4.6-4.5,4.6h0h-1C247,260,245.7,259.4,244.8,258.4z"/>
<path class="st2" d="M255.4,255.5v-6.7c0-2.5,2-4.6,4.6-4.6h0.7c2.5,0,4.6,2,4.6,4.5c0,0,0,0,0,0v6.7c0,2.5-2,4.6-4.5,4.6
	c0,0,0,0,0,0h-0.7C257.4,260.1,255.4,258,255.4,255.5z M259.9,246.9c-1.1,0-2,0.9-2,2v6.7c0,1.1,0.9,2,2,2h0.7c1.1,0,2-0.9,2-2
	c0,0,0,0,0,0v-6.7c0-1.1-0.9-2-2-2c0,0,0,0,0,0H259.9z"/>
<path class="st2" d="M271.9,256.2v-2.9c0-2.2,1.8-4,3.9-4c0.6,0,1.1,0.1,1.6,0.4v-4.6c0-0.2,0.2-0.4,0.4-0.4h1.5
	c0.2,0,0.4,0.2,0.4,0.4v14.5c0,0.2-0.2,0.4-0.4,0.4h-1.5c-0.2,0-0.4-0.1-0.4-0.3c-0.5,0.3-1.1,0.4-1.7,0.4
	C273.7,260.1,271.9,258.4,271.9,256.2C271.9,256.2,271.9,256.2,271.9,256.2z M274.2,253.3v2.9c0,0.9,0.7,1.7,1.7,1.7
	c0.9,0,1.7-0.7,1.7-1.7v-2.9c0-0.9-0.7-1.7-1.7-1.7C274.9,251.6,274.2,252.4,274.2,253.3z"/>
<path class="st2" d="M285,260.1h-0.9c-1.9,0.1-3.6-1.4-3.7-3.3c-0.1-1.9,1.4-3.6,3.3-3.7c0.1,0,0.3,0,0.4,0h0.9
	c0.4,0,0.8,0.1,1.2,0.2v-0.5c0-0.6-0.4-1-1-1.1h-1.3c-0.3,0-0.6,0.2-0.9,0.4c-0.2,0.2-0.4,0.3-0.6,0.1c-0.2-0.2-0.7-0.7-1-1
	s-0.2-0.5,0-0.7c0.6-0.7,1.5-1.1,2.5-1.1h1.3c1.8,0.1,3.3,1.6,3.3,3.4v6.9c0,0.2-0.2,0.4-0.4,0.4h-1.5c-0.2,0-0.3-0.1-0.4-0.2
	C285.9,260,285.4,260.1,285,260.1z M282.9,256.6c0,0.6,0.5,1.1,1.1,1.1c0,0,0,0,0.1,0h0.9c0.6,0,1.1-0.5,1.2-1.1
	c0-0.7-0.5-1.2-1.2-1.2h-0.9c-0.6-0.1-1.2,0.4-1.2,1C282.9,256.5,282.9,256.5,282.9,256.6L282.9,256.6z"/>
<path class="st2" d="M290.4,264.7L290.4,264.7c-0.3,0-0.5-0.2-0.5-0.4v-1.5c0-0.2,0.2-0.4,0.4-0.4h0.1c1.3,0,1.6-2.2,1.8-2.9
	L289,250c-0.1-0.2,0-0.4,0.2-0.5c0.1,0,0.1,0,0.2,0h1.6c0.2,0,0.3,0.1,0.4,0.3l2.1,6.3l2.1-6.3c0.1-0.2,0.2-0.3,0.4-0.3h1.7
	c0.5,0,0.5,0.3,0.4,0.7c-0.5,1.5-4.2,12.1-4.3,12.3C293.3,263.8,291.9,264.7,290.4,264.7z"/>
<path class="st2" d="M299,259c-0.2-0.2-0.2-0.5,0-0.6l0.9-1c0.1-0.2,0.4-0.3,0.6-0.1c0,0,0,0,0.1,0.1c0.2,0.3,0.6,0.4,0.9,0.5h1.4
	c0.5,0,0.9-0.4,1-0.9c0-0.5-0.4-1-1-1h-1c-1.8,0-3.3-1.5-3.3-3.3c0-1.8,1.5-3.3,3.3-3.3h1c0.9,0.1,1.7,0.4,2.4,1
	c0.2,0.2,0.3,0.5,0.1,0.7c0,0,0,0,0,0c-0.3,0.3-0.6,0.7-0.9,1c-0.2,0.2-0.4,0.2-0.6,0.1c0,0,0,0,0,0c-0.2-0.3-0.6-0.4-0.9-0.5h-1
	c-0.5,0-0.9,0.4-0.9,0.9c0,0.5,0.4,1,0.9,1h1c1.8,0,3.3,1.5,3.3,3.3c0,1.8-1.5,3.3-3.3,3.3l0,0h-1.4C300.5,260,299.7,259.6,299,259z
	"/>
<path class="st2" d="M243.7,190.4h-10c-0.9,0-1.7-0.8-1.7-1.7v0c0-3.9,3.1-6.2,5.8-8.1c2.2-1.6,4.1-3,4.1-4.9c0-0.9-0.6-2.4-2.9-2.4
	c-1.5-0.1-2.8,1.1-2.9,2.6c0,0,0,0.1,0,0.1c-0.1,0.9-0.9,1.6-1.8,1.6c-0.8-0.1-1.5-0.7-1.6-1.6c0-3.4,2.8-6.1,6.1-6.1
	c0,0,0.1,0,0.1,0c1.7-0.1,3.4,0.6,4.6,1.8c1,1.1,1.6,2.5,1.6,3.9c0,3.6-2.9,5.7-5.5,7.6c-1.6,1-2.9,2.2-4,3.7h7.8
	c0.9,0,1.7,0.8,1.7,1.7C245.3,189.7,244.5,190.4,243.7,190.4C243.6,190.4,243.6,190.4,243.7,190.4L243.7,190.4z"/>
<path class="st2" d="M256.8,190.4c-5.7,0-10.2-4.6-10.2-10.3c0-5.7,4.6-10.2,10.3-10.2c5.6,0,10.2,4.6,10.2,10.2
	C267,185.8,262.4,190.4,256.8,190.4z M256.8,173.3c-3.8,0-6.9,3.1-6.9,6.9c0,3.8,3.1,6.9,6.9,6.9c3.8,0,6.9-3.1,6.9-6.9c0,0,0,0,0,0
	C263.6,176.4,260.6,173.3,256.8,173.3C256.8,173.3,256.8,173.3,256.8,173.3z"/>
<path class="st2" d="M278.5,190.4c-5.7,0-10.2-4.6-10.2-10.3c0-5.7,4.6-10.2,10.3-10.2c5.6,0,10.2,4.6,10.2,10.2
	C288.7,185.8,284.1,190.4,278.5,190.4z M278.5,173.3c-3.8,0-6.9,3.1-6.9,6.9s3.1,6.9,6.9,6.9c3.8,0,6.9-3.1,6.9-6.9c0,0,0,0,0,0
	C285.3,176.4,282.2,173.3,278.5,173.3L278.5,173.3z"/>
<path class="st2" d="M227.4,181.6h-3.5v-3.4h3.5c0.5,0,0.9-0.4,0.9-0.9c0-0.5-0.4-0.9-0.9-0.9h-3.5v-4.6c0-0.5-0.1-1.1-0.4-1.5
	c-0.3-0.3-0.6-0.4-1-0.4c-0.4,0-0.8,0.1-1,0.4c-0.3,0.4-0.4,1-0.4,1.5v4.6h-6.6l-2.8-4.2c-0.2-0.4-0.5-0.7-0.7-1.1
	c-0.2-0.3-0.4-0.5-0.6-0.7c-0.2-0.2-0.3-0.3-0.6-0.4c-0.2-0.1-0.5-0.1-0.8-0.1c-0.4,0-0.8,0.1-1.1,0.3c-0.3,0.2-0.6,0.5-0.7,0.8
	c-0.1,0.5-0.2,0.9-0.2,1.4v4h-3.5c-0.5,0-0.9,0.4-0.9,0.9c0,0.5,0.4,0.9,0.9,0.9c0,0,0,0,0,0h3.5v3.4h-3.5c-0.5,0-0.9,0.4-0.9,0.9
	c0,0.5,0.4,0.9,0.9,0.9c0,0,0,0,0,0h3.5v5.3c0,0.5,0.1,1,0.4,1.5c0.5,0.6,1.5,0.6,2,0c0,0,0,0,0,0c0.3-0.4,0.5-0.9,0.4-1.5v-5.3h5.9
	l3.2,4.9c0.2,0.3,0.5,0.7,0.7,1c0.2,0.3,0.4,0.5,0.7,0.8c0.2,0.2,0.4,0.3,0.7,0.4c0.3,0.1,0.6,0.1,0.9,0.1c0.9,0,1.8-0.3,1.8-2.2v-5
	h3.5c0.5,0,0.9-0.4,0.9-0.9C228.3,182,227.9,181.6,227.4,181.6L227.4,181.6z M221,178.2v3.4h-3.1l-2.1-3.3L221,178.2z M210,174.3
	l1.3,2H210V174.3z M210,181.6v-3.4h2.5l2.2,3.4H210z M221,186.2l-1.8-2.7h1.8L221,186.2L221,186.2z"/>
<path class="st2" d="M146.7,114.5c0,0.3-0.2,0.5-0.5,0.5l0,0h-1.6c-0.3,0-0.5-0.2-0.5-0.5c0,0,0,0,0,0V99.4c0-0.3,0.2-0.5,0.5-0.5
	h4.1c2.7-0.1,5.1,2,5.2,4.7c0,0,0,0.1,0,0.1v0.6c-0.1,2.8-2.4,4.9-5.1,4.8c0,0,0,0-0.1,0h-2V114.5z M146.7,101.5v5h2
	c1.3,0.1,2.4-0.8,2.5-2c0,0,0-0.1,0-0.1v-0.6c-0.1-1.3-1.1-2.2-2.4-2.2c0,0-0.1,0-0.1,0H146.7z"/>
<path class="st2" d="M157.6,109.1v5.4c0,0.3-0.2,0.5-0.5,0.5l0,0h-1.6c-0.3,0-0.5-0.2-0.5-0.5c0,0,0,0,0,0V99.4
	c0-0.3,0.2-0.5,0.5-0.5h4.1c2.7-0.1,5.1,2,5.2,4.7c0,0,0,0.1,0,0.1v0.6c0,1.8-1.1,3.5-2.7,4.2l2.9,5.8c0.1,0.2,0.1,0.5-0.1,0.7
	c-0.1,0.1-0.2,0.1-0.3,0.1h-1.8c-0.2,0-0.3-0.1-0.5-0.3l-2.8-5.6L157.6,109.1z M157.6,101.5v5h2c1.3,0.1,2.4-0.8,2.5-2
	c0,0,0-0.1,0-0.1v-0.6c-0.1-1.3-1.1-2.2-2.4-2.2c0,0-0.1,0-0.1,0H157.6z"/>
<path class="st2" d="M166,109.4v-5c-0.1-3,2.2-5.5,5.1-5.6c0,0,0.1,0,0.1,0h0.3c3,0.1,5.3,2.6,5.2,5.5c0,0,0,0.1,0,0.1v5
	c0.1,3-2.2,5.5-5.1,5.6c0,0-0.1,0-0.1,0h-0.3C168.3,115,165.9,112.5,166,109.4C166,109.5,166,109.5,166,109.4z M171.2,101.4
	c-1.5,0.1-2.7,1.4-2.6,2.9c0,0,0,0.1,0,0.1v5c-0.1,1.5,1,2.8,2.4,3c0,0,0.1,0,0.1,0h0.3c1.5-0.1,2.7-1.4,2.6-2.9c0,0,0-0.1,0-0.1v-5
	c0.1-1.5-1-2.8-2.5-3c0,0-0.1,0-0.1,0H171.2z"/>
<path class="st2" d="M188.4,114.5V104l-2.5,4c-0.1,0.1-0.3,0.2-0.4,0.2H184c-0.2,0-0.3-0.1-0.4-0.2l-2.5-4v10.5
	c0,0.3-0.2,0.5-0.5,0.5c0,0,0,0,0,0h-1.6c-0.3,0-0.5-0.2-0.5-0.5c0,0,0,0,0,0V99.4c0-0.3,0.2-0.5,0.5-0.5h1.8c0.2,0,0.3,0.1,0.4,0.2
	l3.6,5.8l3.7-5.8c0.1-0.1,0.3-0.2,0.4-0.2h1.7c0.3,0,0.5,0.2,0.5,0.5c0,0,0,0,0,0v15.1c0,0.3-0.2,0.5-0.5,0.5l0,0h-1.6
	C188.7,115,188.4,114.7,188.4,114.5z"/>
<path class="st2" d="M192.8,109.4v-5c-0.1-3,2.2-5.5,5.1-5.6c0,0,0.1,0,0.1,0h0.3c3,0.1,5.3,2.6,5.3,5.5c0,0,0,0.1,0,0.1v5
	c0.1,3-2.2,5.5-5.2,5.6c0,0-0.1,0-0.1,0H198C195,115,192.7,112.5,192.8,109.4C192.8,109.5,192.8,109.5,192.8,109.4z M198,101.4
	c-1.5,0.1-2.7,1.4-2.6,2.9c0,0,0,0.1,0,0.1v5c-0.1,1.5,1,2.8,2.4,3c0,0,0.1,0,0.1,0h0.3c1.5-0.1,2.7-1.4,2.6-2.9c0,0,0-0.1,0-0.1v-5
	c0.1-1.5-1-2.9-2.5-3c0,0,0,0-0.1,0H198z"/>
<path class="st2" d="M206.6,98.9h1.6c0.2,0,0.4,0.2,0.4,0.4v11.8c0,0.2-0.2,0.4-0.4,0.4h-1.6c-0.2,0-0.4-0.2-0.4-0.4V99.4
	C206.2,99.1,206.3,98.9,206.6,98.9z M206.6,112.4h1.6c0.2,0,0.4,0.2,0.4,0.4v1.6c0,0.2-0.2,0.4-0.4,0.4h-1.6c-0.2,0-0.4-0.2-0.4-0.4
	v-1.6C206.2,112.6,206.3,112.4,206.6,112.4z"/>
<path class="st2" d="M219.1,114.5c0,0.3-0.2,0.5-0.5,0.5l0,0H217c-0.3,0-0.5-0.2-0.5-0.5c0,0,0,0,0,0V99.4c0-0.3,0.2-0.5,0.5-0.5
	h4.1c2.7-0.1,5.1,2,5.2,4.7c0,0,0,0.1,0,0.1v0.6c-0.1,2.8-2.4,4.9-5.1,4.8c0,0,0,0-0.1,0h-2V114.5z M219.1,101.5v5h2
	c1.3,0.1,2.4-0.8,2.5-2c0,0,0-0.1,0-0.1v-0.6c-0.1-1.3-1.1-2.2-2.4-2.2c0,0-0.1,0-0.1,0H219.1z"/>
<path class="st2" d="M230,109.1v5.4c0,0.3-0.2,0.5-0.5,0.5l0,0h-1.6c-0.3,0-0.5-0.2-0.5-0.5c0,0,0,0,0,0V99.4c0-0.3,0.2-0.5,0.5-0.5
	h4.1c2.7-0.1,5.1,2,5.2,4.7c0,0,0,0.1,0,0.1v0.6c0,1.8-1.1,3.5-2.7,4.2l2.9,5.8c0.1,0.2,0.1,0.5-0.1,0.7c-0.1,0.1-0.2,0.1-0.3,0.1
	H235c-0.2,0-0.3-0.1-0.5-0.3l-2.8-5.6L230,109.1z M230,101.5v5h2c1.3,0.1,2.4-0.8,2.5-2c0,0,0-0.1,0-0.1v-0.6
	c-0.1-1.3-1.1-2.2-2.4-2.2c0,0-0.1,0-0.1,0H230z"/>
<path class="st2" d="M238.4,109.4v-5c-0.1-3,2.2-5.5,5.1-5.6c0,0,0.1,0,0.1,0h0.3c3,0.1,5.3,2.6,5.2,5.5c0,0,0,0.1,0,0.1v5
	c0.1,3-2.2,5.5-5.1,5.6c0,0-0.1,0-0.1,0h-0.3C240.7,115,238.3,112.5,238.4,109.4C238.4,109.5,238.4,109.5,238.4,109.4z M243.6,101.4
	c-1.5,0.1-2.7,1.4-2.6,2.9c0,0,0,0.1,0,0.1v5c-0.1,1.5,1,2.8,2.4,3c0,0,0.1,0,0.1,0h0.3c1.5-0.1,2.7-1.4,2.6-2.9c0,0,0-0.1,0-0.1v-5
	c0.1-1.5-1-2.8-2.5-3c0,0-0.1,0-0.1,0H243.6z"/>
<path class="st2" d="M260.8,114.5V104l-2.5,4c-0.1,0.1-0.3,0.2-0.4,0.2h-1.4c-0.2,0-0.3-0.1-0.4-0.2l-2.5-4v10.5
	c0,0.3-0.2,0.5-0.5,0.5l0,0h-1.6c-0.3,0-0.5-0.2-0.5-0.5c0,0,0,0,0,0V99.4c0-0.3,0.2-0.5,0.5-0.5h1.8c0.2,0,0.3,0.1,0.4,0.2l3.6,5.8
	l3.7-5.8c0.1-0.1,0.3-0.2,0.4-0.2h1.7c0.3,0,0.5,0.2,0.5,0.5c0,0,0,0,0,0v15.1c0,0.3-0.2,0.5-0.5,0.5l0,0h-1.6
	C261.1,115,260.8,114.7,260.8,114.5z"/>
<path class="st2" d="M265.2,109.4v-5c-0.1-3,2.2-5.5,5.1-5.6c0,0,0.1,0,0.1,0h0.3c3,0.1,5.3,2.6,5.3,5.5c0,0,0,0.1,0,0.1v5
	c0.1,3-2.2,5.5-5.2,5.6c0,0-0.1,0-0.1,0h-0.3C267.4,115,265.1,112.5,265.2,109.4C265.2,109.5,265.2,109.5,265.2,109.4z M270.4,101.4
	c-1.5,0.1-2.7,1.4-2.6,2.9c0,0,0,0.1,0,0.1v5c-0.1,1.5,1,2.8,2.4,3c0,0,0.1,0,0.1,0h0.3c1.5-0.1,2.7-1.4,2.6-2.9c0,0,0-0.1,0-0.1v-5
	c0.1-1.5-1-2.9-2.5-3c0,0,0,0-0.1,0H270.4z"/>
<path class="st2" d="M279,98.9h1.6c0.2,0,0.4,0.2,0.4,0.4v11.8c0,0.2-0.2,0.4-0.4,0.4H279c-0.2,0-0.4-0.2-0.4-0.4V99.4
	C278.6,99.1,278.7,98.9,279,98.9z M279,112.4h1.6c0.2,0,0.4,0.2,0.4,0.4v1.6c0,0.2-0.2,0.4-0.4,0.4H279c-0.2,0-0.4-0.2-0.4-0.4v-1.6
	C278.6,112.6,278.7,112.4,279,112.4z"/>
<path class="st2" d="M284.5,98.9h1.6c0.2,0,0.4,0.2,0.4,0.4v11.8c0,0.2-0.2,0.4-0.4,0.4h-1.6c-0.2,0-0.4-0.2-0.4-0.4V99.4
	C284.1,99.1,284.2,98.9,284.5,98.9z M284.5,112.4h1.6c0.2,0,0.4,0.2,0.4,0.4v1.6c0,0.2-0.2,0.4-0.4,0.4h-1.6c-0.2,0-0.4-0.2-0.4-0.4
	v-1.6C284.1,112.6,284.3,112.4,284.5,112.4z"/>
<path class="st2" d="M182.4,138.2c0,0.3-0.2,0.5-0.5,0.5h-1.6c-0.3,0-0.5-0.2-0.5-0.5v-14.5c0-0.3,0.2-0.5,0.5-0.5h3.9
	c2.6-0.1,4.9,1.9,5,4.5c0,0,0,0,0,0.1v0.6c-0.1,2.6-2.3,4.7-4.9,4.6c0,0,0,0-0.1,0h-1.9L182.4,138.2z M182.4,125.8v4.7h1.9
	c1.2,0.1,2.3-0.8,2.4-2c0,0,0,0,0-0.1v-0.6c-0.1-1.2-1.1-2.2-2.4-2.1c0,0,0,0-0.1,0L182.4,125.8z"/>
<path class="st2" d="M192.8,133.1v5.1c0,0.3-0.2,0.5-0.5,0.5h-1.6c-0.3,0-0.5-0.2-0.5-0.5v-14.5c0-0.3,0.2-0.5,0.5-0.5h3.9
	c2.6-0.1,4.9,1.9,5,4.5c0,0,0,0,0,0.1v0.6c0,1.7-1,3.3-2.6,4.1l2.8,5.5c0.1,0.2,0.1,0.5-0.1,0.6c-0.1,0.1-0.2,0.1-0.3,0.1h-1.7
	c-0.2,0-0.3-0.1-0.4-0.3l-2.7-5.3L192.8,133.1z M192.8,125.8v4.7h1.9c1.2,0.1,2.3-0.8,2.4-2c0,0,0-0.1,0-0.1v-0.6
	c-0.1-1.2-1.1-2.2-2.4-2.1c0,0-0.1,0-0.1,0L192.8,125.8z"/>
<path class="st2" d="M200.8,133.4v-4.8c-0.1-2.8,2.1-5.3,4.9-5.4c0,0,0.1,0,0.1,0h0.3c2.8,0.1,5.1,2.5,5,5.3c0,0,0,0.1,0,0.1v4.8
	c0.1,2.8-2.1,5.2-4.9,5.4c0,0-0.1,0-0.1,0h-0.3C202.9,138.7,200.7,136.3,200.8,133.4C200.8,133.4,200.8,133.4,200.8,133.4z
	 M205.8,125.7c-1.4,0.1-2.6,1.3-2.5,2.8c0,0,0,0.1,0,0.1v4.8c-0.1,1.4,0.9,2.7,2.4,2.8c0,0,0.1,0,0.1,0h0.3c1.4-0.1,2.5-1.3,2.5-2.7
	c0,0,0-0.1,0-0.1v-4.8c0.1-1.5-1-2.7-2.4-2.8c0,0,0,0-0.1,0L205.8,125.7z"/>
<path class="st2" d="M222.2,138.2v-10l-2.4,3.8c-0.1,0.1-0.2,0.2-0.4,0.2H218c-0.2,0-0.3-0.1-0.4-0.2l-2.4-3.8v10
	c0,0.3-0.2,0.5-0.5,0.5h-1.5c-0.3,0-0.5-0.2-0.5-0.5v-14.5c0-0.3,0.2-0.5,0.5-0.5h1.7c0.2,0,0.3,0.1,0.4,0.2l3.5,5.5l3.5-5.5
	c0.1-0.1,0.3-0.2,0.4-0.2h1.7c0.3,0,0.5,0.2,0.5,0.5v14.4c0,0.3-0.2,0.5-0.5,0.5h-1.6C222.4,138.6,222.2,138.4,222.2,138.2z"/>
<path class="st2" d="M226.4,133.4v-4.8c-0.1-2.8,2.1-5.2,4.9-5.4c0,0,0.1,0,0.1,0h0.3c2.8,0.1,5.1,2.5,5,5.3c0,0,0,0.1,0,0.1v4.8
	c0.1,2.8-2.1,5.2-4.9,5.4c0,0-0.1,0-0.1,0h-0.3C228.5,138.7,226.3,136.3,226.4,133.4C226.4,133.5,226.4,133.4,226.4,133.4z
	 M231.4,125.7c-1.4,0.1-2.6,1.3-2.5,2.8c0,0,0,0.1,0,0.1v4.8c-0.1,1.4,0.9,2.7,2.4,2.8c0,0,0.1,0,0.1,0h0.3c1.4-0.1,2.6-1.3,2.5-2.7
	c0,0,0-0.1,0-0.1v-4.8c0.1-1.5-1-2.7-2.4-2.8c0,0,0,0-0.1,0L231.4,125.7z"/>
<path class="st2" d="M239.5,123.4h1.6c0.2,0,0.4,0.2,0.4,0.4v11.3c0,0.2-0.2,0.4-0.4,0.4h-1.5c-0.2,0-0.4-0.2-0.4-0.4v-11.3
	C239.1,123.5,239.3,123.4,239.5,123.4z M239.5,136.2h1.6c0.2,0,0.4,0.2,0.4,0.4v1.6c0,0.2-0.2,0.4-0.4,0.4h-1.5
	c-0.2,0-0.4-0.2-0.4-0.4v-1.6C239.1,136.4,239.3,136.2,239.5,136.2z"/>
<path class="st2" d="M244.8,123.4h1.6c0.2,0,0.4,0.2,0.4,0.4v11.3c0,0.2-0.2,0.4-0.4,0.4h-1.6c-0.2,0-0.4-0.2-0.4-0.4v-11.3
	C244.4,123.5,244.6,123.4,244.8,123.4C244.8,123.4,244.8,123.4,244.8,123.4z M244.8,136.2h1.6c0.2,0,0.4,0.2,0.4,0.4v1.6
	c0,0.2-0.2,0.4-0.4,0.4h-1.6c-0.2,0-0.4-0.2-0.4-0.4v-1.6C244.4,136.4,244.6,136.2,244.8,136.2z"/>
<path class="st2" d="M250,123.4h1.6c0.2,0,0.4,0.2,0.4,0.4v11.3c0,0.2-0.2,0.4-0.4,0.4h-1.5c-0.2,0-0.4-0.2-0.4-0.4v-11.3
	C249.6,123.5,249.8,123.4,250,123.4z M250,136.2h1.6c0.2,0,0.4,0.2,0.4,0.4v1.6c0,0.2-0.2,0.4-0.4,0.4h-1.5c-0.2,0-0.4-0.2-0.4-0.4
	v-1.6C249.6,136.4,249.8,136.2,250,136.2z"/>
<path class="st3" d="M217.2,89.6c0-3-2.4-5.3-5.3-5.4c-3,0-5.3,2.4-5.4,5.3c0,3,2.4,5.3,5.3,5.4c0,0,0,0,0,0
	C214.8,94.9,217.2,92.6,217.2,89.6C217.2,89.6,217.2,89.6,217.2,89.6z"/>
<path class="st4" d="M211.8,84.3c-0.5,0-1.1,0.1-1.6,0.2c2.8,0.9,4.4,3.8,3.5,6.7c-0.5,1.7-1.8,3-3.5,3.5c0.5,0.2,1,0.2,1.6,0.2
	c2.9,0,5.3-2.4,5.3-5.3C217.2,86.7,214.8,84.3,211.8,84.3C211.8,84.3,211.8,84.3,211.8,84.3z"/>
<path class="st3" d="M212.5,58.5c-1.7,0.3-3.4-0.8-3.7-2.5c-0.3-1.7,0.8-3.4,2.5-3.7c1.7-0.3,3.4,0.8,3.7,2.5
	C215.3,56.4,214.2,58.1,212.5,58.5z"/>
<path class="st4" d="M214.9,54.7c-0.3-1.7-2-2.8-3.7-2.5l-0.5,0.1c1.6,0.6,2.5,2.4,1.9,4.1c-0.3,0.9-1,1.6-1.9,1.9
	c1.6,0.6,3.4-0.2,4.1-1.8C215,55.9,215.1,55.3,214.9,54.7z"/>
<path class="st5" d="M225.1,88.7h-26.5c-2.4,0-4.3-1.9-4.3-4.3c0-1.3,0.6-2.5,1.6-3.4l0.9-0.7c2-1.6,3.1-4,3.1-6.5v-4.5
	c0-6.7,5.4-12,12-12c6.6,0,12,5.4,12,12V74c0,2.5,1.1,4.8,3,6.4l0.8,0.7c1,0.8,1.6,2,1.6,3.3l0,0C229.4,86.8,227.4,88.7,225.1,88.7z
	"/>
<path class="st3" d="M227.8,81.1l-0.8-0.7c-1.9-1.6-3-3.9-3-6.4v-4.6c0-6.7-5.4-12.1-12-12.1c-1.2,0-2.3,0.2-3.4,0.5
	c5.1,1.5,8.7,6.2,8.6,11.6V74c0,2.5,1.1,4.8,3,6.4l0.8,0.7c1,0.8,1.6,2,1.6,3.3l0,0c0,2.4-1.9,4.3-4.3,4.3c0,0,0,0,0,0h6.8
	c2.4,0,4.3-1.9,4.3-4.3l0,0C229.4,83.1,228.8,81.9,227.8,81.1z"/>
<path class="st2" d="M233.5,59.6c0-5.7-4.6-10.3-10.3-10.4c-5.7,0-10.3,4.6-10.4,10.3c0,5.7,4.6,10.3,10.3,10.4c0,0,0,0,0,0
	C228.9,69.9,233.5,65.3,233.5,59.6z"/>
<path class="st6" d="M225.9,49.7c4.6,3.3,5.7,9.7,2.4,14.4c-2.5,3.6-7,5.1-11.2,4c4.6,3.3,11.1,2.2,14.4-2.4
	c3.3-4.6,2.2-11.1-2.4-14.4C228.1,50.5,227.1,50,225.9,49.7z"/>
<path class="st7" d="M223.2,64.4c-0.4,0-0.7-0.3-0.7-0.7v-7l-0.3,0.3c-0.3,0.3-0.7,0.2-1-0.1c0,0,0,0,0,0c-0.3-0.3-0.2-0.7,0-1
	c0,0,0,0,0,0l1.5-1.3c0.3-0.2,0.8-0.2,1,0.1c0.1,0.1,0.1,0.3,0.2,0.4v8.6C223.8,64.1,223.5,64.4,223.2,64.4z"/>
</svg>
