<svg id="Layer_1" data-name="Layer 1" xmlns="http://www.w3.org/2000/svg" viewBox="0 0 600 350"><title>promo2</title><path d="M542.14,87.21v135.2c0,16.77-15.69,30.37-35,30.37H283.81c-19.35,0-35-13.59-35-30.36h0v-8.9c.06-5.06-4.05-9.43-9.77-10.4-45.06-6.92-55-34.19-55-34.19-.37-.19-.1-.39.66-.57,11.42-2.78,64.12,1.79,64.12-40.38V87.19c0-16.77,15.69-30.37,35-30.37h223.3c19.35,0,35,13.61,35,30.39Z" style="fill:#53d8d8"/><path d="M507.09,49H283.81c-24.36,0-44.17,17-44.38,38.17V128c0,25.68-22,29.6-46.65,31.6a72.92,72.92,0,0,0-10.65,1.32,8.74,8.74,0,0,0-7.21,6.75,7,7,0,0,0,1,4.8c2.62,5.86,16.32,31.38,61.21,38.3a2.7,2.7,0,0,1,2.3,2.78v8.9c0,21,20.12,38.7,44.37,38.7H507.1c24.25,0,44-17.67,44-38.7V87.21c0-21.08-19.68-38.17-44-38.18Zm26.1,173.38c0,12.47-11.71,23.18-26.1,23.18H283.8c-14.6-.25-26.33-10.52-26.47-23.18V213.6c.15-8.76-6.91-16.36-16.81-18.1-.05,0,0,0-.06,0-24-3.67-36.68-13.53-42.87-20.72,20.23-1.76,59.74-7.07,59.74-46.79V87.2c.2-12.56,12-22.65,26.48-22.65h223.3c14.41,0,26.09,10.15,26.08,22.65Z" style="fill:#284268"/><path d="M186.32,243v-.09l-23.66-30.62H67.87a25.66,25.66,0,0,0-25.58,25.67v55.35H188.44Z" style="fill:#bc5e51"/><path d="M83.76,212.24H67.87a25.66,25.66,0,0,0-25.58,25.67v55.35H58.18V237.91A25.65,25.65,0,0,1,83.76,212.24Z" style="fill:#934c44"/><path d="M207.56,245l20.46,4.8a18.84,18.84,0,0,1-18.83,18.36h-1.63Z" style="fill:#f3ce7d"/><path d="M228.55,250.3l-20.5-4.8V199.74l48.82-11.44v68.64Z" style="fill:#6d6d93"/><path d="M183.1,245.07h.05v24.17a24.28,24.28,0,0,0,5.54,15.53,20.24,20.24,0,0,0,1.71,2A25,25,0,0,0,208,294V245.07Z" style="fill:#7d8595"/><path d="M162.66,212.33a22.88,22.88,0,0,1,20.44-12.59h25V245.5H183a22.89,22.89,0,0,1-20.37-33.17Z" style="fill:#8f8fb7"/><path d="M275.13,184.14v77l-18.26-4.17V188.3Z" style="fill:#8f8fb7"/><path d="M282.47,174.44a8.87,8.87,0,0,0-5.53,3,8.69,8.69,0,0,0-2.18,5.83v78.38a8.92,8.92,0,0,0,8,8.94c.31,0,.68,0,1,0a9,9,0,0,0,9-9v-78.3a9.07,9.07,0,0,0-9.14-9A8.77,8.77,0,0,0,282.47,174.44Z" style="fill:#6d6d93"/><path d="M143.81,192.65H87.11a17.91,17.91,0,0,0-.14,2.43A22.19,22.19,0,0,0,91.87,209L139,208.9l.09.06a22.11,22.11,0,0,0,4.9-13.88,17.9,17.9,0,0,0-.13-2.43Z" style="fill:#4689d3"/><path d="M172.2,129.28a8.6,8.6,0,0,1-12.88,8.62h-1.14V124.35h1.14a7.67,7.67,0,0,1,2.38-1.6,7.19,7.19,0,0,1,6.88.66,8.56,8.56,0,0,1,3.62,5.87Z" style="fill:#efc597"/><path d="M72.74,124.35V137.9H71.5a8.6,8.6,0,0,1-9.25-14.49,7.28,7.28,0,0,1,9.25.94Z" style="fill:#efc597"/><path d="M139,208.9a11.68,11.68,0,0,1-3.46-8.27V179.94H95.25v20.69A11.66,11.66,0,0,1,91.81,209a22.38,22.38,0,0,0,6.88,5.73l16.76,8.63,16.75-8.63A22.52,22.52,0,0,0,139,209Z" style="fill:#efc597"/><path d="M91.87,209a22.35,22.35,0,0,0,6.84,5.73l16.75,8.63-12.35,16.51L87.93,229.9a22.41,22.41,0,0,1-9.69-23.1l8.87-14.3A22.31,22.31,0,0,0,91.87,209Z" style="fill:#5fa8ed"/><path d="M152.68,206.8A22.39,22.39,0,0,1,143,229.9l-15.18,9.94-12.35-16.51,16.75-8.63a22.36,22.36,0,0,0,11.6-22.2Z" style="fill:#5fa8ed"/><path d="M130.41,93.1H102.9A17.94,17.94,0,0,1,85.18,77.79L71.42,115.44v27.14a44,44,0,1,0,87.9,0V118.06l.05.06a29.18,29.18,0,0,0-29-25Z" style="fill:#ffd8b7"/><path d="M111.14,181.49A43.89,43.89,0,0,1,87.3,142.58V84a16.86,16.86,0,0,1-2.12-6.25L71.42,115.44v27.14a44,44,0,0,0,44.23,43.78,44.88,44.88,0,0,0,7.68-.72,43.5,43.5,0,0,1-12.19-4.15Z" style="fill:#bfa08a"/><path d="M70.63,61a20.45,20.45,0,0,0-6.1,14.43v41.72A20.52,20.52,0,0,0,85.18,96.78h0V55A20.28,20.28,0,0,0,70.63,61Z" style="fill:#6d7486"/><path d="M159.33,119a29.22,29.22,0,0,0-28.92-25.1H102.9A18.23,18.23,0,0,1,85,79V58.78h.26l16.14-7.5a42.42,42.42,0,0,1,60.3,38.48V122.7l0,0a7.67,7.67,0,0,0-2.38,1.6h-.08V119Z" style="fill:#4a5160"/><path d="M128.05,127.3a3.18,3.18,0,0,0,3.17-3.18,4.38,4.38,0,1,1,8.75,0,3.18,3.18,0,1,0,6.36,0,10.73,10.73,0,0,0-21.46,0A3.18,3.18,0,0,0,128.05,127.3Z" style="fill:#284268"/><path d="M102.87,127.3a3.18,3.18,0,0,0,3.18-3.18A10.73,10.73,0,1,0,84.59,124v.15a3.18,3.18,0,1,0,6.35,0,4.38,4.38,0,0,1,8.75-.1v.1a3.19,3.19,0,0,0,3.18,3.18Z" style="fill:#284268"/><path d="M130.3,154.66a3.18,3.18,0,1,0-4.5-4.5,14.62,14.62,0,0,1-20.68,0h0a3.18,3.18,0,0,0-4.5,4.5,21,21,0,0,0,29.68,0Z" style="fill:#284268"/><path d="M55,239.73a3.18,3.18,0,0,0-3.18,3.18v2.41a3.18,3.18,0,0,0,6.36,0v-2.41A3.18,3.18,0,0,0,55,239.73Z" style="fill:#284268"/><path d="M55,251.14a3.18,3.18,0,0,0-3.18,3.17v24.46a3.18,3.18,0,0,0,6.36,0V254.31A3.17,3.17,0,0,0,55,251.14Z" style="fill:#284268"/><path d="M84.51,190.82l-8.92,14.31a2.89,2.89,0,0,0-.44,1,22.53,22.53,0,0,0-.44,2.93H67.87a28.87,28.87,0,0,0-28.75,28.85v55.57a3,3,0,0,0,3.17,2.95H188.63a2.84,2.84,0,0,0,3-2.68v-2.4a28.15,28.15,0,0,0,16.5,5.31,3.1,3.1,0,0,0,3.09-3.12V271.78a22,22,0,0,0,20-17.57l40.33,9.46a12.16,12.16,0,0,0,12,10.13,12.43,12.43,0,0,0,8.25-3.13,12.29,12.29,0,0,0,4.11-9v-78.3A12.3,12.3,0,0,0,282,171.29a12.12,12.12,0,0,0-10.4,10.19l-63.86,14.87H183.1a26,26,0,0,0-22.28,12.71h-4.61a22.06,22.06,0,0,0-.41-2.92,3.11,3.11,0,0,0-.42-1l-8.79-14.3a2.86,2.86,0,0,0-2.63-1.34h-5.29v-6.12a46.79,46.79,0,0,0,23.83-40.77v-.38c.52,0,.79.07,1.21.07a11.72,11.72,0,0,0,6.56-21.47,10,10,0,0,0-5.65-1.8V89.76A45.43,45.43,0,0,0,100,48.4l-12,5.6a3.18,3.18,0,0,0-3-2.14A23.61,23.61,0,0,0,61.36,75.45v41.72a3.17,3.17,0,0,0,1.22,2.5,10.26,10.26,0,0,0-2.15,1.13,11.69,11.69,0,0,0-5,8,11.85,11.85,0,0,0,7.24,12.58,11.39,11.39,0,0,0,4.31.86,5.47,5.47,0,0,0,1.21-.08v.39c0,17.43,10.06,32.67,23.83,40.77v6.12H87.3a4.19,4.19,0,0,0-1.59.42,4,4,0,0,0-1.2.93Zm193.42-7.48a5.75,5.75,0,0,1,4.95-5.75,4.52,4.52,0,0,1,.74-.06,6,6,0,0,1,3.9,1.43,5.91,5.91,0,0,1,2.06,4.38v78.3a5.85,5.85,0,0,1-2,4.31,5.69,5.69,0,0,1-4.45,1.47,5.78,5.78,0,0,1-5.19-5.78Zm-18,7.47,11.65-2.66v69l-11.65-2.66Zm-48.72,11.45,42.36-10V253l-42.36-10Zm0,47.25L225,252.76a15.75,15.75,0,0,1-13.83,12.65ZM162.5,125.94a4,4,0,0,1,4.31.08,5.41,5.41,0,0,1-4.31,9.73Zm42.36,164.14a21.57,21.57,0,0,1-18.54-21.37V248.78h18.54ZM183.1,202.71h21.76v39.71H183.1a19.86,19.86,0,0,1,0-39.71Zm-37-.48,3.56,5.74a19.11,19.11,0,0,1-8.41,19.27l-12.69,8.31-8.31-11.12,13.41-6.91.05,0a25.44,25.44,0,0,0,12.39-15.26Zm-11.27,6.63a19.18,19.18,0,0,1-4.13,3l-15.25,7.86-15.26-7.86a19.3,19.3,0,0,1-4.19-3,14.68,14.68,0,0,0,2.42-8.23V186.38a47,47,0,0,0,33.89,0v14.25a14.83,14.83,0,0,0,2.52,8.23Zm5.93-13A18.35,18.35,0,0,1,139,203a8.88,8.88,0,0,1-.36-2.4v-4.81ZM88.36,60.93l14.46-6.77a39,39,0,0,1,55.44,35.6V107a31.43,31.43,0,0,0-27.85-16H102.9A14.75,14.75,0,0,1,88.36,78.64ZM67.71,75.45A17.52,17.52,0,0,1,82,58.51V96.76a17.52,17.52,0,0,1-14.3,16.94Zm.53,60.28a5.16,5.16,0,0,1-3.29-.22,5.38,5.38,0,0,1-3.25-5.77A5.3,5.3,0,0,1,63.89,126a3.87,3.87,0,0,1,4.35,0Zm6.35,6.85V118c8-3.83,13.77-11.9,13.77-21.22V91.19a20.79,20.79,0,0,0,14.54,6.14h27.51a26,26,0,0,1,25.7,21.56c0,.08,0,0,0,.12v23.57a40.78,40.78,0,0,1-81.55,0Zm17.48,53.24v4.81A8.77,8.77,0,0,1,91.8,203a18.25,18.25,0,0,1-1.64-7.2ZM81.25,208l3.56-5.74A25.44,25.44,0,0,0,97.2,217.49l.06,0,13.41,6.91-8.31,11.12-12.69-8.3A19.12,19.12,0,0,1,81.25,208ZM45.47,237.91a22.5,22.5,0,0,1,22.4-22.49H75a25.43,25.43,0,0,0,11.2,17.09l15.18,10a3.16,3.16,0,0,0,4.29-.73l9.8-13.11,9.8,13.11a3.17,3.17,0,0,0,4.28.76l15.19-10a25.46,25.46,0,0,0,11.2-17.09h2.15a26.16,26.16,0,0,0,18.06,32.28,26.51,26.51,0,0,0,3.83.77v20.24a27.64,27.64,0,0,0,5.3,16.31v5.06H162.5V258.36a3.18,3.18,0,1,0-6.36,0v31.72H74.59V258.36a3.18,3.18,0,1,0-6.35,0v31.72H45.47Z" style="fill:#284268"/><path d="M313.58,125.58h1.86a.52.52,0,0,1,.48.51v1.83a.49.49,0,0,1-.48.48h-1.83a.5.5,0,0,1-.51-.48v-1.83A.52.52,0,0,1,313.58,125.58Zm0,4.56h1.86a.52.52,0,0,1,.48.51v12.09a.52.52,0,0,1-.48.51h-1.83a.53.53,0,0,1-.51-.51V130.65A.52.52,0,0,1,313.58,130.14Z" style="fill:#284268"/><path d="M322.49,130.05a4.86,4.86,0,0,1,4.85,4.89v7.8a.53.53,0,0,1-.51.54H325a.56.56,0,0,1-.54-.54v-7.8a2,2,0,0,0-2-2,2,2,0,0,0-2,2v7.8a.52.52,0,0,1-.5.54h-1.83a.54.54,0,0,1-.54-.54V130.65a.55.55,0,0,1,.51-.54H320a.54.54,0,0,1,.48.39A5.21,5.21,0,0,1,322.49,130.05Z" style="fill:#284268"/><path d="M328.93,138.48V133h-.42a.53.53,0,0,1-.51-.51v-1.83a.53.53,0,0,1,.51-.51h.42v-2.43a.53.53,0,0,1,.52-.51h1.83a.5.5,0,0,1,.47.51v2.43h3.58a.52.52,0,0,1,.5.51v1.83a.52.52,0,0,1-.5.51h-3.58v5.49a2,2,0,0,0,2,2h.57c.46,0,.84-.39,1.11-.57a.59.59,0,0,1,.78,0c.42.45.87.93,1.17,1.23a.57.57,0,0,1-.06.81,4.12,4.12,0,0,1-3,1.32h-.57A4.83,4.83,0,0,1,328.93,138.48Z" style="fill:#284268"/><path d="M342.92,130.08h.57a5.58,5.58,0,0,1,3,1.23.67.67,0,0,1,0,.93,12.48,12.48,0,0,1-1.17,1.26c-.27.15-.51.18-.68,0a1.83,1.83,0,0,0-1.14-.57h-.57a2,2,0,0,0-2,2v7.8a.52.52,0,0,1-.49.51h-1.83a.53.53,0,0,1-.51-.51V130.65a.53.53,0,0,1,.49-.51h1.85a.56.56,0,0,1,.49.42A4.65,4.65,0,0,1,342.92,130.08Z" style="fill:#284268"/><path d="M347.05,134.94a4.86,4.86,0,1,1,9.72,0v3.54a4.86,4.86,0,1,1-9.72,0Zm2.88,0v3.54a2,2,0,0,0,2,2,2,2,0,0,0,2-2v-3.54a2,2,0,0,0-2-2A2,2,0,0,0,349.93,134.94Z" style="fill:#284268"/><path d="M357.73,138.48v-3.54a4.85,4.85,0,0,1,4.83-4.86,5.1,5.1,0,0,1,2,.45V125a.53.53,0,0,1,.51-.51h1.83a.53.53,0,0,1,.51.51v17.79a.53.53,0,0,1-.51.51h-1.83a.48.48,0,0,1-.48-.39,4.08,4.08,0,0,1-2,.45A4.83,4.83,0,0,1,357.73,138.48Zm2.82-3.54v3.54a2,2,0,1,0,4,0v-3.54a2,2,0,0,0-4,0Z" style="fill:#284268"/><path d="M368.83,138.48v-7.83a.53.53,0,0,1,.48-.51h1.86a.51.51,0,0,1,.48.51v7.83a2,2,0,1,0,4,0v-7.83a.53.53,0,0,1,.51-.51H378a.53.53,0,0,1,.51.51v12.09a.53.53,0,0,1-.51.51h-1.83a.56.56,0,0,1-.51-.39,4.61,4.61,0,0,1-2,.45A4.84,4.84,0,0,1,368.83,138.48Z" style="fill:#284268"/><path d="M382.6,134.94v3.54a2,2,0,0,0,2,2h.57a2.15,2.15,0,0,0,1.11-.54.64.64,0,0,1,.81.06l1.17,1.17a.61.61,0,0,1-.09.81,4.35,4.35,0,0,1-3.57,1.32,4.83,4.83,0,0,1-4.83-4.83v-3.54a4.85,4.85,0,0,1,4.83-4.86h.57a5.64,5.64,0,0,1,3,1.23c.3.3.3.57.06.81-.48.54-.9,1-1.14,1.26s-.69.12-.9,0a2.27,2.27,0,0,0-1.59-.42A2,2,0,0,0,382.6,134.94Z" style="fill:#284268"/><path d="M389.59,138.48V133h-.42a.53.53,0,0,1-.51-.51v-1.83a.53.53,0,0,1,.51-.51h.42v-2.43a.53.53,0,0,1,.51-.51h1.83a.5.5,0,0,1,.48.51v2.43H396a.53.53,0,0,1,.51.51v1.83a.53.53,0,0,1-.51.51h-3.57v5.49a2,2,0,0,0,2,2H395c.45,0,.84-.39,1.11-.57a.59.59,0,0,1,.78,0c.42.45.87.93,1.17,1.23a.57.57,0,0,1-.06.81,4.14,4.14,0,0,1-3,1.32h-.57A4.83,4.83,0,0,1,389.59,138.48Z" style="fill:#284268"/><path d="M398.41,134.94a4.86,4.86,0,1,1,9.72,0v3.54a4.86,4.86,0,0,1-9.72,0Zm2.88,0v3.54a2,2,0,0,0,4,0v-3.54a2,2,0,1,0-4,0Z" style="fill:#284268"/><path d="M414.22,130.08h.57a5.55,5.55,0,0,1,3,1.23.66.66,0,0,1,0,.93,15.32,15.32,0,0,1-1.17,1.26c-.27.15-.51.18-.69,0a1.8,1.8,0,0,0-1.14-.57h-.57a2,2,0,0,0-2,2v7.8a.52.52,0,0,1-.48.51H409.9a.53.53,0,0,1-.51-.51V130.65a.52.52,0,0,1,.48-.51h1.86a.54.54,0,0,1,.48.42A4.68,4.68,0,0,1,414.22,130.08Z" style="fill:#284268"/><path d="M419.65,149h-.09a.52.52,0,0,1-.51-.48v-1.86a.52.52,0,0,1,.51-.48h.09c1.59,0,1.92-2.64,2.22-3.51l-4-11.82a.47.47,0,0,1,.48-.66h1.92a.61.61,0,0,1,.48.36l2.55,7.65,2.58-7.65a.61.61,0,0,1,.45-.36h2.07c.6,0,.63.42.51.81-.6,1.8-5.16,14.85-5.22,15.06A4.35,4.35,0,0,1,419.65,149Z" style="fill:#284268"/><path d="M441.61,130.08a4.88,4.88,0,0,1,4.86,4.86v3.54a4.85,4.85,0,0,1-4.86,4.83,4.72,4.72,0,0,1-2-.45v5.61a.49.49,0,0,1-.48.48h-1.83a.5.5,0,0,1-.51-.48V130.65a.52.52,0,0,1,.48-.51h1.86a.54.54,0,0,1,.48.42A4.68,4.68,0,0,1,441.61,130.08Zm-2,4.86v3.54a2,2,0,1,0,4,0v-3.54a2,2,0,1,0-4,0Z" style="fill:#284268"/><path d="M452.56,130.08h.57a5.55,5.55,0,0,1,3,1.23.66.66,0,0,1,0,.93A15.32,15.32,0,0,1,455,133.5c-.27.15-.51.18-.69,0a1.8,1.8,0,0,0-1.14-.57h-.57a2,2,0,0,0-2,2v7.8a.52.52,0,0,1-.48.51h-1.83a.53.53,0,0,1-.51-.51V130.65a.52.52,0,0,1,.48-.51h1.86a.54.54,0,0,1,.48.42A4.68,4.68,0,0,1,452.56,130.08Z" style="fill:#284268"/><path d="M457.66,125.58h1.86a.52.52,0,0,1,.48.51v1.83a.49.49,0,0,1-.48.48h-1.83a.5.5,0,0,1-.51-.48v-1.83A.52.52,0,0,1,457.66,125.58Zm0,4.56h1.86a.52.52,0,0,1,.48.51v12.09a.52.52,0,0,1-.48.51h-1.83a.53.53,0,0,1-.51-.51V130.65A.52.52,0,0,1,457.66,130.14Z" style="fill:#284268"/><path d="M464.26,134.94v3.54a2,2,0,0,0,2,2h.57A2.15,2.15,0,0,0,468,140a.64.64,0,0,1,.81.06l1.17,1.17a.61.61,0,0,1-.09.81,4.35,4.35,0,0,1-3.57,1.32,4.83,4.83,0,0,1-4.83-4.83v-3.54a4.85,4.85,0,0,1,4.83-4.86h.57a5.64,5.64,0,0,1,3,1.23c.3.3.3.57.06.81-.48.54-.9,1-1.14,1.26s-.69.12-.9,0a2.27,2.27,0,0,0-1.59-.42A2,2,0,0,0,464.26,134.94Z" style="fill:#284268"/><path d="M475.6,140.49h1.14a2.08,2.08,0,0,0,1.11-.57c.24-.15.48-.24.72,0,.39.39.93.93,1.26,1.29a.51.51,0,0,1,0,.78,4.24,4.24,0,0,1-3.06,1.32H475.6a4.83,4.83,0,0,1-4.83-4.83v-3.54a4.85,4.85,0,1,1,9.69,0v2.67a.53.53,0,0,1-.51.51h-6.36v.36A2,2,0,0,0,475.6,140.49Zm-2-5.55v.33h4v-.33a2,2,0,1,0-4,0Z" style="fill:#284268"/><path d="M311.76,185.7a3.3,3.3,0,0,1,2.18.86,3.43,3.43,0,0,1,2.19-.86,3.33,3.33,0,0,1,3.31,3.32v6.41a.43.43,0,0,1-.41.42h-1.41a.42.42,0,0,1-.39-.42V189a1.09,1.09,0,1,0-2.18,0v6.41a.42.42,0,0,1-.39.42h-1.41a.41.41,0,0,1-.41-.42V189a1.08,1.08,0,1,0-2.16,0v6.41a.41.41,0,0,1-.39.42h-1.41a.42.42,0,0,1-.41-.42v-9.27a.43.43,0,0,1,.39-.41h1.43a.41.41,0,0,1,.32.18A3.22,3.22,0,0,1,311.76,185.7Z" style="fill:#284268"/><path d="M320.27,189.45a3.73,3.73,0,1,1,7.45,0v2.72a3.73,3.73,0,0,1-7.45,0Zm2.21,0v2.72a1.53,1.53,0,0,0,1.52,1.51,1.51,1.51,0,0,0,1.51-1.51v-2.72a1.52,1.52,0,0,0-1.51-1.54A1.54,1.54,0,0,0,322.48,189.45Z" style="fill:#284268"/><path d="M332.39,185.7a3.73,3.73,0,0,1,3.73,3.75v6a.42.42,0,0,1-.4.42h-1.4a.43.43,0,0,1-.41-.42v-6a1.52,1.52,0,1,0-3,0v6a.41.41,0,0,1-.39.42h-1.4a.41.41,0,0,1-.41-.42v-9.27a.42.42,0,0,1,.39-.41h1.42a.43.43,0,0,1,.37.3A4,4,0,0,1,332.39,185.7Z" style="fill:#284268"/><path d="M337.34,192.17V188H337a.41.41,0,0,1-.39-.39v-1.41a.41.41,0,0,1,.39-.39h.33v-1.86a.4.4,0,0,1,.39-.39h1.4a.38.38,0,0,1,.37.39v1.86h2.73a.41.41,0,0,1,.4.39v1.41a.41.41,0,0,1-.4.39H339.5v4.21a1.55,1.55,0,0,0,1.54,1.54h.43c.35,0,.65-.3.86-.44a.46.46,0,0,1,.59,0c.33.35.67.72.9,1a.43.43,0,0,1-.05.62,3.14,3.14,0,0,1-2.3,1H341A3.7,3.7,0,0,1,337.34,192.17Z" style="fill:#284268"/><path d="M348.05,187.91a1.54,1.54,0,0,0-1.54,1.54v6a.39.39,0,0,1-.37.39h-1.4a.4.4,0,0,1-.39-.39V181.79a.4.4,0,0,1,.37-.39h1.42a.4.4,0,0,1,.37.39v4.28a4,4,0,0,1,1.54-.34,3.72,3.72,0,0,1,3.73,3.72v6a.4.4,0,0,1-.39.39H350a.4.4,0,0,1-.39-.39v-6A1.54,1.54,0,0,0,348.05,187.91Z" style="fill:#284268"/><path d="M352.86,181.79a.4.4,0,0,1,.37-.39h1.42a.4.4,0,0,1,.37.39v10.88a1.13,1.13,0,0,0,1.11,1.11h.27a.36.36,0,0,1,.37.36v1.41a.39.39,0,0,1-.37.39h-.27a3.28,3.28,0,0,1-3.27-3.27Z" style="fill:#284268"/><path d="M358,200.19H358a.39.39,0,0,1-.39-.37V198.4A.39.39,0,0,1,358,198H358c1.21,0,1.47-2,1.7-2.69l-3-9.06a.37.37,0,0,1,.37-.51h1.47a.46.46,0,0,1,.37.28l1.95,5.86,2-5.86a.46.46,0,0,1,.35-.28h1.58c.46,0,.49.33.39.62-.46,1.38-4,11.39-4,11.55A3.32,3.32,0,0,1,358,200.19Z" style="fill:#284268"/><path d="M371.31,192.17V188H371a.41.41,0,0,1-.39-.39v-1.41a.41.41,0,0,1,.39-.39h.33v-1.86a.4.4,0,0,1,.39-.39h1.4a.38.38,0,0,1,.37.39v1.86h2.73a.4.4,0,0,1,.39.39v1.41a.4.4,0,0,1-.39.39h-2.73v4.21a1.55,1.55,0,0,0,1.54,1.54h.44c.34,0,.64-.3.85-.44a.46.46,0,0,1,.59,0c.33.35.67.72.9,1a.43.43,0,0,1-.05.62,3.14,3.14,0,0,1-2.29,1H375A3.7,3.7,0,0,1,371.31,192.17Z" style="fill:#284268"/><path d="M386.07,189.41c.18.66.37,1.35.51,1.91l1.47-5.27a.46.46,0,0,1,.37-.28h1.44a.35.35,0,0,1,.37.49l-2.57,9.29a.44.44,0,0,1-.37.27h-1.43a.49.49,0,0,1-.36-.27l-1.52-5.5-1.54,5.5a.44.44,0,0,1-.37.27h-1.43a.44.44,0,0,1-.36-.27l-2.58-9.29a.36.36,0,0,1,.37-.49h1.45a.46.46,0,0,1,.36.28l1.48,5.27,1.47-5.27a.46.46,0,0,1,.37-.28h1.67l.3.62a.25.25,0,0,1,.1-.2A29.12,29.12,0,0,0,386.07,189.41Z" style="fill:#284268"/><path d="M390.58,189.45a3.73,3.73,0,1,1,7.45,0v2.72a3.73,3.73,0,0,1-7.45,0Zm2.21,0v2.72a1.53,1.53,0,0,0,1.51,1.51,1.51,1.51,0,0,0,1.52-1.51v-2.72a1.52,1.52,0,0,0-1.52-1.54A1.53,1.53,0,0,0,392.79,189.45Z" style="fill:#284268"/><path d="M408,185.73a3.74,3.74,0,0,1,3.72,3.72v2.72a3.72,3.72,0,0,1-3.72,3.7,3.5,3.5,0,0,1-1.54-.35v4.3a.38.38,0,0,1-.37.37h-1.4a.39.39,0,0,1-.4-.37V186.16a.41.41,0,0,1,.37-.39h1.43a.42.42,0,0,1,.37.33A3.47,3.47,0,0,1,408,185.73Zm-1.54,3.72v2.72a1.54,1.54,0,1,0,3.08,0v-2.72a1.54,1.54,0,1,0-3.08,0Z" style="fill:#284268"/><path d="M416.34,195.82h-.88a3.28,3.28,0,1,1,0-6.55h.88a3.37,3.37,0,0,1,1.1.21V189a1.06,1.06,0,0,0-.9-1.06h-1.26a1.48,1.48,0,0,0-.8.39c-.21.16-.42.26-.6,0s-.65-.67-.92-1-.21-.43,0-.62a3.22,3.22,0,0,1,2.32-1h1.26A3.21,3.21,0,0,1,419.6,189v6.46a.4.4,0,0,1-.39.39h-1.4a.44.44,0,0,1-.35-.2A3.58,3.58,0,0,1,416.34,195.82Zm-2-3.26a1.1,1.1,0,0,0,1.1,1.1h.88a1.11,1.11,0,0,0,0-2.21h-.88A1.09,1.09,0,0,0,414.36,192.56Z" style="fill:#284268"/><path d="M421.44,200.19h-.06a.4.4,0,0,1-.4-.37V198.4a.4.4,0,0,1,.4-.37h.06c1.22,0,1.48-2,1.71-2.69l-3-9.06a.37.37,0,0,1,.37-.51H422a.47.47,0,0,1,.37.28l1.95,5.86,2-5.86a.46.46,0,0,1,.35-.28h1.58c.46,0,.49.33.39.62-.46,1.38-3.95,11.39-4,11.55A3.32,3.32,0,0,1,421.44,200.19Z" style="fill:#284268"/><path d="M432.58,185.7a3.3,3.3,0,0,1,2.18.86,3.43,3.43,0,0,1,2.19-.86,3.34,3.34,0,0,1,3.31,3.32v6.41a.44.44,0,0,1-.42.42h-1.4a.41.41,0,0,1-.39-.42V189a1.1,1.1,0,1,0-2.19,0v6.41a.41.41,0,0,1-.39.42h-1.4a.41.41,0,0,1-.41-.42V189a1.08,1.08,0,1,0-2.16,0v6.41a.42.42,0,0,1-.4.42h-1.4a.41.41,0,0,1-.41-.42v-9.27a.42.42,0,0,1,.39-.41h1.42a.41.41,0,0,1,.33.18A3.18,3.18,0,0,1,432.58,185.7Z" style="fill:#284268"/><path d="M444.81,193.71h.88c.34,0,.62-.28.85-.44s.36-.18.55,0,.71.71,1,1a.39.39,0,0,1,0,.6,3.24,3.24,0,0,1-2.34,1h-.88a3.7,3.7,0,0,1-3.7-3.7v-2.72a3.72,3.72,0,1,1,7.43,0v2.05a.4.4,0,0,1-.39.39h-4.88v.28A1.54,1.54,0,0,0,444.81,193.71Zm-1.54-4.26v.26h3.08v-.26a1.54,1.54,0,0,0-3.08,0Z" style="fill:#284268"/><path d="M453.21,185.7a3.73,3.73,0,0,1,3.72,3.75v6a.41.41,0,0,1-.39.42h-1.4a.44.44,0,0,1-.42-.42v-6a1.52,1.52,0,0,0-1.51-1.54,1.54,1.54,0,0,0-1.52,1.54v6a.42.42,0,0,1-.39.42h-1.4a.42.42,0,0,1-.42-.42v-9.27a.43.43,0,0,1,.39-.41h1.43a.43.43,0,0,1,.37.3A4,4,0,0,1,453.21,185.7Z" style="fill:#284268"/><path d="M458.15,192.17V188h-.32a.4.4,0,0,1-.39-.39v-1.41a.4.4,0,0,1,.39-.39h.32v-1.86a.4.4,0,0,1,.39-.39H460a.38.38,0,0,1,.36.39v1.86h2.74a.4.4,0,0,1,.39.39v1.41a.4.4,0,0,1-.39.39h-2.74v4.21a1.56,1.56,0,0,0,1.54,1.54h.44a1.61,1.61,0,0,0,.85-.44.47.47,0,0,1,.6,0c.32.35.67.72.9,1a.44.44,0,0,1-.05.62,3.16,3.16,0,0,1-2.3,1h-.44A3.7,3.7,0,0,1,458.15,192.17Z" style="fill:#284268"/><path d="M474.14,185.73a3.74,3.74,0,0,1,3.72,3.72v2.72a3.72,3.72,0,0,1-3.72,3.7,3.5,3.5,0,0,1-1.54-.35v4.3a.38.38,0,0,1-.37.37h-1.4a.39.39,0,0,1-.4-.37V186.16a.41.41,0,0,1,.37-.39h1.43a.42.42,0,0,1,.37.33A3.47,3.47,0,0,1,474.14,185.73Zm-1.54,3.72v2.72a1.54,1.54,0,0,0,3.08,0v-2.72a1.54,1.54,0,0,0-3.08,0Z" style="fill:#284268"/><path d="M478.83,181.79a.4.4,0,0,1,.37-.39h1.42a.4.4,0,0,1,.37.39v10.88a1.13,1.13,0,0,0,1.1,1.11h.28a.36.36,0,0,1,.37.36v1.41a.39.39,0,0,1-.37.39h-.28a3.28,3.28,0,0,1-3.26-3.27Z" style="fill:#284268"/><path d="M487,195.82h-.88a3.28,3.28,0,1,1,0-6.55H487a3.37,3.37,0,0,1,1.1.21V189a1.06,1.06,0,0,0-.9-1.06h-1.26a1.5,1.5,0,0,0-.81.39c-.2.16-.41.26-.59,0s-.65-.67-.92-1-.21-.43,0-.62a3.22,3.22,0,0,1,2.32-1h1.26a3.21,3.21,0,0,1,3.06,3.22v6.46a.4.4,0,0,1-.39.39h-1.4a.44.44,0,0,1-.35-.2A3.63,3.63,0,0,1,487,195.82Zm-2-3.26a1.1,1.1,0,0,0,1.1,1.1H487a1.11,1.11,0,0,0,0-2.21h-.88A1.09,1.09,0,0,0,485,192.56Z" style="fill:#284268"/><path d="M495,185.7a3.73,3.73,0,0,1,3.72,3.75v6a.41.41,0,0,1-.39.42H497a.43.43,0,0,1-.41-.42v-6a1.52,1.52,0,1,0-3,0v6a.41.41,0,0,1-.39.42h-1.4a.42.42,0,0,1-.42-.42v-9.27a.43.43,0,0,1,.4-.41h1.42a.43.43,0,0,1,.37.3A4,4,0,0,1,495,185.7Z" style="fill:#284268"/><path d="M500,194.86a.41.41,0,0,1,0-.58c.33-.37.58-.67.86-1a.41.41,0,0,1,.62-.07,1.41,1.41,0,0,0,.87.46h1.31a.92.92,0,0,0,.9-.9.94.94,0,0,0-.9-.92h-1a3.09,3.09,0,0,1-3.06-3.1,3.05,3.05,0,0,1,3.06-3.06h1a4.38,4.38,0,0,1,2.26.92.49.49,0,0,1,.06.71c-.3.32-.55.64-.85.94a.4.4,0,0,1-.59,0,1.42,1.42,0,0,0-.88-.44h-1a.89.89,0,0,0-.9.88.92.92,0,0,0,.9.92h1a3.09,3.09,0,0,1,3.06,3.1,3.06,3.06,0,0,1-3.06,3.06h-1.31A4.3,4.3,0,0,1,500,194.86Z" style="fill:#284268"/><path d="M349.76,208.41c.19.66.37,1.35.51,1.91l1.47-5.27a.47.47,0,0,1,.37-.28h1.45a.35.35,0,0,1,.37.49l-2.58,9.29a.43.43,0,0,1-.37.27h-1.42a.51.51,0,0,1-.37-.27l-1.52-5.5-1.54,5.5a.43.43,0,0,1-.37.27h-1.42a.47.47,0,0,1-.37-.27l-2.58-9.29a.37.37,0,0,1,.37-.49h1.45a.46.46,0,0,1,.37.28l1.47,5.27,1.47-5.27a.47.47,0,0,1,.37-.28h1.68l.3.62a.28.28,0,0,1,.09-.2A31.55,31.55,0,0,0,349.76,208.41Z" style="fill:#284268"/><path d="M358.23,206.91a1.54,1.54,0,0,0-1.54,1.54v6a.4.4,0,0,1-.37.39h-1.4a.4.4,0,0,1-.39-.39V200.79a.4.4,0,0,1,.37-.39h1.42a.41.41,0,0,1,.37.39v4.28a4,4,0,0,1,1.54-.34,3.72,3.72,0,0,1,3.73,3.72v6a.41.41,0,0,1-.4.39h-1.4a.4.4,0,0,1-.39-.39v-6A1.54,1.54,0,0,0,358.23,206.91Z" style="fill:#284268"/><path d="M363.52,201.28H365a.39.39,0,0,1,.36.39v1.4a.37.37,0,0,1-.36.37h-1.41a.39.39,0,0,1-.39-.37v-1.4A.4.4,0,0,1,363.52,201.28Zm0,3.49H365a.4.4,0,0,1,.36.39v9.27a.39.39,0,0,1-.36.39h-1.41a.4.4,0,0,1-.39-.39v-9.27A.41.41,0,0,1,363.52,204.77Z" style="fill:#284268"/><path d="M366.65,200.79a.4.4,0,0,1,.37-.39h1.42a.4.4,0,0,1,.37.39v10.88a1.13,1.13,0,0,0,1.1,1.11h.28a.36.36,0,0,1,.37.36v1.41a.39.39,0,0,1-.37.39h-.28a3.28,3.28,0,0,1-3.26-3.27Z" style="fill:#284268"/><path d="M374.56,212.71h.87c.35,0,.62-.28.85-.44s.37-.18.56,0,.71.71,1,1a.39.39,0,0,1,0,.6,3.26,3.26,0,0,1-2.35,1h-.87a3.7,3.7,0,0,1-3.7-3.7v-2.72a3.71,3.71,0,1,1,7.42,0v2.05a.4.4,0,0,1-.39.39H373v.28A1.54,1.54,0,0,0,374.56,212.71ZM373,208.45v.26h3.08v-.26a1.54,1.54,0,0,0-3.08,0Z" style="fill:#284268"/><path d="M388.22,204.73a3.74,3.74,0,0,1,3.73,3.72v2.72a3.72,3.72,0,0,1-3.73,3.7,3.53,3.53,0,0,1-1.54-.35v4.3a.38.38,0,0,1-.37.37h-1.4a.38.38,0,0,1-.39-.37V205.16a.4.4,0,0,1,.37-.39h1.42a.42.42,0,0,1,.37.33A3.47,3.47,0,0,1,388.22,204.73Zm-1.54,3.72v2.72a1.54,1.54,0,1,0,3.08,0v-2.72a1.54,1.54,0,1,0-3.08,0Z" style="fill:#284268"/><path d="M396.62,204.73h.43a4.25,4.25,0,0,1,2.28.94.5.5,0,0,1,0,.71,11.62,11.62,0,0,1-.89,1c-.21.11-.4.14-.53,0a1.42,1.42,0,0,0-.88-.44h-.43a1.53,1.53,0,0,0-1.54,1.54v6a.4.4,0,0,1-.37.39H393.3a.4.4,0,0,1-.39-.39v-9.27a.41.41,0,0,1,.37-.39h1.43a.42.42,0,0,1,.37.33A3.47,3.47,0,0,1,396.62,204.73Z" style="fill:#284268"/><path d="M399.79,208.45a3.73,3.73,0,1,1,7.45,0v2.72a3.73,3.73,0,0,1-7.45,0Zm2.21,0v2.72a1.53,1.53,0,0,0,1.52,1.51,1.51,1.51,0,0,0,1.51-1.51v-2.72a1.52,1.52,0,0,0-1.51-1.54A1.54,1.54,0,0,0,402,208.45Z" style="fill:#284268"/><path d="M411.47,204.7a3.33,3.33,0,0,1,2.19.86,3.4,3.4,0,0,1,2.18-.86,3.33,3.33,0,0,1,3.31,3.32v6.41a.43.43,0,0,1-.41.42h-1.4a.41.41,0,0,1-.39-.42V208a1.1,1.1,0,1,0-2.19,0v6.41a.41.41,0,0,1-.39.42H413a.42.42,0,0,1-.42-.42V208a1.08,1.08,0,1,0-2.16,0v6.41a.41.41,0,0,1-.39.42h-1.4a.41.41,0,0,1-.41-.42v-9.27a.42.42,0,0,1,.39-.41H410a.4.4,0,0,1,.32.18A3.26,3.26,0,0,1,411.47,204.7Z" style="fill:#284268"/><path d="M420,208.45a3.73,3.73,0,1,1,7.45,0v2.72a3.73,3.73,0,0,1-7.45,0Zm2.21,0v2.72a1.52,1.52,0,0,0,3,0v-2.72a1.52,1.52,0,1,0-3,0Z" style="fill:#284268"/><path d="M433.67,200.79a.4.4,0,0,1,.37-.39h1.42a.4.4,0,0,1,.37.39v10.88a1.13,1.13,0,0,0,1.1,1.11h.28a.36.36,0,0,1,.37.36v1.41a.39.39,0,0,1-.37.39h-.28a3.28,3.28,0,0,1-3.26-3.27Z" style="fill:#284268"/><path d="M441.79,214.82h-.88a3.28,3.28,0,1,1,0-6.55h.88a3.37,3.37,0,0,1,1.1.21V208a1.06,1.06,0,0,0-.9-1.06h-1.26a1.5,1.5,0,0,0-.81.39c-.2.16-.41.26-.59,0s-.65-.67-.92-1-.21-.43,0-.62a3.22,3.22,0,0,1,2.32-1H442a3.21,3.21,0,0,1,3.06,3.22v6.46a.4.4,0,0,1-.39.39h-1.4a.44.44,0,0,1-.35-.2A3.58,3.58,0,0,1,441.79,214.82Zm-2-3.26a1.1,1.1,0,0,0,1.1,1.1h.88a1.11,1.11,0,0,0,0-2.21h-.88A1.09,1.09,0,0,0,439.81,211.56Z" style="fill:#284268"/><path d="M446.3,213.86a.39.39,0,0,1,0-.58c.32-.37.57-.67.85-1a.41.41,0,0,1,.62-.07,1.41,1.41,0,0,0,.87.46H450a.92.92,0,0,0,.9-.9.94.94,0,0,0-.9-.92h-1a3.1,3.1,0,0,1-3.06-3.1,3.06,3.06,0,0,1,3.06-3.06h1a4.38,4.38,0,0,1,2.26.92.48.48,0,0,1,.06.71c-.29.32-.55.64-.85.94a.4.4,0,0,1-.59,0,1.42,1.42,0,0,0-.88-.44h-1a.89.89,0,0,0-.9.88.92.92,0,0,0,.9.92h1a3.09,3.09,0,0,1,3.06,3.1,3.06,3.06,0,0,1-3.06,3.06h-1.31A4.24,4.24,0,0,1,446.3,213.86Z" style="fill:#284268"/><path d="M454,211.17V207h-.32a.4.4,0,0,1-.39-.39v-1.41a.4.4,0,0,1,.39-.39H454v-1.86a.4.4,0,0,1,.39-.39h1.41a.38.38,0,0,1,.36.39v1.86h2.74a.4.4,0,0,1,.39.39v1.41a.4.4,0,0,1-.39.39h-2.74v4.21a1.56,1.56,0,0,0,1.55,1.54h.43a1.61,1.61,0,0,0,.85-.44.47.47,0,0,1,.6,0c.32.35.67.72.9,1a.44.44,0,0,1-.05.62,3.16,3.16,0,0,1-2.3,1h-.43A3.71,3.71,0,0,1,454,211.17Z" style="fill:#284268"/><path d="M461.18,213.86a.41.41,0,0,1,0-.58c.32-.37.57-.67.85-1a.41.41,0,0,1,.62-.07,1.41,1.41,0,0,0,.87.46h1.31a.92.92,0,0,0,.9-.9.93.93,0,0,0-.9-.92h-1a3.1,3.1,0,0,1-3.06-3.1,3.06,3.06,0,0,1,3.06-3.06h1a4.38,4.38,0,0,1,2.26.92.49.49,0,0,1,.07.71c-.3.32-.56.64-.86.94a.4.4,0,0,1-.59,0,1.42,1.42,0,0,0-.88-.44h-1a.89.89,0,0,0-.9.88.92.92,0,0,0,.9.92h1a3.09,3.09,0,0,1,3.06,3.1,3.06,3.06,0,0,1-3.06,3.06h-1.31A4.24,4.24,0,0,1,461.18,213.86Z" style="fill:#284268"/><path d="M319,226.19a3.91,3.91,0,0,1,3.88,3.89v2.83a3.88,3.88,0,0,1-3.88,3.87,3.81,3.81,0,0,1-1.61-.36v4.49a.4.4,0,0,1-.39.38h-1.46a.4.4,0,0,1-.41-.38V226.65a.42.42,0,0,1,.39-.41H317a.44.44,0,0,1,.39.34A3.66,3.66,0,0,1,319,226.19Zm-1.61,3.89v2.83a1.61,1.61,0,1,0,3.21,0v-2.83a1.61,1.61,0,1,0-3.21,0Z" style="fill:#284268"/><path d="M327.71,226.19h.45a4.44,4.44,0,0,1,2.38,1,.53.53,0,0,1,0,.74,11,11,0,0,1-.93,1c-.22.12-.41.14-.56,0a1.45,1.45,0,0,0-.91-.46h-.45a1.61,1.61,0,0,0-1.61,1.61v6.24a.42.42,0,0,1-.39.41h-1.46a.42.42,0,0,1-.41-.41v-9.67a.42.42,0,0,1,.39-.41h1.48a.44.44,0,0,1,.39.34A3.66,3.66,0,0,1,327.71,226.19Z" style="fill:#284268"/><path d="M331,230.08a3.89,3.89,0,1,1,7.77,0v2.83a3.89,3.89,0,1,1-7.77,0Zm2.3,0v2.83a1.59,1.59,0,1,0,3.17,0v-2.83a1.59,1.59,0,1,0-3.17,0Z" style="fill:#284268"/><path d="M343.21,226.17a3.47,3.47,0,0,1,2.28.89,3.59,3.59,0,0,1,2.28-.89,3.47,3.47,0,0,1,3.46,3.46v6.69a.45.45,0,0,1-.44.43h-1.46a.42.42,0,0,1-.41-.43v-6.69a1.14,1.14,0,1,0-2.28,0v6.69a.42.42,0,0,1-.41.43h-1.46a.43.43,0,0,1-.43-.43v-6.69a1.13,1.13,0,1,0-2.26,0v6.69a.42.42,0,0,1-.41.43h-1.46a.43.43,0,0,1-.43-.43v-9.67a.44.44,0,0,1,.41-.43h1.48a.42.42,0,0,1,.34.19A3.32,3.32,0,0,1,343.21,226.17Z" style="fill:#284268"/><path d="M352.09,230.08a3.89,3.89,0,1,1,7.78,0v2.83a3.89,3.89,0,1,1-7.78,0Zm2.3,0v2.83A1.6,1.6,0,0,0,356,234.5a1.58,1.58,0,0,0,1.58-1.59v-2.83a1.58,1.58,0,0,0-1.58-1.61A1.6,1.6,0,0,0,354.39,230.08Z" style="fill:#284268"/><path d="M370,234.52h.92c.36,0,.64-.29.88-.45s.39-.2.58,0,.74.74,1,1a.4.4,0,0,1,0,.62,3.38,3.38,0,0,1-2.44,1.06H370a3.86,3.86,0,0,1-3.86-3.87v-2.83a3.88,3.88,0,1,1,7.75,0v2.14a.43.43,0,0,1-.41.41h-5.09v.28A1.62,1.62,0,0,0,370,234.52Zm-1.61-4.44v.27h3.22v-.27a1.61,1.61,0,0,0-3.22,0Z" style="fill:#284268"/><path d="M378.75,226.17a3.89,3.89,0,0,1,3.89,3.91v6.24a.42.42,0,0,1-.41.43h-1.46a.44.44,0,0,1-.43-.43v-6.24a1.59,1.59,0,1,0-3.17,0v6.24a.42.42,0,0,1-.41.43H375.3a.43.43,0,0,1-.43-.43v-9.67a.44.44,0,0,1,.4-.43h1.49a.44.44,0,0,1,.39.31A4.13,4.13,0,0,1,378.75,226.17Z" style="fill:#284268"/><path d="M383.53,232.91v-2.83a3.89,3.89,0,0,1,3.86-3.89,4.06,4.06,0,0,1,1.61.36v-4.46a.42.42,0,0,1,.41-.41h1.46a.42.42,0,0,1,.41.41v14.23a.42.42,0,0,1-.41.41h-1.46a.38.38,0,0,1-.38-.31,3.31,3.31,0,0,1-1.64.36A3.86,3.86,0,0,1,383.53,232.91Zm2.26-2.83v2.83a1.61,1.61,0,1,0,3.21,0v-2.83a1.61,1.61,0,1,0-3.21,0Z" style="fill:#284268"/><path d="M392.67,235.72a.42.42,0,0,1,0-.6l.89-1a.43.43,0,0,1,.65-.07,1.46,1.46,0,0,0,.91.48h1.37a1,1,0,0,0,.93-.93,1,1,0,0,0-.93-1h-1a3.24,3.24,0,0,1-3.19-3.24,3.19,3.19,0,0,1,3.19-3.2h1a4.61,4.61,0,0,1,2.35,1,.51.51,0,0,1,.07.75c-.31.33-.57.67-.88,1a.44.44,0,0,1-.63.05,1.48,1.48,0,0,0-.91-.46h-1a.94.94,0,0,0-.94.92,1,1,0,0,0,.94,1h1a3.22,3.22,0,0,1,0,6.43h-1.37A4.49,4.49,0,0,1,392.67,235.72Z" style="fill:#284268"/><path d="M406.59,222.59h1.49a.42.42,0,0,1,.38.41v1.47a.39.39,0,0,1-.38.38h-1.46a.4.4,0,0,1-.41-.38V223A.42.42,0,0,1,406.59,222.59Zm0,3.65h1.49a.41.41,0,0,1,.38.41v9.67a.41.41,0,0,1-.38.41h-1.46a.42.42,0,0,1-.41-.41v-9.67A.41.41,0,0,1,406.59,226.24Z" style="fill:#284268"/><path d="M413.72,226.17a3.89,3.89,0,0,1,3.89,3.91v6.24a.42.42,0,0,1-.41.43h-1.46a.45.45,0,0,1-.44-.43v-6.24a1.58,1.58,0,0,0-1.58-1.61,1.6,1.6,0,0,0-1.58,1.61v6.24a.43.43,0,0,1-.41.43h-1.47a.43.43,0,0,1-.43-.43v-9.67a.44.44,0,0,1,.41-.43h1.49a.42.42,0,0,1,.38.31A4.21,4.21,0,0,1,413.72,226.17Z" style="fill:#284268"/><path d="M424.08,234.94a.46.46,0,0,1-.05-.65c.23-.32.88-.94,1.22-1.3a.48.48,0,0,1,.75,0,2.91,2.91,0,0,0,2,1h1a2.1,2.1,0,0,0,2.08-2.11,2.29,2.29,0,0,0-2.08-2.31h-1.41a.52.52,0,0,1-.52-.52v-1.69a.54.54,0,0,1,.52-.52h1.23a2,2,0,0,0,2-2,2.09,2.09,0,0,0-2.1-2.1h-.39a3.3,3.3,0,0,0-1.93,1c-.28.19-.52.34-.75.11,0,0-.78-.78-1.22-1.28a.53.53,0,0,1,0-.75,5.82,5.82,0,0,1,3.9-1.79h.39a4.84,4.84,0,0,1,4.83,4.83,4.9,4.9,0,0,1-1.32,3.33,5.33,5.33,0,0,1,1.61,3.74,4.82,4.82,0,0,1-4.81,4.84h-1A5.7,5.7,0,0,1,424.08,234.94Z" style="fill:#fc476e"/><path d="M435.33,231.89v-7.07a4.84,4.84,0,0,1,4.84-4.83h.73a4.82,4.82,0,0,1,4.84,4.83v7.07a4.83,4.83,0,0,1-4.84,4.84h-.73A4.85,4.85,0,0,1,435.33,231.89Zm4.84-9.17a2.11,2.11,0,0,0-2.1,2.1v7.07a2.11,2.11,0,0,0,2.1,2.11h.73a2.1,2.1,0,0,0,2.1-2.11v-7.07a2.09,2.09,0,0,0-2.1-2.1Z" style="fill:#fc476e"/><path d="M452.86,232.6v-3.07a4.2,4.2,0,0,1,4.18-4.21,4.45,4.45,0,0,1,1.75.39v-4.84a.46.46,0,0,1,.44-.44h1.59a.46.46,0,0,1,.44.44v15.42a.46.46,0,0,1-.44.44h-1.59a.43.43,0,0,1-.42-.34,3.5,3.5,0,0,1-1.77.39A4.18,4.18,0,0,1,452.86,232.6Zm2.44-3.07v3.07a1.75,1.75,0,0,0,3.49,0v-3.07a1.75,1.75,0,0,0-3.49,0Z" style="fill:#fc476e"/><path d="M466.77,236.73h-1a3.71,3.71,0,1,1,0-7.41h1a4.06,4.06,0,0,1,1.25.23V229a1.19,1.19,0,0,0-1-1.19h-1.43a1.7,1.7,0,0,0-.91.44c-.23.18-.47.28-.67.05s-.73-.75-1-1.09-.24-.5,0-.7a3.65,3.65,0,0,1,2.62-1.15H467a3.63,3.63,0,0,1,3.46,3.64v7.31a.46.46,0,0,1-.44.44h-1.59a.49.49,0,0,1-.39-.23A4.07,4.07,0,0,1,466.77,236.73ZM464.53,233a1.26,1.26,0,0,0,1.25,1.25h1A1.28,1.28,0,0,0,468,233a1.26,1.26,0,0,0-1.25-1.25h-1A1.24,1.24,0,0,0,464.53,233Z" style="fill:#fc476e"/><path d="M472.54,241.67h-.08a.45.45,0,0,1-.44-.42v-1.61a.45.45,0,0,1,.44-.41h.08c1.38,0,1.66-2.29,1.92-3L471,225.94a.41.41,0,0,1,.42-.57h1.66a.53.53,0,0,1,.42.31l2.21,6.63,2.23-6.63a.54.54,0,0,1,.39-.31h1.8c.52,0,.54.36.44.7-.52,1.56-4.47,12.87-4.52,13.05A3.77,3.77,0,0,1,472.54,241.67Z" style="fill:#fc476e"/><path d="M481.59,235.64a.46.46,0,0,1,0-.65c.36-.42.65-.76,1-1.09a.46.46,0,0,1,.7-.08,1.63,1.63,0,0,0,1,.52h1.48a1,1,0,0,0,1-1,1.06,1.06,0,0,0-1-1h-1.09a3.5,3.5,0,0,1-3.46-3.51,3.46,3.46,0,0,1,3.46-3.45h1.09a4.94,4.94,0,0,1,2.55,1,.55.55,0,0,1,.08.8c-.34.37-.63.73-1,1.07a.47.47,0,0,1-.68.05,1.53,1.53,0,0,0-1-.49h-1.09a1,1,0,0,0-1,1,1,1,0,0,0,1,1h1.09a3.5,3.5,0,0,1,3.46,3.51,3.45,3.45,0,0,1-3.46,3.46h-1.48A4.77,4.77,0,0,1,481.59,235.64Z" style="fill:#fc476e"/><path d="M394.72,174.09h-8.63a1.47,1.47,0,0,1-1.46-1.46c0-3.38,2.67-5.32,5-7,1.92-1.41,3.58-2.59,3.58-4.21a2.17,2.17,0,0,0-2.49-2.06,2.37,2.37,0,0,0-2.5,2.34,1.46,1.46,0,1,1-2.92,0,5.56,5.56,0,0,1,9.45-3.68,4.93,4.93,0,0,1,1.39,3.4c0,3.1-2.55,4.94-4.79,6.58a11.45,11.45,0,0,0-3.45,3.2h6.78a1.47,1.47,0,0,1,0,2.93Z" style="fill:#fc476e"/><path d="M406,174.09a8.85,8.85,0,1,1,8.87-8.85A8.88,8.88,0,0,1,406,174.09Zm0-14.77a5.92,5.92,0,1,0,5.92,5.92A5.91,5.91,0,0,0,406,159.32Z" style="fill:#fc476e"/><path d="M424.77,174.09a8.85,8.85,0,1,1,8.87-8.85A8.89,8.89,0,0,1,424.77,174.09Zm0-14.77a5.92,5.92,0,1,0,5.92,5.92A5.91,5.91,0,0,0,424.77,159.32Z" style="fill:#fc476e"/><path d="M380.65,166.46h-3v-2.9h3a.82.82,0,1,0,0-1.64h-3v-4a2,2,0,0,0-.34-1.28,1.11,1.11,0,0,0-.9-.36,1.05,1.05,0,0,0-.87.36,1.94,1.94,0,0,0-.34,1.28v4H369.5l-2.41-3.65-.59-.93a4.08,4.08,0,0,0-.5-.64,1.37,1.37,0,0,0-.48-.33,1.54,1.54,0,0,0-.65-.12,1.64,1.64,0,0,0-.93.28,1.47,1.47,0,0,0-.61.7,3.51,3.51,0,0,0-.16,1.23v3.46h-3a.82.82,0,1,0,0,1.64h3v2.9h-3a.83.83,0,0,0,0,1.65h3v4.59a2,2,0,0,0,.35,1.27,1.12,1.12,0,0,0,.9.38,1.14,1.14,0,0,0,.9-.38,1.85,1.85,0,0,0,.36-1.27v-4.59h5.14l2.78,4.26.59.85a3.72,3.72,0,0,0,.59.65,1.77,1.77,0,0,0,.59.37,2.35,2.35,0,0,0,.74.11c.75,0,1.52-.23,1.52-1.94v-4.3h3a.83.83,0,0,0,0-1.65Zm-5.47-2.9v2.9H372.5l-1.91-2.9Zm-9.5-3.33,1.11,1.69h-1.11Zm0,6.23v-2.9h2.18l1.89,2.9Zm9.5,4-1.59-2.4h1.59v2.4Z" style="fill:#fc476e"/><path d="M327.92,93.2a.52.52,0,0,1-.52.52h-1.66a.54.54,0,0,1-.55-.52V77.65a.56.56,0,0,1,.52-.52h4.21a5.12,5.12,0,0,1,5.36,5v.62a5.12,5.12,0,0,1-5.36,5h-2Zm0-13.34V85h2a2.4,2.4,0,0,0,2.63-2.24V82.1a2.41,2.41,0,0,0-2.63-2.24Z" style="fill:#fc476e"/><path d="M339.1,87.69V93.2a.52.52,0,0,1-.52.52h-1.66a.54.54,0,0,1-.55-.52V77.65a.56.56,0,0,1,.52-.52h4.21a5.12,5.12,0,0,1,5.36,5v.62a4.87,4.87,0,0,1-2.81,4.37l3,5.88a.48.48,0,0,1-.46.75h-1.9a.81.81,0,0,1-.47-.28l-2.86-5.75Zm0-7.83V85h2a2.4,2.4,0,0,0,2.63-2.24V82.1a2.4,2.4,0,0,0-2.63-2.24Z" style="fill:#fc476e"/><path d="M347.71,88V82.85a5.55,5.55,0,0,1,5.38-5.8h.28a5.55,5.55,0,0,1,5.39,5.8V88a5.54,5.54,0,0,1-5.39,5.77h-.28A5.53,5.53,0,0,1,347.71,88Zm5.38-8.24a2.81,2.81,0,0,0-2.65,3.06V88a2.79,2.79,0,0,0,2.65,3h.28A2.81,2.81,0,0,0,356,88V82.85a2.83,2.83,0,0,0-2.66-3.06Z" style="fill:#fc476e"/><path d="M370.74,93.17V82.38l-2.6,4.11a.91.91,0,0,1-.44.24h-1.48a.86.86,0,0,1-.44-.24l-2.6-4.08V93.2a.52.52,0,0,1-.52.52H361a.52.52,0,0,1-.52-.52l0-15.55a.54.54,0,0,1,.52-.52h1.82a.91.91,0,0,1,.44.24l3.72,5.9,3.77-5.9a.86.86,0,0,1,.44-.24H373a.52.52,0,0,1,.52.52V93.17a.52.52,0,0,1-.52.53h-1.69A.55.55,0,0,1,370.74,93.17Z" style="fill:#fc476e"/><path d="M375.19,88V82.85a5.55,5.55,0,0,1,5.38-5.8h.29a5.55,5.55,0,0,1,5.38,5.8V88a5.54,5.54,0,0,1-5.38,5.77h-.29A5.53,5.53,0,0,1,375.19,88Zm5.38-8.24a2.81,2.81,0,0,0-2.65,3.06V88a2.79,2.79,0,0,0,2.65,3h.29a2.81,2.81,0,0,0,2.65-3V82.85a2.83,2.83,0,0,0-2.65-3.06Z" style="fill:#fc476e"/><path d="M389.36,77.24h1.69a.43.43,0,0,1,.44.41V89.82a.45.45,0,0,1-.44.44h-1.67a.45.45,0,0,1-.44-.44V77.65A.43.43,0,0,1,389.36,77.24Zm0,13.83h1.69a.46.46,0,0,1,.44.44V93.2a.45.45,0,0,1-.44.44h-1.67a.45.45,0,0,1-.44-.44V91.51A.45.45,0,0,1,389.36,91.07Z" style="fill:#fc476e"/><path d="M402.28,93.2a.52.52,0,0,1-.52.52H400.1a.54.54,0,0,1-.55-.52V77.65a.56.56,0,0,1,.52-.52h4.21a5.12,5.12,0,0,1,5.36,5v.62a5.12,5.12,0,0,1-5.36,5h-2Zm0-13.34V85h2a2.4,2.4,0,0,0,2.63-2.24V82.1a2.41,2.41,0,0,0-2.63-2.24Z" style="fill:#fc476e"/><path d="M413.46,87.69V93.2a.52.52,0,0,1-.52.52h-1.66a.54.54,0,0,1-.55-.52V77.65a.56.56,0,0,1,.52-.52h4.21a5.12,5.12,0,0,1,5.36,5v.62A4.87,4.87,0,0,1,418,87.09L421,93a.48.48,0,0,1-.46.75h-1.9a.81.81,0,0,1-.47-.28l-2.86-5.75Zm0-7.83V85h2a2.4,2.4,0,0,0,2.63-2.24V82.1a2.4,2.4,0,0,0-2.63-2.24Z" style="fill:#fc476e"/><path d="M422.07,88V82.85a5.55,5.55,0,0,1,5.38-5.8h.28a5.55,5.55,0,0,1,5.39,5.8V88a5.54,5.54,0,0,1-5.39,5.77h-.28A5.53,5.53,0,0,1,422.07,88Zm5.38-8.24a2.81,2.81,0,0,0-2.66,3.06V88a2.8,2.8,0,0,0,2.66,3h.28a2.81,2.81,0,0,0,2.66-3V82.85a2.83,2.83,0,0,0-2.66-3.06Z" style="fill:#fc476e"/><path d="M445.1,93.17V82.38l-2.6,4.11a.91.91,0,0,1-.44.24h-1.48a.94.94,0,0,1-.45-.24l-2.59-4.08V93.2a.52.52,0,0,1-.52.52h-1.67a.52.52,0,0,1-.52-.52l0-15.55a.55.55,0,0,1,.53-.52h1.82a.91.91,0,0,1,.44.24l3.72,5.9,3.77-5.9a.86.86,0,0,1,.44-.24h1.79a.52.52,0,0,1,.52.52V93.17a.52.52,0,0,1-.52.53h-1.69A.55.55,0,0,1,445.1,93.17Z" style="fill:#fc476e"/><path d="M449.55,88V82.85a5.55,5.55,0,0,1,5.38-5.8h.28a5.55,5.55,0,0,1,5.39,5.8V88a5.54,5.54,0,0,1-5.39,5.77h-.28A5.53,5.53,0,0,1,449.55,88Zm5.38-8.24a2.81,2.81,0,0,0-2.65,3.06V88a2.79,2.79,0,0,0,2.65,3h.28a2.81,2.81,0,0,0,2.66-3V82.85a2.83,2.83,0,0,0-2.66-3.06Z" style="fill:#fc476e"/><path d="M463.72,77.24h1.69a.43.43,0,0,1,.44.41V89.82a.45.45,0,0,1-.44.44h-1.67a.45.45,0,0,1-.44-.44V77.65A.43.43,0,0,1,463.72,77.24Zm0,13.83h1.69a.46.46,0,0,1,.44.44V93.2a.45.45,0,0,1-.44.44h-1.67a.45.45,0,0,1-.44-.44V91.51A.45.45,0,0,1,463.72,91.07Z" style="fill:#fc476e"/><path d="M469.38,77.24h1.69a.43.43,0,0,1,.45.41V89.82a.45.45,0,0,1-.45.44h-1.66a.45.45,0,0,1-.44-.44V77.65A.43.43,0,0,1,469.38,77.24Zm0,13.83h1.69a.46.46,0,0,1,.45.44V93.2a.45.45,0,0,1-.45.44h-1.66a.45.45,0,0,1-.44-.44V91.51A.45.45,0,0,1,469.38,91.07Z" style="fill:#fc476e"/><path d="M362.27,116.68a.52.52,0,0,1-.52.52h-1.67a.54.54,0,0,1-.54-.52V101.13a.56.56,0,0,1,.52-.52h4.21a5.11,5.11,0,0,1,5.35,5v.62a5.12,5.12,0,0,1-5.35,5h-2Zm0-13.34v5.1h2a2.41,2.41,0,0,0,2.62-2.24v-.62a2.41,2.41,0,0,0-2.62-2.24Z" style="fill:#fc476e"/><path d="M373.45,111.17v5.51a.52.52,0,0,1-.52.52h-1.67a.54.54,0,0,1-.54-.52V101.13a.56.56,0,0,1,.52-.52h4.21a5.11,5.11,0,0,1,5.35,5v.62a4.86,4.86,0,0,1-2.8,4.37l3,5.88a.49.49,0,0,1-.47.75h-1.9a.75.75,0,0,1-.46-.29l-2.86-5.74Zm0-7.83v5.1h2a2.39,2.39,0,0,0,2.62-2.24v-.62a2.39,2.39,0,0,0-2.62-2.24Z" style="fill:#fc476e"/><path d="M382.05,111.51v-5.18a5.55,5.55,0,0,1,5.38-5.8h.29a5.54,5.54,0,0,1,5.38,5.8v5.18a5.53,5.53,0,0,1-5.38,5.77h-.29A5.54,5.54,0,0,1,382.05,111.51Zm5.38-8.25a2.82,2.82,0,0,0-2.65,3.07v5.18a2.79,2.79,0,0,0,2.65,3h.29a2.81,2.81,0,0,0,2.65-3v-5.18a2.83,2.83,0,0,0-2.65-3.07Z" style="fill:#fc476e"/><path d="M405.09,116.65V105.86l-2.6,4.11a.91.91,0,0,1-.44.24h-1.49a.91.91,0,0,1-.44-.24l-2.6-4.08v10.79a.52.52,0,0,1-.52.52h-1.66a.52.52,0,0,1-.52-.52l0-15.55a.54.54,0,0,1,.52-.52h1.82a.93.93,0,0,1,.44.23l3.72,5.91,3.77-5.91a1,1,0,0,1,.44-.23h1.8a.52.52,0,0,1,.52.52v15.52a.52.52,0,0,1-.52.52h-1.69A.54.54,0,0,1,405.09,116.65Z" style="fill:#fc476e"/><path d="M409.53,111.51v-5.18a5.55,5.55,0,0,1,5.39-5.8h.28a5.54,5.54,0,0,1,5.38,5.8v5.18a5.53,5.53,0,0,1-5.38,5.77h-.28A5.54,5.54,0,0,1,409.53,111.51Zm5.39-8.25a2.82,2.82,0,0,0-2.66,3.07v5.18a2.8,2.8,0,0,0,2.66,3h.28a2.81,2.81,0,0,0,2.65-3v-5.18a2.83,2.83,0,0,0-2.65-3.07Z" style="fill:#fc476e"/><path d="M423.7,100.71h1.69a.43.43,0,0,1,.44.42V113.3a.45.45,0,0,1-.44.44h-1.66a.46.46,0,0,1-.44-.44V101.13A.43.43,0,0,1,423.7,100.71Zm0,13.84h1.69a.45.45,0,0,1,.44.44v1.69a.45.45,0,0,1-.44.44h-1.66a.46.46,0,0,1-.44-.44V115A.45.45,0,0,1,423.7,114.55Z" style="fill:#fc476e"/><path d="M429.37,100.71h1.69a.44.44,0,0,1,.44.42V113.3a.46.46,0,0,1-.44.44H429.4a.45.45,0,0,1-.44-.44V101.13A.43.43,0,0,1,429.37,100.71Zm0,13.84h1.69a.46.46,0,0,1,.44.44v1.69a.46.46,0,0,1-.44.44H429.4a.45.45,0,0,1-.44-.44V115A.45.45,0,0,1,429.37,114.55Z" style="fill:#fc476e"/><path d="M435,100.71h1.69a.44.44,0,0,1,.44.42V113.3a.46.46,0,0,1-.44.44h-1.67a.46.46,0,0,1-.44-.44V101.13A.44.44,0,0,1,435,100.71Zm0,13.84h1.69a.46.46,0,0,1,.44.44v1.69a.46.46,0,0,1-.44.44h-1.67a.46.46,0,0,1-.44-.44V115A.45.45,0,0,1,435,114.55Z" style="fill:#fc476e"/><path d="M295.59,110.65a4.61,4.61,0,1,0-4.61,4.61A4.6,4.6,0,0,0,295.59,110.65Z" style="fill:#f7c92b"/><path d="M291,106.05a4.52,4.52,0,0,0-1.34.2,4.6,4.6,0,0,1,0,8.81,4.52,4.52,0,0,0,1.34.2,4.61,4.61,0,1,0,0-9.21Z" style="fill:#f2b51d"/><path d="M291.52,83.79a2.73,2.73,0,1,1,2.14-3.22A2.73,2.73,0,0,1,291.52,83.79Z" style="fill:#f7c92b"/><path d="M293.66,80.57a2.73,2.73,0,0,0-3.22-2.13,1.82,1.82,0,0,0-.4.11,2.72,2.72,0,0,1,0,5.13,2.84,2.84,0,0,0,1.48.11A2.73,2.73,0,0,0,293.66,80.57Z" style="fill:#f2b51d"/><path d="M302.4,109.88H279.56a3.7,3.7,0,0,1-3.7-3.69,3.74,3.74,0,0,1,1.39-2.91l.74-.59a7.22,7.22,0,0,0,2.68-5.6V93.21a10.39,10.39,0,0,1,20.78,0v4a7.22,7.22,0,0,0,2.59,5.53l.71.59a3.71,3.71,0,0,1,1.35,2.87v0A3.7,3.7,0,0,1,302.4,109.88Z" style="fill:#f7e249"/><path d="M304.75,103.28l-.71-.59a7.22,7.22,0,0,1-2.59-5.53v-4a10.4,10.4,0,0,0-13.32-10,10.38,10.38,0,0,1,7.46,10v4a7.19,7.19,0,0,0,2.6,5.53l.71.59a3.75,3.75,0,0,1,1.35,2.87v0a3.7,3.7,0,0,1-3.7,3.69h5.85a3.7,3.7,0,0,0,3.7-3.69v0A3.71,3.71,0,0,0,304.75,103.28Z" style="fill:#f7c92b"/><path d="M309.66,84.79a8.92,8.92,0,1,0-8.92,8.91A8.91,8.91,0,0,0,309.66,84.79Z" style="fill:#fc476e"/><path d="M303.13,76.22A8.9,8.9,0,0,1,298,92.38a8.62,8.62,0,0,1-2.39-.33,8.91,8.91,0,1,0,7.55-15.83Z" style="fill:#cc2b5a"/><path d="M300.74,89a.62.62,0,0,1-.62-.62v-6l-.23.21a.63.63,0,0,1-.88,0,.62.62,0,0,1,0-.88l1.27-1.16a.62.62,0,0,1,1,.46v7.4A.62.62,0,0,1,300.74,89Z" style="fill:#e3faff"/></svg>