<svg id="Layer_1" data-name="Layer 1" xmlns="http://www.w3.org/2000/svg" viewBox="0 0 400 350"><title>promos</title><path d="M192.1,314.2a16,16,0,0,1-13.7-7.9,62.41,62.41,0,0,0-71.1-29.4A16.06,16.06,0,0,1,91.8,273a14.63,14.63,0,0,1-3.9-14.6,62.26,62.26,0,0,0-29.6-71.3,15,15,0,0,1-6-20.2,15.72,15.72,0,0,1,6-6A62.16,62.16,0,0,0,87.9,89.6a14.47,14.47,0,0,1,3.9-14.5,15.67,15.67,0,0,1,11.1-4.5,16.33,16.33,0,0,1,4.4.6,63.56,63.56,0,0,0,16.8,2.3,62.38,62.38,0,0,0,54.3-31.7A15.82,15.82,0,0,1,200,36.1a15.58,15.58,0,0,1,5.7,5.7,62.74,62.74,0,0,0,54.2,31.7,63.56,63.56,0,0,0,16.8-2.3,15.87,15.87,0,0,1,15.4,3.9A14.53,14.53,0,0,1,296,89.6a62.26,62.26,0,0,0,29.6,71.3,14.93,14.93,0,0,1,6,20.2,14.4,14.4,0,0,1-6,6A62.36,62.36,0,0,0,296,258.4a14.69,14.69,0,0,1-3.9,14.6,15.88,15.88,0,0,1-15.4,3.9,62.41,62.41,0,0,0-71.1,29.4,15.62,15.62,0,0,1-13.5,7.9Z" style="fill:#ebffed;opacity:0.46000000834465027;isolation:isolate"/><path d="M326.1,124.8a8.81,8.81,0,0,1-4.2-10,56.41,56.41,0,0,0-14.6-55.2,57,57,0,0,0-55.7-14.4,8.56,8.56,0,0,1-9.9-4.1,57.24,57.24,0,0,0-78-21.4,57.82,57.82,0,0,0-21.4,21.4,8.68,8.68,0,0,1-9.9,4.1A57.5,57.5,0,0,0,76.7,59.6a56.63,56.63,0,0,0-14.6,55.2,8.69,8.69,0,0,1-4.2,10,56.4,56.4,0,0,0,0,98.6,8.81,8.81,0,0,1,4.2,10,56.41,56.41,0,0,0,14.6,55.2A57,57,0,0,0,132.4,303a8.62,8.62,0,0,1,9.9,4.1,57.24,57.24,0,0,0,78,21.4,57.82,57.82,0,0,0,21.4-21.4,8.68,8.68,0,0,1,9.9-4.1,57.5,57.5,0,0,0,55.7-14.4,56.41,56.41,0,0,0,14.6-55.2,8.69,8.69,0,0,1,4.2-10,56.4,56.4,0,0,0,0-98.6Zm-6.5,87A22.14,22.14,0,0,0,309.1,237a43.16,43.16,0,0,1-11.2,42.2,44.16,44.16,0,0,1-42.8,11.1,21.82,21.82,0,0,0-25,10.4,43.85,43.85,0,0,1-76.2,0,22.09,22.09,0,0,0-25.1-10.4A44,44,0,0,1,86,279.2,43.08,43.08,0,0,1,74.8,237a22,22,0,0,0-10.4-25.2,43.16,43.16,0,0,1-16.8-58.6,42.43,42.43,0,0,1,16.8-16.8,22,22,0,0,0,10.4-25.2A43.16,43.16,0,0,1,86,69a44.16,44.16,0,0,1,42.8-11.1,22.07,22.07,0,0,0,25.1-10.3,43.76,43.76,0,0,1,59.68-16.37l.12.07A43.24,43.24,0,0,1,230,47.6a21.89,21.89,0,0,0,25.1,10.3A44,44,0,0,1,297.9,69a43.08,43.08,0,0,1,11.2,42.2,22,22,0,0,0,10.5,25.2A43.16,43.16,0,0,1,336.4,195,42.43,42.43,0,0,1,319.6,211.8Z" style="fill:#28a745"/><path d="M109,143h1.92a.58.58,0,0,1,.55.55v17.73a.6.6,0,0,1-.55.55H109a.58.58,0,0,1-.55-.55V143.5A.58.58,0,0,1,109,143Z" style="fill:#28a745"/><path d="M118.19,148.71a4.78,4.78,0,0,1,4.75,4.83h0v7.77a.52.52,0,0,1-.45.55h-1.83a.58.58,0,0,1-.55-.55v-7.68a2,2,0,0,0-1.92-2h0a2,2,0,0,0-1.92,2v7.68a.53.53,0,0,1-.51.55h-1.87a.6.6,0,0,1-.55-.55v-12a.53.53,0,0,1,.51-.55h1.87a.61.61,0,0,1,.46.36A5.36,5.36,0,0,1,118.19,148.71Z" style="fill:#28a745"/><path d="M124.59,157.12v-5.4h-.46a.51.51,0,0,1-.46-.55v-1.82a.44.44,0,0,1,.42-.46h.5v-2.38a.59.59,0,0,1,.46-.55h1.82a.51.51,0,0,1,.46.55v2.38h3.57a.57.57,0,0,1,.54.46v1.82c0,.28-.27.46-.54.55h-3.57v5.4a2,2,0,0,0,2,2h.55c.46,0,.82-.37,1.1-.55a.56.56,0,0,1,.73,0,16.7,16.7,0,0,0,1.19,1.19.59.59,0,0,1-.08.82h0a4,4,0,0,1-2.93,1.28h-.55A4.83,4.83,0,0,1,124.59,157.12Z" style="fill:#28a745"/><path d="M138.39,148.8h.55a5.51,5.51,0,0,1,2.92,1.19.6.6,0,0,1,.06.85l-.06.06a14.31,14.31,0,0,1-1.18,1.28c-.28.18-.46.18-.64,0a1.79,1.79,0,0,0-1.1-.55h-.55a2,2,0,0,0-2,2v7.77a.43.43,0,0,1-.4.46H134.1a.43.43,0,0,1-.45-.41v-12a.43.43,0,0,1,.4-.46h1.88a.43.43,0,0,1,.46.4v.06A2.77,2.77,0,0,1,138.39,148.8Z" style="fill:#28a745"/><path d="M142.5,153.55a4.81,4.81,0,0,1,9.6-.46V157a4.81,4.81,0,0,1-9.58.88c0-.14,0-.28,0-.42v-3.91Zm2.84,0V157a2,2,0,0,0,3.88,1,2,2,0,0,0,.05-.69v-3.75a2,2,0,0,0-3.93-.27v.29Z" style="fill:#28a745"/><path d="M153,157.12v-3.48a4.84,4.84,0,0,1,4.75-4.84h0a5,5,0,0,1,2,.45v-5.48a.51.51,0,0,1,.55-.46H162a.57.57,0,0,1,.54.46v17.55a.52.52,0,0,1-.54.46h-1.83a.42.42,0,0,1-.46-.37,5,5,0,0,1-2,.46,4.78,4.78,0,0,1-4.75-4.75Zm2.83-3.57V157a2,2,0,0,0,3.88,1,2,2,0,0,0,0-.69v-3.75a2,2,0,0,0-3.93-.27.16.16,0,0,0,0,.24.15.15,0,0,0,.06.05Z" style="fill:#28a745"/><path d="M164,157.12v-7.77a.43.43,0,0,1,.4-.46h1.88a.48.48,0,0,1,.46.46v7.77a2,2,0,1,0,3.93.27v-8a.51.51,0,0,1,.55-.46H173a.57.57,0,0,1,.54.46v12a.52.52,0,0,1-.54.46h-1.83a.63.63,0,0,1-.55-.37,5,5,0,0,1-2,.46A4.69,4.69,0,0,1,164,157.2h0Z" style="fill:#28a745"/><path d="M177.61,153.55V157a2,2,0,0,0,2,2h.55a3.09,3.09,0,0,0,1.09-.54.58.58,0,0,1,.82.07v0l1.18,1.09a.58.58,0,0,1-.07.82h0a4.26,4.26,0,0,1-3.56,1.28,4.72,4.72,0,0,1-4.85-4.59v-3.64a4.85,4.85,0,0,1,4.76-4.84h.54a5.53,5.53,0,0,1,2.93,1.18.6.6,0,0,1,.09.83A11.21,11.21,0,0,0,182,152c-.27.27-.73.09-.91,0a2.4,2.4,0,0,0-1.55-.46A2.06,2.06,0,0,0,177.61,153.55Z" style="fill:#28a745"/><path d="M184.46,157.12v-5.4H184c-.27,0-.45-.27-.54-.55v-1.82a.5.5,0,0,1,.54-.46h.46v-2.38c0-.27.28-.46.55-.55h1.83a.51.51,0,0,1,.46.55v2.38h3.56a.44.44,0,0,1,.46.42v1.86a.59.59,0,0,1-.46.55H187.3v5.4a2,2,0,0,0,2,2h.55a2.07,2.07,0,0,0,1.09-.55.56.56,0,0,1,.73,0c.46.45.83.91,1.19,1.19a.59.59,0,0,1-.08.82h0a4,4,0,0,1-2.92,1.28h-.55A4.86,4.86,0,0,1,184.46,157.12Z" style="fill:#28a745"/><path d="M193.15,153.55a4.85,4.85,0,0,1,9.69,0V157a4.85,4.85,0,1,1-9.69.44,3.23,3.23,0,0,1,0-.44Zm2.83,0V157a1.92,1.92,0,0,0,3.84,0h0v-3.47a2,2,0,0,0-1.92-2h0a2.07,2.07,0,0,0-1.92,2Z" style="fill:#28a745"/><path d="M208.78,148.8h.55a5.59,5.59,0,0,1,2.92,1.19.61.61,0,0,1,.05.86l-.05.05h0a14.42,14.42,0,0,1-1.19,1.28c-.27.18-.55.18-.64,0a1.76,1.76,0,0,0-1.09-.55h-.55a2,2,0,0,0-2,2h0v7.77a.44.44,0,0,1-.42.46h-1.87a.59.59,0,0,1-.55-.46v-12a.44.44,0,0,1,.42-.46h1.87a.43.43,0,0,1,.45.41v.05A3.33,3.33,0,0,1,208.78,148.8Z" style="fill:#28a745"/><path d="M214.17,167.35h-.09a.43.43,0,0,1-.46-.4v-1.88a.48.48,0,0,1,.46-.46h.09c1.55,0,1.92-2.56,2.19-3.47l-3.93-11.61a.47.47,0,0,1,.23-.62l.05,0h2.19a.61.61,0,0,1,.46.36l2.56,7.59,2.56-7.59a.89.89,0,0,1,.45-.36h2c.54,0,.64.46.54.82-.54,1.74-5.11,14.63-5.11,14.9A4.72,4.72,0,0,1,214.17,167.35Z" style="fill:#28a745"/><path d="M237.37,148.2a5.4,5.4,0,0,1,5.31,5.29v3.8a5.26,5.26,0,0,1-5.31,5.19h0a5.84,5.84,0,0,1-2.21-.5v6.09a.47.47,0,0,1-.43.5h-2.07a.63.63,0,0,1-.6-.5V148.8a.47.47,0,0,1,.44-.5h2.06a.46.46,0,0,1,.5.44.06.06,0,0,1,0,.06A5,5,0,0,1,237.37,148.2Zm-2.21,5.19v3.8a2.17,2.17,0,0,0,4.31.3v-4.1a2.16,2.16,0,0,0-4.29-.58,2.64,2.64,0,0,0,0,.28Z" style="fill:#28a745"/><path d="M249.19,148.2h.6a6.19,6.19,0,0,1,3.21,1.3.66.66,0,0,1,.05.94l-.05.06a17.23,17.23,0,0,1-1.3,1.4c-.3.2-.5.2-.71,0a1.9,1.9,0,0,0-1.2-.6h-.6a2.21,2.21,0,0,0-2.2,2.19V162a.48.48,0,0,1-.44.5h-2.07a.63.63,0,0,1-.6-.5V148.93a.47.47,0,0,1,.44-.5h2.07a.47.47,0,0,1,.5.44v.06A4.38,4.38,0,0,1,249.19,148.2Z" style="fill:#28a745"/><path d="M254.7,143.31h2a.56.56,0,0,1,.5.6v2a.47.47,0,0,1-.44.5H254.7a.62.62,0,0,1-.6-.5v-2C254.2,143.61,254.4,143.31,254.7,143.31Zm0,4.89h2a.55.55,0,0,1,.5.5v13.08a.48.48,0,0,1-.44.5H254.7a.54.54,0,0,1-.5-.5V148.7A1.21,1.21,0,0,1,254.7,148.2Z" style="fill:#28a745"/><path d="M262,153.39v3.8a2.21,2.21,0,0,0,2.2,2.19h.6a3.29,3.29,0,0,0,1.2-.59.65.65,0,0,1,.91.09h0l1.3,1.3a.63.63,0,0,1-.09.89h0a4.68,4.68,0,0,1-3.91,1.4,5.17,5.17,0,0,1-5.21-5.11v-3.88a5.31,5.31,0,0,1,5.21-5.29h.7a6.19,6.19,0,0,1,3.21,1.3.65.65,0,0,1,.1.9h0a10.68,10.68,0,0,0-1.2,1.4c-.3.3-.71.1-1,0a2.58,2.58,0,0,0-1.7-.5,2.16,2.16,0,0,0-2.3,2Z" style="fill:#28a745"/><path d="M274.14,159.38h1.2a3.29,3.29,0,0,0,1.2-.59c.3-.2.51-.3.81,0l1.4,1.39a.61.61,0,0,1,.1.8l-.1.1a4.73,4.73,0,0,1-3.31,1.4h-1.2a5.16,5.16,0,0,1-5.21-5.11v-.08h0v-3.9a5.23,5.23,0,0,1,10.42-1v3.9a.47.47,0,0,1-.44.5h-7v.4a2,2,0,0,0,1.79,2.19Zm-2.2-6v.3h4.3v-.3a2.16,2.16,0,0,0-4.28-.58,1.32,1.32,0,0,0,0,.28Z" style="fill:#28a745"/><path d="M114.9,256.8h.5a4.69,4.69,0,0,1,2.5,1.1.61.61,0,0,1,0,.8,5.5,5.5,0,0,1-1,1.1.64.64,0,0,1-.6,0,1.23,1.23,0,0,0-1-.5h-.5a1.75,1.75,0,0,0-1.7,1.7v6.7a.43.43,0,0,1-.4.4h-1.6a.43.43,0,0,1-.4-.4V257.4a.43.43,0,0,1,.4-.4h1.6a.43.43,0,0,1,.4.4A4.27,4.27,0,0,1,114.9,256.8Z" style="fill:#28a745"/><path d="M118.4,261a4.16,4.16,0,0,1,8.3-.5v3.4a4.16,4.16,0,0,1-8.3.5Zm2.5,0v3a1.67,1.67,0,0,0,3.3.5V261a1.67,1.67,0,1,0-3.28-.62.5.5,0,0,0,0,.12Z" style="fill:#28a745"/><path d="M131.5,256.8a3.91,3.91,0,0,1,2.4.9,3.55,3.55,0,0,1,2.4-.9,3.76,3.76,0,0,1,3.7,3.7v7.2c0,.2-.2.4-.5.5H138a.46.46,0,0,1-.4-.5v-7.2a1.2,1.2,0,0,0-2.4,0h0v7.2c0,.2-.2.5-.4.5h-1.6a.46.46,0,0,1-.5-.4h0v-7.2a1.2,1.2,0,0,0-2.4,0v7.2c0,.2-.2.5-.4.5h-1.6a.46.46,0,0,1-.5-.4h0V257.6a.68.68,0,0,1,.4-.5h1.6a.76.76,0,0,1,.4.2A1.66,1.66,0,0,1,131.5,256.8Z" style="fill:#28a745"/><path d="M140.9,261a4.16,4.16,0,0,1,8.28-.79,2.83,2.83,0,0,1,0,.29v3.4a4.16,4.16,0,0,1-8.3.5Zm2.5,0v3a1.67,1.67,0,0,0,3.3.5V261a1.67,1.67,0,1,0-3.28-.62.5.5,0,0,0,0,.12Z" style="fill:#28a745"/><path d="M160.1,265.7h1a1.35,1.35,0,0,0,.9-.5c.2-.1.4-.2.6,0l1.1,1.1c.2.1.2.4.1.6l-.1.1a3.63,3.63,0,0,1-2.6,1.1h-1a4.06,4.06,0,0,1-4.1-4V264h0v-3a4.1,4.1,0,0,1,8.2,0h0v2.2a.43.43,0,0,1-.4.4h-5.4v.3a1.71,1.71,0,0,0,1.62,1.8Zm-1.8-4.7v.3h3.4V261a1.75,1.75,0,0,0-1.7-1.7,1.69,1.69,0,0,0-1.7,1.68Z" style="fill:#28a745"/><path d="M169.4,256.8a4.24,4.24,0,0,1,4.2,4.2h0v6.7a.68.68,0,0,1-.4.5h-1.6a.47.47,0,0,1-.5-.44V261a1.67,1.67,0,1,0-3.28-.62.5.5,0,0,0,0,.12v7.2a.68.68,0,0,1-.4.5h-1.6a.47.47,0,0,1-.5-.44v-.06h0V257.4a.68.68,0,0,1,.4-.5h1.6c.2,0,.4.1.4.3A5.21,5.21,0,0,1,169.4,256.8Z" style="fill:#28a745"/><path d="M174.5,264v-3a4.2,4.2,0,0,1,4.1-4.2,3.36,3.36,0,0,1,1.7.4v-4.8a.43.43,0,0,1,.4-.4h1.6a.43.43,0,0,1,.4.4v15.2a.43.43,0,0,1-.4.4h-1.6c-.2,0-.4-.1-.4-.3a3.36,3.36,0,0,1-1.7.4,4.06,4.06,0,0,1-4.1-4Zm2.4-3v3a1.7,1.7,0,0,0,3.4,0v-3a1.75,1.75,0,0,0-1.7-1.7,1.69,1.69,0,0,0-1.7,1.68Z" style="fill:#28a745"/><path d="M184.3,267c-.2-.2-.2-.5,0-.6h0c.4-.4.6-.7,1-1.1a.37.37,0,0,1,.51-.16l.09.06h.1a1.23,1.23,0,0,0,1,.5h1.5a1,1,0,0,0,1-1,.94.94,0,0,0-.88-1H187.4a3.46,3.46,0,0,1-3.4-3.5,3.37,3.37,0,0,1,3.34-3.4h1.16a5.57,5.57,0,0,1,2.5,1,.61.61,0,0,1,.1.8h0a8.56,8.56,0,0,1-.9,1,.61.61,0,0,1-.7.1h0a1.23,1.23,0,0,0-1-.5h-1.1a1,1,0,0,0-1,1,.94.94,0,0,0,.88,1h1.22a3.46,3.46,0,0,1,3.4,3.5,3.37,3.37,0,0,1-3.34,3.4H187A4.72,4.72,0,0,1,184.3,267Z" style="fill:#28a745"/><path d="M199.1,253h1.6a.43.43,0,0,1,.4.4V255a.43.43,0,0,1-.4.4h-1.6a.43.43,0,0,1-.4-.4h0v-1.6C198.7,253.2,198.9,253.1,199.1,253Zm0,3.9h1.6a.43.43,0,0,1,.4.4v10.3a.43.43,0,0,1-.4.4h-1.6a.43.43,0,0,1-.4-.4V257.3A.43.43,0,0,1,199.1,256.9Z" style="fill:#28a745"/><path d="M206.8,256.8A4.24,4.24,0,0,1,211,261h0v6.7c0,.2-.2.5-.4.5H209a.47.47,0,0,1-.5-.44V261a1.69,1.69,0,0,0-1.68-1.7h0a1.75,1.75,0,0,0-1.7,1.7v6.7a.68.68,0,0,1-.4.5h-1.6a.47.47,0,0,1-.5-.44v-.06h0V257.4a.68.68,0,0,1,.4-.5h1.6c.2,0,.4.1.4.3A5.87,5.87,0,0,1,206.8,256.8Z" style="fill:#28a745"/><path d="M217.8,266.4a.37.37,0,0,1-.07-.53.46.46,0,0,1,.07-.07,12.52,12.52,0,0,1,1.1-1.2.46.46,0,0,1,.6-.1l.1.1a2.73,2.73,0,0,0,1.9,1h.9a2,2,0,0,0,2-2h0a2.18,2.18,0,0,0-2-2.2h-1.3a.47.47,0,0,1-.5-.44v-.06h0v-1.6a.47.47,0,0,1,.44-.5h1.16a1.9,1.9,0,0,0,1.9-1.9h0a2,2,0,0,0-2-2h-.4a3.1,3.1,0,0,0-1.8.9c-.3.2-.5.3-.7.1,0,0-.7-.7-1.1-1.2a.49.49,0,0,1,0-.68l0,0a5.77,5.77,0,0,1,3.7-1.7h.4a4.57,4.57,0,0,1,4.6,4.5,4.4,4.4,0,0,1-1.3,3.2,4.68,4.68,0,0,1,1.5,3.5,4.57,4.57,0,0,1-4.5,4.6h-1A5.37,5.37,0,0,1,217.8,266.4Z" style="fill:#fc476e"/><path d="M228.4,263.5v-6.7a4.58,4.58,0,0,1,4.58-4.6h.72a4.57,4.57,0,0,1,4.6,4.5h0v6.7a4.57,4.57,0,0,1-4.5,4.6h-.7a4.46,4.46,0,0,1-4.69-4.23A2.44,2.44,0,0,1,228.4,263.5Zm4.5-8.6a2,2,0,0,0-2,2v6.7a2,2,0,0,0,2,2h.7a2,2,0,0,0,2-2h0v-6.7a2,2,0,0,0-2-2Z" style="fill:#fc476e"/><path d="M242.9,264.2v-2.9a4,4,0,0,1,3.9-4,3,3,0,0,1,1.6.4v-4.6a.43.43,0,0,1,.4-.4h1.5a.43.43,0,0,1,.4.4v14.5a.43.43,0,0,1-.4.4h-1.5c-.2,0-.4-.1-.4-.3a3.36,3.36,0,0,1-1.7.4A3.88,3.88,0,0,1,242.9,264.2Zm2.3-2.9v2.9a1.7,1.7,0,1,0,3.4,0v-2.9a1.7,1.7,0,1,0-3.4,0Z" style="fill:#fc476e"/><path d="M256,268.1h-.9a3.51,3.51,0,0,1-.4-7H256a4.86,4.86,0,0,1,1.2.2v-.5a1.09,1.09,0,0,0-1-1.1h-1.3a1.88,1.88,0,0,0-.9.4c-.2.2-.4.3-.6.1l-1-1a.42.42,0,0,1-.12-.58.34.34,0,0,1,.12-.12,3.24,3.24,0,0,1,2.5-1.1h1.3a3.49,3.49,0,0,1,3.3,3.4v6.9a.43.43,0,0,1-.4.4h-1.5a.52.52,0,0,1-.4-.2A4.43,4.43,0,0,1,256,268.1Zm-2.1-3.5a1.11,1.11,0,0,0,1.1,1.1h1a1.28,1.28,0,0,0,1.2-1.1,1.16,1.16,0,0,0-1.12-1.2h-1a1.06,1.06,0,0,0-1.19.91.28.28,0,0,0,0,.09Z" style="fill:#fc476e"/><path d="M261.4,272.7h0a.46.46,0,0,1-.5-.4v-1.5a.43.43,0,0,1,.4-.4h.1c1.3,0,1.6-2.2,1.8-2.9L260,258a.36.36,0,0,1,.18-.49H262c.2,0,.3.1.4.3l2.1,6.3,2.1-6.3c.1-.2.2-.3.4-.3h1.7c.5,0,.5.3.4.7-.5,1.5-4.2,12.1-4.3,12.3A3.66,3.66,0,0,1,261.4,272.7Z" style="fill:#fc476e"/><path d="M270,267c-.2-.2-.2-.5,0-.6l.9-1a.37.37,0,0,1,.51-.16.24.24,0,0,1,.09.06l.1.1a1.59,1.59,0,0,0,.9.5h1.4a1.06,1.06,0,0,0,1-.9,1,1,0,0,0-1-1h-1a3.3,3.3,0,1,1,0-6.6h1a4.36,4.36,0,0,1,2.4,1,.48.48,0,0,1,.11.68v0h0c-.3.3-.6.7-.9,1a.46.46,0,0,1-.6.1h0a1.59,1.59,0,0,0-.9-.5h-1a.9.9,0,0,0-.9.9,1,1,0,0,0,.9,1h1a3.3,3.3,0,1,1,0,6.6h-1.4A5.28,5.28,0,0,1,270,267Z" style="fill:#fc476e"/><path d="M140.3,193.73h-10a1.75,1.75,0,0,1-1.7-1.7h0c0-3.9,3.1-6.2,5.8-8.1,2.2-1.6,4.1-3,4.1-4.9,0-.9-.6-2.4-2.9-2.4a2.78,2.78,0,0,0-2.9,2.6v.1a1.83,1.83,0,0,1-1.8,1.6,1.81,1.81,0,0,1-1.6-1.6,6.12,6.12,0,0,1,6.1-6.1h.1a6.09,6.09,0,0,1,4.6,1.8,5.86,5.86,0,0,1,1.6,3.9c0,3.6-2.9,5.7-5.5,7.6a14.12,14.12,0,0,0-4,3.7H140a1.75,1.75,0,0,1,1.7,1.7,1.46,1.46,0,0,1-1.06,1.76,1.27,1.27,0,0,1-.34,0Z" style="fill:#fc476e"/><path d="M153.4,193.73a10.25,10.25,0,1,1,10.3-10.3A10.42,10.42,0,0,1,153.4,193.73Zm0-17.1a6.9,6.9,0,1,0,6.9,6.9h0A7,7,0,0,0,153.4,176.63Z" style="fill:#fc476e"/><path d="M175.1,193.73a10.25,10.25,0,1,1,10.3-10.3A10.42,10.42,0,0,1,175.1,193.73Zm0-17.1a6.9,6.9,0,1,0,6.9,6.9h0A7,7,0,0,0,175.1,176.63Z" style="fill:#fc476e"/><path d="M124,184.93h-3.5v-3.4H124a.9.9,0,0,0,0-1.8h-3.5v-4.6a2.65,2.65,0,0,0-.4-1.5,1.29,1.29,0,0,0-1-.4,1.16,1.16,0,0,0-1,.4,2.65,2.65,0,0,0-.4,1.5v4.6h-6.6l-2.8-4.2c-.2-.4-.5-.7-.7-1.1a4.44,4.44,0,0,0-.6-.7,1.28,1.28,0,0,0-.6-.4,2,2,0,0,0-.8-.1,2,2,0,0,0-1.1.3,1.81,1.81,0,0,0-.7.8,6.66,6.66,0,0,0-.2,1.4v4h-3.5a.9.9,0,1,0,0,1.8h3.5v3.4h-3.5a.9.9,0,0,0,0,1.8h3.5V192a2.81,2.81,0,0,0,.4,1.5,1.34,1.34,0,0,0,1.89.11l.11-.11h0a1.89,1.89,0,0,0,.4-1.5v-5.3h5.9l3.2,4.9c.2.3.5.7.7,1a4.84,4.84,0,0,0,.7.8,1.64,1.64,0,0,0,.7.4,2.74,2.74,0,0,0,.9.1c.9,0,1.8-.3,1.8-2.2v-5h3.5a.9.9,0,0,0,.9-.9.67.67,0,0,0-.7-.9Zm-6.4-3.4v3.4h-3.1l-2.1-3.3Zm-11-3.9,1.3,2h-1.3Zm0,7.3v-3.4h2.5l2.2,3.4Zm11,4.6-1.8-2.7h1.8Z" style="fill:#fc476e"/><path d="M121.7,114.5a.47.47,0,0,1-.44.5H119.6a.47.47,0,0,1-.5-.44v-.06h0V99.4a.47.47,0,0,1,.44-.5h4.16a5,5,0,0,1,5.2,4.7v.7a4.93,4.93,0,0,1-5.06,4.8H121.7v5.4Zm0-13v5h2a2.27,2.27,0,0,0,2.5-2v-.7a2.34,2.34,0,0,0-2.4-2.2h-2.1Z" style="fill:#fc476e"/><path d="M132.6,109.1v5.4a.47.47,0,0,1-.44.5H130.5a.47.47,0,0,1-.5-.44v-.06h0V99.4a.47.47,0,0,1,.44-.5h4.16a5,5,0,0,1,5.2,4.7v.7a4.65,4.65,0,0,1-2.7,4.2l2.9,5.8a.61.61,0,0,1-.1.7.37.37,0,0,1-.3.1h-1.8c-.2,0-.3-.1-.5-.3l-2.8-5.6Zm0-7.6v5h2a2.27,2.27,0,0,0,2.5-2v-.7a2.34,2.34,0,0,0-2.4-2.2h-2.1Z" style="fill:#fc476e"/><path d="M141,109.4v-5a5.37,5.37,0,0,1,5.1-5.6h.4a5.36,5.36,0,0,1,5.2,5.5v5.1a5.37,5.37,0,0,1-5.1,5.6h-.4a5.34,5.34,0,0,1-5.21-5.45A.76.76,0,0,0,141,109.4Zm5.2-8a2.78,2.78,0,0,0-2.6,2.9v5.1a2.84,2.84,0,0,0,2.4,3h.4a2.78,2.78,0,0,0,2.6-2.9v-5.1a2.85,2.85,0,0,0-2.5-3Z" style="fill:#fc476e"/><path d="M163.4,114.5V104l-2.5,4a.76.76,0,0,1-.4.2H159a.52.52,0,0,1-.4-.2l-2.5-4v10.5a.47.47,0,0,1-.44.5H154a.47.47,0,0,1-.5-.44v-.06h0V99.4a.47.47,0,0,1,.44-.5h1.86a.52.52,0,0,1,.4.2l3.6,5.8,3.7-5.8a.76.76,0,0,1,.4-.2h1.7a.47.47,0,0,1,.5.44v.06h0v15.1a.47.47,0,0,1-.44.5H164A.65.65,0,0,1,163.4,114.5Z" style="fill:#fc476e"/><path d="M167.8,109.4v-5a5.37,5.37,0,0,1,5.1-5.6h.4a5.5,5.5,0,0,1,5.3,5.5v5.1a5.38,5.38,0,0,1-5.15,5.6H173a5.26,5.26,0,0,1-5.21-5.31A2.81,2.81,0,0,1,167.8,109.4Zm5.2-8a2.78,2.78,0,0,0-2.6,2.9v5.1a2.84,2.84,0,0,0,2.4,3h.4a2.78,2.78,0,0,0,2.6-2.9v-5.1a2.79,2.79,0,0,0-2.5-3Z" style="fill:#fc476e"/><path d="M181.6,98.9h1.6a.43.43,0,0,1,.4.4v11.8a.43.43,0,0,1-.4.4h-1.6a.43.43,0,0,1-.4-.4V99.4C181.2,99.1,181.3,98.9,181.6,98.9Zm0,13.5h1.6a.43.43,0,0,1,.4.4v1.6a.43.43,0,0,1-.4.4h-1.6a.43.43,0,0,1-.4-.4v-1.6a.37.37,0,0,1,.34-.4Z" style="fill:#fc476e"/><path d="M194.1,114.5a.47.47,0,0,1-.44.5H192a.47.47,0,0,1-.5-.44v-.06h0V99.4a.47.47,0,0,1,.44-.5h4.16a5,5,0,0,1,5.2,4.7v.7a4.93,4.93,0,0,1-5.06,4.8H194.1v5.4Zm0-13v5h2a2.27,2.27,0,0,0,2.5-2v-.7a2.34,2.34,0,0,0-2.4-2.2h-2.1Z" style="fill:#fc476e"/><path d="M205,109.1v5.4a.47.47,0,0,1-.44.5H202.9a.47.47,0,0,1-.5-.44v-.06h0V99.4a.47.47,0,0,1,.44-.5H207a5,5,0,0,1,5.2,4.7v.7a4.65,4.65,0,0,1-2.7,4.2l2.9,5.8a.61.61,0,0,1-.1.7.37.37,0,0,1-.3.1h-2c-.2,0-.3-.1-.5-.3l-2.8-5.6Zm0-7.6v5h2a2.27,2.27,0,0,0,2.5-2v-.7a2.34,2.34,0,0,0-2.4-2.2H205Z" style="fill:#fc476e"/><path d="M213.4,109.4v-5a5.37,5.37,0,0,1,5.1-5.6h.4a5.36,5.36,0,0,1,5.2,5.5v5.1A5.37,5.37,0,0,1,219,115h-.4a5.34,5.34,0,0,1-5.21-5.45.76.76,0,0,0,0-.15Zm5.2-8a2.78,2.78,0,0,0-2.6,2.9v5.1a2.84,2.84,0,0,0,2.4,3h.4a2.78,2.78,0,0,0,2.6-2.9v-5.1a2.85,2.85,0,0,0-2.5-3Z" style="fill:#fc476e"/><path d="M235.8,114.5V104l-2.5,4a.76.76,0,0,1-.4.2h-1.4a.52.52,0,0,1-.4-.2l-2.5-4v10.5a.47.47,0,0,1-.44.5H226.5a.47.47,0,0,1-.5-.44v-.06h0V99.4a.47.47,0,0,1,.44-.5h1.86a.52.52,0,0,1,.4.2l3.6,5.8,3.7-5.8a.76.76,0,0,1,.4-.2h1.7a.47.47,0,0,1,.5.44v.06h0v15.1a.47.47,0,0,1-.44.5H236.5A.68.68,0,0,1,235.8,114.5Z" style="fill:#fc476e"/><path d="M240.2,109.4v-5a5.37,5.37,0,0,1,5.1-5.6h.4a5.5,5.5,0,0,1,5.3,5.5v5.1a5.38,5.38,0,0,1-5.15,5.6h-.45a5.26,5.26,0,0,1-5.21-5.31,2.81,2.81,0,0,1,0-.29Zm5.2-8a2.78,2.78,0,0,0-2.6,2.9v5.1a2.84,2.84,0,0,0,2.4,3h.4a2.78,2.78,0,0,0,2.6-2.9v-5.1a2.79,2.79,0,0,0-2.5-3Z" style="fill:#fc476e"/><path d="M254,98.9h1.6a.43.43,0,0,1,.4.4v11.8a.43.43,0,0,1-.4.4H254a.43.43,0,0,1-.4-.4V99.4C253.6,99.1,253.7,98.9,254,98.9Zm0,13.5h1.6a.43.43,0,0,1,.4.4v1.6a.43.43,0,0,1-.4.4H254a.43.43,0,0,1-.4-.4v-1.6a.37.37,0,0,1,.34-.4Z" style="fill:#fc476e"/><path d="M259.5,98.9h1.6a.43.43,0,0,1,.4.4v11.8a.43.43,0,0,1-.4.4h-1.6a.43.43,0,0,1-.4-.4V99.4C259.1,99.1,259.2,98.9,259.5,98.9Zm0,13.5h1.6a.43.43,0,0,1,.4.4v1.6a.43.43,0,0,1-.4.4h-1.6a.43.43,0,0,1-.4-.4v-1.6A.43.43,0,0,1,259.5,112.4Z" style="fill:#fc476e"/><path d="M157.4,138.2a.47.47,0,0,1-.44.5H155.3a.47.47,0,0,1-.5-.44V123.7a.47.47,0,0,1,.44-.5h4a4.79,4.79,0,0,1,5,4.5v.7a4.78,4.78,0,0,1-4.9,4.6h-2Zm0-12.4v4.7h1.9a2.23,2.23,0,0,0,2.4-2v-.7a2.25,2.25,0,0,0-2.39-2.1h-.11Z" style="fill:#fc476e"/><path d="M167.8,133.1v5.1a.47.47,0,0,1-.44.5H165.7a.47.47,0,0,1-.5-.44V123.7a.47.47,0,0,1,.44-.5h4a4.79,4.79,0,0,1,5,4.5v.7a4.63,4.63,0,0,1-2.6,4.1l2.8,5.5c.1.2.1.5-.1.6a.37.37,0,0,1-.3.1h-1.7c-.2,0-.3-.1-.4-.3l-2.7-5.3Zm0-7.3v4.7h1.9a2.23,2.23,0,0,0,2.4-2v-.7a2.25,2.25,0,0,0-2.39-2.1h-.11Z" style="fill:#fc476e"/><path d="M175.8,133.4v-4.8a5.22,5.22,0,0,1,4.9-5.4h.4a5.21,5.21,0,0,1,5,5.3v4.9a5.28,5.28,0,0,1-4.9,5.4h-.4a5.17,5.17,0,0,1-5-5.33v-.07Zm5-7.7a2.67,2.67,0,0,0-2.5,2.8v4.9a2.59,2.59,0,0,0,2.36,2.8h.44a2.72,2.72,0,0,0,2.5-2.7v-4.9a2.61,2.61,0,0,0-2.38-2.8h-.12Z" style="fill:#fc476e"/><path d="M197.2,138.2v-10l-2.4,3.8a.52.52,0,0,1-.4.2H193a.52.52,0,0,1-.4-.2l-2.4-3.8v10a.47.47,0,0,1-.44.5H188.2a.47.47,0,0,1-.5-.44V123.7a.47.47,0,0,1,.44-.5h1.76a.52.52,0,0,1,.4.2l3.5,5.5,3.5-5.5a.76.76,0,0,1,.4-.2h1.7a.47.47,0,0,1,.5.44V138.1a.47.47,0,0,1-.44.5H197.8C197.4,138.6,197.2,138.4,197.2,138.2Z" style="fill:#fc476e"/><path d="M201.4,133.4v-4.8a5.28,5.28,0,0,1,4.9-5.4h.4a5.21,5.21,0,0,1,5,5.3v4.9a5.28,5.28,0,0,1-4.9,5.4h-.4a5.17,5.17,0,0,1-5-5.33v-.07Zm5-7.7a2.67,2.67,0,0,0-2.5,2.8v4.9a2.59,2.59,0,0,0,2.36,2.8h.44a2.65,2.65,0,0,0,2.5-2.7v-4.9a2.61,2.61,0,0,0-2.38-2.8h-.12Z" style="fill:#fc476e"/><path d="M214.5,123.4h1.6a.43.43,0,0,1,.4.4v11.3a.43.43,0,0,1-.4.4h-1.5a.43.43,0,0,1-.4-.4V123.8C214.1,123.5,214.3,123.4,214.5,123.4Zm0,12.8h1.6a.43.43,0,0,1,.4.4v1.6a.43.43,0,0,1-.4.4h-1.5a.43.43,0,0,1-.4-.4v-1.6C214.1,136.4,214.3,136.2,214.5,136.2Z" style="fill:#fc476e"/><path d="M219.8,123.4h1.6a.43.43,0,0,1,.4.4v11.3a.43.43,0,0,1-.4.4h-1.6a.43.43,0,0,1-.4-.4V123.8a.37.37,0,0,1,.34-.4Zm0,12.8h1.6a.43.43,0,0,1,.4.4v1.6a.43.43,0,0,1-.4.4h-1.6a.43.43,0,0,1-.4-.4v-1.6A.43.43,0,0,1,219.8,136.2Z" style="fill:#fc476e"/><path d="M225,123.4h1.6a.43.43,0,0,1,.4.4v11.3a.43.43,0,0,1-.4.4h-1.5a.43.43,0,0,1-.4-.4V123.8C224.6,123.5,224.8,123.4,225,123.4Zm0,12.8h1.6a.43.43,0,0,1,.4.4v1.6a.43.43,0,0,1-.4.4h-1.5a.43.43,0,0,1-.4-.4v-1.6C224.6,136.4,224.8,136.2,225,136.2Z" style="fill:#fc476e"/><path d="M192.2,89.6a5.35,5.35,0,1,0-5.4,5.3h0a5.29,5.29,0,0,0,5.4-5.18Z" style="fill:#f7c92b"/><path d="M186.8,84.3a8.65,8.65,0,0,0-1.6.2,5.32,5.32,0,0,1,3.52,6.65l0,0a5.13,5.13,0,0,1-3.5,3.5,4.15,4.15,0,0,0,1.6.2,5.34,5.34,0,0,0,5.3-5.3A5.21,5.21,0,0,0,187,84.3Z" style="fill:#f2b51d"/><path d="M187.5,58.5a3.16,3.16,0,1,1,2.5-3.7h0A3.29,3.29,0,0,1,187.5,58.5Z" style="fill:#f7c92b"/><path d="M189.9,54.7a3.18,3.18,0,0,0-3.7-2.5l-.5.1a3.23,3.23,0,0,1,1.9,4.1,3,3,0,0,1-1.9,1.9,3.26,3.26,0,0,0,4.1-1.8A2.78,2.78,0,0,0,189.9,54.7Z" style="fill:#f2b51d"/><path d="M200.1,88.7H173.6a4.27,4.27,0,0,1-4.3-4.24V84.4a4.55,4.55,0,0,1,1.6-3.4l.9-.7a8.28,8.28,0,0,0,3.1-6.5V69.3a12,12,0,1,1,24,0V74a8.33,8.33,0,0,0,3,6.4l.8.7a4.2,4.2,0,0,1,1.6,3.3h0a4.18,4.18,0,0,1-4.06,4.3Z" style="fill:#f7e249"/><path d="M202.8,81.1l-.8-.7a8.33,8.33,0,0,1-3-6.4V69.4a12.06,12.06,0,0,0-12-12.1,12.66,12.66,0,0,0-3.4.5,11.91,11.91,0,0,1,8.6,11.6V74a8.33,8.33,0,0,0,3,6.4l.8.7a4.2,4.2,0,0,1,1.6,3.3h0a4.27,4.27,0,0,1-4.24,4.3h6.74a4.27,4.27,0,0,0,4.3-4.24V84.4h0A4.2,4.2,0,0,0,202.8,81.1Z" style="fill:#f7c92b"/><path d="M208.5,59.6a10.35,10.35,0,1,0-10.4,10.3h0a10.32,10.32,0,0,0,10.4-10.22Z" style="fill:#fc476e"/><path d="M200.9,49.7a10.36,10.36,0,0,1-8.8,18.4,10.32,10.32,0,0,0,12-16.8A8.05,8.05,0,0,0,200.9,49.7Z" style="fill:#cc2b5a"/><path d="M198.2,64.4a.67.67,0,0,1-.7-.66v-7l-.3.3a.68.68,0,0,1-1,0l0-.05h0a.76.76,0,0,1,0-1h0l1.5-1.3a.76.76,0,0,1,1,.1c.1.1.1.3.2.4v8.6A.85.85,0,0,1,198.2,64.4Z" style="fill:#e3faff"/><path d="M134.58,237.07v-4.43h-.33a.47.47,0,0,1-.43-.43v-1.52a.47.47,0,0,1,.43-.43h.33v-1.95a.45.45,0,0,1,.43-.43h1.51a.47.47,0,0,1,.44.43h0v1.95h2.81a.47.47,0,0,1,.43.43v1.52a.47.47,0,0,1-.43.43H137v4.43a1.66,1.66,0,0,0,1.62,1.63H139c.33,0,.65-.33.87-.44a.74.74,0,0,1,.65,0,7.87,7.87,0,0,0,1,1,.41.41,0,0,1,.08.57l-.08.08h0a3.54,3.54,0,0,1-2.38,1.08h-.43a4,4,0,0,1-4.11-3.89h0Z" style="fill:#28a745"/><path d="M149.93,234.15a16.57,16.57,0,0,1,.54,1.95l1.52-5.51a1.37,1.37,0,0,1,.43-.33h1.51c.22,0,.44.11.44.33v.21l-2.71,9.63c-.1.21-.21.32-.43.32h-1.51c-.22,0-.33-.11-.44-.32l-1.62-5.73L146,240.43c-.11.21-.22.32-.43.32h-1.52c-.21,0-.32-.11-.43-.32L141,230.8a.27.27,0,0,1,.06-.38.25.25,0,0,1,.15,0h1.73c.22,0,.33.11.44.32l1.51,5.52,1.51-5.52a1.71,1.71,0,0,1,.44-.32h1.73l.32.65c0-.11,0-.11.11-.22C149.39,232,149.61,233.07,149.93,234.15Z" style="fill:#28a745"/><path d="M154.69,234.26a3.9,3.9,0,0,1,7.79,0h0v2.81a3.9,3.9,0,1,1-7.79.39,2.54,2.54,0,0,1,0-.39Zm2.27,0v2.81a1.63,1.63,0,0,0,3.25.26,1.13,1.13,0,0,0,0-.26v-2.81a1.68,1.68,0,0,0-1.62-1.62,1.6,1.6,0,0,0-1.63,1.57Z" style="fill:#28a745"/><path d="M172.67,229.29a3.88,3.88,0,0,1,3.89,3.87V236a3.88,3.88,0,0,1-3.86,3.9h0a4.26,4.26,0,0,1-1.62-.33V244c0,.21-.22.32-.43.43H169.1a.47.47,0,0,1-.43-.43h0V229.72a.45.45,0,0,1,.43-.43h1.52c.21,0,.32.11.43.32A4.29,4.29,0,0,1,172.67,229.29Zm-1.51,3.89V236a1.62,1.62,0,0,0,3.24,0v-2.81a1.68,1.68,0,0,0-1.62-1.62,1.53,1.53,0,0,0-1.62,1.43v.19Z" style="fill:#28a745"/><path d="M181.43,239.78h-.87a3.46,3.46,0,0,1,0-6.92h.87a4,4,0,0,1,1.19.21v-.54a1.15,1.15,0,0,0-1-1.08h-1.3a1.39,1.39,0,0,0-.87.43.4.4,0,0,1-.56.09l-.09-.09-1-1c-.32-.32-.22-.43,0-.65a3.47,3.47,0,0,1,2.38-1.08h1.3a3.33,3.33,0,0,1,3.24,3.35v6.71a.45.45,0,0,1-.43.43h-1.41c-.1,0-.32-.11-.32-.22A2.19,2.19,0,0,1,181.43,239.78Zm-2-3.35a1.21,1.21,0,0,0,1.19,1.19h.87a1.19,1.19,0,0,0,0-2.38h-.87a1.07,1.07,0,0,0-1.14,1,.54.54,0,0,0,0,.18Z" style="fill:#28a745"/><path d="M186.73,244.32h0a.39.39,0,0,1-.43-.35v-1.6c0-.21.21-.32.43-.43h.11c1.29,0,1.51-2.16,1.73-2.81l-3.14-9.41a.38.38,0,0,1,.18-.52l0,0h1.73c.21,0,.32.11.43.32l2.06,6.17,2-6.17.32-.32h1.63c.43,0,.54.32.43.65-.43,1.4-4.11,11.89-4.22,12A3.46,3.46,0,0,1,186.73,244.32Z" style="fill:#28a745"/><path d="M198.41,229.18a3.46,3.46,0,0,1,2.27.87,3.46,3.46,0,0,1,2.27-.87,3.41,3.41,0,0,1,3.46,3.36v6.81a.47.47,0,0,1-.43.43h-1.52a.47.47,0,0,1-.43-.43h0v-6.71a1.2,1.2,0,0,0-2.27-.76.92.92,0,0,0,0,.76v6.71a.47.47,0,0,1-.43.43h-1.52a.47.47,0,0,1-.43-.43h0v-6.71a1.08,1.08,0,0,0-2.16,0v6.71a.47.47,0,0,1-.43.43h-1.52a.47.47,0,0,1-.43-.43h0v-9.63a.45.45,0,0,1,.43-.43h1.52c.1,0,.21.11.32.21A3.08,3.08,0,0,1,198.41,229.18Z" style="fill:#28a745"/><path d="M211.17,237.62H212a2.17,2.17,0,0,0,.87-.44c.22-.11.43-.21.54,0s.76.76,1,1.08a.3.3,0,0,1,.14.4.32.32,0,0,1-.14.14h0a3.47,3.47,0,0,1-2.38,1.09h-.86a3.88,3.88,0,0,1-3.89-3.87v0h0v-2.81a3.89,3.89,0,0,1,7.78,0h0v2.16a.46.46,0,0,1-.43.44h-5.08v.32A1.85,1.85,0,0,0,211.17,237.62Zm-1.62-4.44v.33h3.24v-.22a1.65,1.65,0,0,0-1.62-1.62,1.5,1.5,0,0,0-1.62,1.38v.13Z" style="fill:#28a745"/><path d="M219.93,229.18a3.88,3.88,0,0,1,3.89,3.87v0h0v6.28a.45.45,0,0,1-.43.43h-1.51a.47.47,0,0,1-.44-.43v-6.28a1.62,1.62,0,0,0-3.24,0v6.28a.47.47,0,0,1-.43.43h-1.3a.45.45,0,0,1-.43-.43v-9.63a.45.45,0,0,1,.43-.43H218c.22,0,.33.11.43.32A6.59,6.59,0,0,1,219.93,229.18Z" style="fill:#28a745"/><path d="M225,236v-4.43h-.32a.47.47,0,0,1-.44-.43v-1.52a.47.47,0,0,1,.44-.43H225v-2a.47.47,0,0,1,.43-.43H227a.47.47,0,0,1,.43.43h0v2h2.81a.45.45,0,0,1,.43.43v1.52a.45.45,0,0,1-.43.43h-2.92V236a1.67,1.67,0,0,0,1.62,1.63h.44c.32,0,.65-.33.86-.44a.68.68,0,0,1,.65,0,9.44,9.44,0,0,0,1,1,.39.39,0,0,1,.1.54.47.47,0,0,1-.1.1h0a3.46,3.46,0,0,1-2.37,1.09H229a4,4,0,0,1-4-3.9Z" style="fill:#28a745"/><path d="M240.94,229.21a3.88,3.88,0,0,1,3.89,3.87v2.83A3.88,3.88,0,0,1,241,239.8h0a4.34,4.34,0,0,1-1.63-.32v4.43c0,.22-.21.33-.43.44h-1.51a.46.46,0,0,1-.43-.44h0V229.64a.45.45,0,0,1,.43-.43h1.51c.22,0,.33.1.43.32A3.66,3.66,0,0,1,240.94,229.21Zm-1.63,3.89v2.81a1.63,1.63,0,0,0,3.25,0h0V233.1a1.65,1.65,0,0,0-1.62-1.62,1.54,1.54,0,0,0-1.63,1.45Z" style="fill:#28a745"/><path d="M245.8,225.1a.46.46,0,0,1,.44-.44h1.51c.22,0,.32.22.43.44v11.35a1.21,1.21,0,0,0,1.19,1.19h.33a.47.47,0,0,1,.43.43h0v1.41a.45.45,0,0,1-.43.43h-.33a3.36,3.36,0,0,1-3.35-3.35Z" style="fill:#28a745"/><path d="M254.24,239.7h-.87a3.46,3.46,0,0,1,0-6.92h.88a4,4,0,0,1,1.19.21v-.54a1.15,1.15,0,0,0-1-1.08h-1.29a1.39,1.39,0,0,0-.87.43.4.4,0,0,1-.56.09.38.38,0,0,1-.09-.09l-1-1c-.32-.33-.22-.43,0-.65a3.47,3.47,0,0,1,2.38-1.08h1.3a3.35,3.35,0,0,1,3.24,3.35v6.71a.47.47,0,0,1-.43.43h-1.52c-.1,0-.32-.11-.32-.22A1.62,1.62,0,0,1,254.24,239.7Zm-2.06-3.36a1.21,1.21,0,0,0,1.19,1.19h.87a1.19,1.19,0,0,0,0-2.38h-.87a1.09,1.09,0,0,0-1.19,1A.74.74,0,0,0,252.18,236.34Z" style="fill:#28a745"/><path d="M262.67,229.1a3.88,3.88,0,0,1,3.9,3.86v0h0v6.27a.46.46,0,0,1-.44.44h-1.51a.46.46,0,0,1-.43-.44V233a1.63,1.63,0,0,0-3.25,0v6.27a.46.46,0,0,1-.43.44H259a.46.46,0,0,1-.44-.44v-9.62a.46.46,0,0,1,.44-.43h1.51c.22,0,.32.1.43.32A12.9,12.9,0,0,1,262.67,229.1Z" style="fill:#28a745"/><path d="M267.86,238.72c-.21-.21-.21-.43,0-.54h0c.33-.43.65-.65.87-1a.36.36,0,0,1,.51-.13l0,0h.11a1.3,1.3,0,0,0,.86.43h1.41a1,1,0,0,0,.49-1.94,1,1,0,0,0-.49,0h-1a3.34,3.34,0,0,1-3.25-3.25,3.25,3.25,0,0,1,3.25-3.24h1a4.64,4.64,0,0,1,2.38,1,.71.71,0,0,1,.11.76h0c-.33.32-.54.65-.87,1a.4.4,0,0,1-.56.09.38.38,0,0,1-.09-.09h0a1.34,1.34,0,0,0-.86-.43h-1a.93.93,0,1,0,0,1.86h1A3.32,3.32,0,0,1,275,236.5a3.25,3.25,0,0,1-3.24,3.25h-1.41A4.67,4.67,0,0,1,267.86,238.72Z" style="fill:#28a745"/><path d="M140.49,218.21a6.06,6.06,0,0,1-9.48.61,6.89,6.89,0,0,1,0-9.12,6.07,6.07,0,0,1,9.48.6,1.4,1.4,0,0,1-.33,1.92,1.38,1.38,0,0,1-1.91-.33v0a3.35,3.35,0,0,0-2.77-1.43,3.8,3.8,0,0,0,0,7.56,3.35,3.35,0,0,0,2.77-1.42,1.38,1.38,0,0,1,1.92-.36h0a1.4,1.4,0,0,1,.36,1.95Z" style="fill:#28a745"/><path d="M152.5,213.43v6a1.38,1.38,0,1,1-2.75.23.88.88,0,0,1,0-.23v-6a2.66,2.66,0,0,0-5.3-.46,3.53,3.53,0,0,0,0,.46v6a1.39,1.39,0,0,1-2.77,0V205.57a1.39,1.39,0,0,1,2.77,0v2.89a5.38,5.38,0,0,1,6.56,1A5.78,5.78,0,0,1,152.5,213.43Z" style="fill:#28a745"/><path d="M160,220.89a6.53,6.53,0,1,1,6.54-6.52h0a6.52,6.52,0,0,1-6.53,6.51Zm0-10.3a3.78,3.78,0,1,0,3.77,3.79,3.78,3.78,0,0,0-3.77-3.79Z" style="fill:#28a745"/><path d="M174,220.89a6.53,6.53,0,1,1,6.54-6.52h0a6.52,6.52,0,0,1-6.53,6.51Zm0-10.3a3.78,3.78,0,1,0,3.77,3.79,3.78,3.78,0,0,0-3.77-3.79Z" style="fill:#28a745"/><path d="M181.59,218.42a1.37,1.37,0,1,1,2.49-1.16,1.72,1.72,0,0,0,1.63.81c1.28,0,1.73-.78,1.73-1.3,0-.71-.19-.93-2-1.4a7.13,7.13,0,0,1-2.41-.88,3.3,3.3,0,0,1-1.54-2.89,3.71,3.71,0,0,1,1.16-2.65,4.35,4.35,0,0,1,3.1-1.18,4.13,4.13,0,0,1,3.88,2.25,1.37,1.37,0,0,1-2.48,1.16,1.47,1.47,0,0,0-1.4-.67c-1.09,0-1.49.69-1.49,1.09s.09.67,1.84,1.12c1.54.38,4.12,1,4.12,4.05a4,4,0,0,1-1.18,2.79,4.56,4.56,0,0,1-3.29,1.26A4.38,4.38,0,0,1,181.59,218.42Z" style="fill:#28a745"/><path d="M197.34,220.93a6,6,0,0,1-4.5-2,6.64,6.64,0,0,1-1.71-4.55c0-3.74,2.63-6.53,6.09-6.53s6,2.74,6,6.53a1.38,1.38,0,0,1-1.39,1.37h-7.76a3.43,3.43,0,0,0,3.25,2.47,2.78,2.78,0,0,0,2.72-1.33,1.38,1.38,0,1,1,2.37,1.42A5.38,5.38,0,0,1,197.34,220.93Zm-3.27-8h6.23a3.15,3.15,0,0,0-3.08-2.39,3.27,3.27,0,0,0-3.15,2.46Z" style="fill:#28a745"/><path d="M282.17,238.94a2.29,2.29,0,0,1-2.35,2.23h0a2.23,2.23,0,0,1,0-4.46,2.29,2.29,0,0,1,2.38,2.2Z" style="fill:#28a745"/><path d="M284,266.3a2.12,2.12,0,0,1-2.17,2.07h0a2.07,2.07,0,0,1,0-4.14,2.13,2.13,0,0,1,2.2,2Z" style="fill:#28a745"/><path d="M109.07,259a5.09,5.09,0,0,1-5.08,5.1h-2.75v2.7a1.16,1.16,0,1,1-2.32,0h0V255.1a1.16,1.16,0,0,1,1.16-1.16H104A5.09,5.09,0,0,1,109.07,259Zm-2.32,0a2.75,2.75,0,0,0-2.76-2.74h-2.75v5.5H104a2.75,2.75,0,0,0,2.75-2.75Z" style="fill:#28a745"/><path d="M194.54,179.93l-1.9-1.28.16,2.28h-1.36l.16-2.3-1.9,1.28-.68-1.16,2-1-2-1,.68-1.18,1.88,1.26-.14-2.26h1.36l-.14,2.26,1.88-1.24.68,1.16-2.06,1,2.06,1Z" style="fill:#28a745"/><path d="M216.7,210.64a1.13,1.13,0,0,1-1.13,1.13H213.9v6.87a1.13,1.13,0,1,1-2.26,0v-6.8a1.13,1.13,0,0,1,0-2.26v-.25a3.2,3.2,0,0,1,3.19-3.21h0a3.77,3.77,0,0,1,1.15.21,1.12,1.12,0,0,1,.65,1.43v0a1.1,1.1,0,0,1-1.41.66l-.05,0a1.26,1.26,0,0,0-.33-.05.93.93,0,0,0-.93.93v.27h1.67A1.15,1.15,0,0,1,216.7,210.64Z" style="fill:#28a745"/><path d="M223.06,210.35a1.13,1.13,0,0,1-1.13,1.13h0a2.25,2.25,0,0,0-2.2,2.29.45.45,0,0,0,0,.11v4.76a1.13,1.13,0,1,1-2.25.21.74.74,0,0,1,0-.21v-8.47a1.12,1.12,0,0,1,1.11-1.13h0a1.13,1.13,0,0,1,1.09.84,4.34,4.34,0,0,1,2.22-.61A1.13,1.13,0,0,1,223.06,210.35Z" style="fill:#28a745"/><path d="M227.83,219.77a5.36,5.36,0,1,1,5.38-5.35,5.36,5.36,0,0,1-5.38,5.35Zm0-8.46a3.11,3.11,0,1,0,3.1,3.12h0a3.11,3.11,0,0,0-3.09-3.11Z" style="fill:#28a745"/><path d="M248.62,213.64v5a1.14,1.14,0,0,1-2.27,0v-5c0-1.42-.72-2.39-1.83-2.39a2.16,2.16,0,0,0-2.11,2.23.86.86,0,0,0,0,.16v5a1.14,1.14,0,1,1-2.28,0v-5c0-1.42-.72-2.39-1.83-2.39a2.16,2.16,0,0,0-2.09,2.23.86.86,0,0,0,0,.16v5a1.13,1.13,0,1,1-2.26,0v-8.47a1.12,1.12,0,0,1,1.12-1.13,1.15,1.15,0,0,1,1,.6,4.17,4.17,0,0,1,2.21-.6,3.83,3.83,0,0,1,3,1.4,4.22,4.22,0,0,1,3.18-1.4C246.89,209,248.62,211,248.62,213.64Z" style="fill:#28a745"/><path d="M232.63,182.05a3.25,3.25,0,0,1,2.1.8,3.25,3.25,0,0,1,2.1-.8,3.15,3.15,0,0,1,3.2,3.12v6.28a.43.43,0,0,1-.4.4h-1.4a.43.43,0,0,1-.4-.4h0v-6.2a1.11,1.11,0,0,0-2.1-.7.85.85,0,0,0,0,.7v6.2a.43.43,0,0,1-.4.4h-1.4a.43.43,0,0,1-.4-.4h0v-6.2a1,1,0,0,0-2,0v6.2a.43.43,0,0,1-.4.4h-1.3a.43.43,0,0,1-.4-.4h0v-8.9a.43.43,0,0,1,.4-.4h1.4c.1,0,.2.1.3.2A2,2,0,0,1,232.63,182.05Z" style="fill:#28a745"/><path d="M240.83,185.75a3.6,3.6,0,0,1,7.2,0h0v2.6a3.6,3.6,0,0,1-7.2,0h0Zm2.1,0v2.6a1.5,1.5,0,0,0,3,0h0v-2.6a1.54,1.54,0,0,0-1.5-1.5,1.47,1.47,0,0,0-1.5,1.44Z" style="fill:#28a745"/><path d="M252.53,182.05a3.59,3.59,0,0,1,3.6,3.58v0h0v5.8a.43.43,0,0,1-.4.4h-1.4a.43.43,0,0,1-.4-.4v-5.8a1.5,1.5,0,0,0-3,0h0v5.8a.43.43,0,0,1-.4.4h-1.4a.43.43,0,0,1-.4-.4h0v-8.9a.43.43,0,0,1,.4-.4h1.4c.2,0,.3.1.4.3A7.35,7.35,0,0,1,252.53,182.05Z" style="fill:#28a745"/><path d="M257.33,188.35v-4.1H257a.43.43,0,0,1-.4-.4v-1.4a.43.43,0,0,1,.4-.4h.3v-1.8a.43.43,0,0,1,.4-.4h1.4a.43.43,0,0,1,.4.4h0v1.8h2.6a.43.43,0,0,1,.4.4v1.4a.43.43,0,0,1-.4.4h-2.6v4.1a1.54,1.54,0,0,0,1.5,1.5h.4c.3,0,.6-.3.8-.4a.64.64,0,0,1,.6,0,7.65,7.65,0,0,0,.9.9.37.37,0,0,1,.08.52.3.3,0,0,1-.08.08h0a3.18,3.18,0,0,1-2.2,1h-.4a3.7,3.7,0,0,1-3.8-3.6h0Z" style="fill:#28a745"/><path d="M267.63,184.25a1.54,1.54,0,0,0-1.5,1.5v5.8a.43.43,0,0,1-.4.4h-1.4a.43.43,0,0,1-.4-.4v-13.2a.43.43,0,0,1,.4-.4h1.4c.2,0,.3.2.4.4v4.1a3.9,3.9,0,0,1,1.5-.3,3.59,3.59,0,0,1,3.6,3.58v0h0v5.8a.43.43,0,0,1-.4.4h-1.3a.43.43,0,0,1-.4-.4v-5.8a1.47,1.47,0,0,0-1.44-1.5Z" style="fill:#28a745"/><path d="M278.57,190.41c0,1.09-.9,3.48-2,3.48s-2-2.39-2-3.48a1.91,1.91,0,0,1,1.94-1.88h.06A2,2,0,0,1,278.57,190.41Z" style="fill:#28a745"/><path d="M102.41,233.55a4.22,4.22,0,1,1,8.43,0v3.07a4.22,4.22,0,0,1-8.43,0Zm2.5,0v3.07a1.73,1.73,0,0,0,1.71,1.71,1.71,1.71,0,0,0,1.72-1.71v-3.07a1.72,1.72,0,1,0-3.43,0Z" style="fill:#28a745"/><path d="M111.8,236.62v-6.79a.45.45,0,0,1,.41-.44h1.62a.45.45,0,0,1,.41.44v6.79a1.75,1.75,0,0,0,3.49,0v-6.79a.45.45,0,0,1,.44-.44h1.58a.46.46,0,0,1,.45.44v10.48a.46.46,0,0,1-.45.44h-1.58a.47.47,0,0,1-.44-.34,4,4,0,0,1-1.75.39A4.18,4.18,0,0,1,111.8,236.62Z" style="fill:#28a745"/><path d="M125.73,229.34h.5a4.81,4.81,0,0,1,2.57,1.06.57.57,0,0,1,0,.81,14.81,14.81,0,0,1-1,1.09c-.23.13-.44.16-.6,0a1.53,1.53,0,0,0-1-.49h-.5a1.74,1.74,0,0,0-1.74,1.74v6.76a.45.45,0,0,1-.42.44H122a.45.45,0,0,1-.44-.44V229.83a.45.45,0,0,1,.41-.44h1.61a.45.45,0,0,1,.42.36A4.12,4.12,0,0,1,125.73,229.34Z" style="fill:#28a745"/><path d="M204.51,181.67a3.9,3.9,0,0,1,3.89,3.89v2.83a3.87,3.87,0,0,1-5.5,3.51v4.49a.39.39,0,0,1-.38.38h-1.46a.4.4,0,0,1-.41-.38V182.13a.41.41,0,0,1,.38-.41h1.49a.41.41,0,0,1,.38.34A3.69,3.69,0,0,1,204.51,181.67Zm-1.61,3.89v2.83a1.61,1.61,0,0,0,3.22,0v-2.83a1.61,1.61,0,0,0-3.22,0Z" style="fill:#28a745"/><path d="M213,190h.91a1.66,1.66,0,0,0,.89-.46c.19-.12.39-.19.58,0s.74.75,1,1a.41.41,0,0,1,0,.62,3.38,3.38,0,0,1-2.45,1.06H213a3.86,3.86,0,0,1-3.86-3.87v-2.83a3.88,3.88,0,1,1,7.75,0v2.14a.42.42,0,0,1-.41.4h-5.09v.29A1.61,1.61,0,0,0,213,190Zm-1.61-4.44v.26h3.22v-.26a1.61,1.61,0,1,0-3.22,0Z" style="fill:#28a745"/><path d="M221.79,181.67h.46a4.41,4.41,0,0,1,2.37,1,.52.52,0,0,1,0,.74,12.77,12.77,0,0,1-.94,1c-.21.12-.41.14-.55,0a1.43,1.43,0,0,0-.91-.46h-.46a1.61,1.61,0,0,0-1.61,1.61v6.24a.41.41,0,0,1-.38.41h-1.46a.42.42,0,0,1-.41-.41v-9.67a.41.41,0,0,1,.38-.41h1.49a.41.41,0,0,1,.38.34A3.69,3.69,0,0,1,221.79,181.67Z" style="fill:#28a745"/></svg>